%TF.GenerationSoftware,KiCad,Pcbnew,(5.1.9)-1*%
%TF.CreationDate,2021-04-22T22:31:28+01:00*%
%TF.ProjectId,ai03-macropad-pcb,61693033-2d6d-4616-9372-6f7061642d70,rev?*%
%TF.SameCoordinates,Original*%
%TF.FileFunction,Profile,NP*%
%FSLAX46Y46*%
G04 Gerber Fmt 4.6, Leading zero omitted, Abs format (unit mm)*
G04 Created by KiCad (PCBNEW (5.1.9)-1) date 2021-04-22 22:31:28*
%MOMM*%
%LPD*%
G01*
G04 APERTURE LIST*
%TA.AperFunction,Profile*%
%ADD10C,0.050000*%
%TD*%
%TA.AperFunction,Profile*%
%ADD11C,0.100000*%
%TD*%
G04 APERTURE END LIST*
D10*
X69469000Y-189230000D02*
X96517884Y-189232116D01*
X36830000Y-189230000D02*
X63881000Y-189230000D01*
X64135000Y-188976000D02*
G75*
G02*
X63881000Y-189230000I-254000J0D01*
G01*
X69469000Y-189230000D02*
G75*
G02*
X69215000Y-188976000I0J254000D01*
G01*
X64135000Y-188976000D02*
G75*
G02*
X69215000Y-188976000I2540000J0D01*
G01*
X100332116Y-104140000D02*
X100330000Y-185420000D01*
X96520000Y-100327884D02*
X36830000Y-100327884D01*
X33020000Y-185420000D02*
X33022116Y-104140000D01*
X33017884Y-104140000D02*
G75*
G02*
X36830000Y-100327884I3812116J0D01*
G01*
X96520000Y-100327884D02*
G75*
G02*
X100332116Y-104140000I0J-3812116D01*
G01*
X36830000Y-189232116D02*
G75*
G02*
X33017884Y-185420000I0J3812116D01*
G01*
X100330000Y-185420000D02*
G75*
G02*
X96517884Y-189232116I-3812116J0D01*
G01*
D11*
%TO.C,D11*%
X45925001Y-142307841D02*
X45925001Y-140902157D01*
X46830548Y-140105000D02*
X48419453Y-140105000D01*
X49324999Y-140902157D02*
X49324999Y-142307841D01*
X48419452Y-143104999D02*
X46830548Y-143104999D01*
X46578290Y-143173298D02*
G75*
G02*
X46830548Y-143104999I252258J-431701D01*
G01*
X48419452Y-143104999D02*
G75*
G02*
X48671711Y-143173298I0J-500000D01*
G01*
X49374484Y-142524718D02*
G75*
G02*
X48671711Y-143173298I-450515J-216879D01*
G01*
X49374484Y-142524719D02*
G75*
G02*
X49324999Y-142307841I450515J216878D01*
G01*
X49324999Y-140902156D02*
G75*
G02*
X49374484Y-140685279I500000J-1D01*
G01*
X48671711Y-140036702D02*
G75*
G02*
X49374484Y-140685279I252258J-431700D01*
G01*
X48671711Y-140036701D02*
G75*
G02*
X48419453Y-140105000I-252258J431701D01*
G01*
X46830547Y-140104999D02*
G75*
G02*
X46578289Y-140036700I1J499999D01*
G01*
X45875516Y-140685279D02*
G75*
G02*
X46578289Y-140036700I450515J216878D01*
G01*
X45875516Y-140685279D02*
G75*
G02*
X45925001Y-140902157I-450515J-216878D01*
G01*
X45925001Y-142307842D02*
G75*
G02*
X45875516Y-142524719I-500000J1D01*
G01*
X46578289Y-143173296D02*
G75*
G02*
X45875516Y-142524719I-252258J431700D01*
G01*
%TO.C,D15*%
X64975001Y-142307841D02*
X64975001Y-140902157D01*
X65880548Y-140105000D02*
X67469453Y-140105000D01*
X68374999Y-140902157D02*
X68374999Y-142307841D01*
X67469452Y-143104999D02*
X65880548Y-143104999D01*
X65628290Y-143173298D02*
G75*
G02*
X65880548Y-143104999I252258J-431701D01*
G01*
X67469452Y-143104999D02*
G75*
G02*
X67721711Y-143173298I0J-500000D01*
G01*
X68424484Y-142524718D02*
G75*
G02*
X67721711Y-143173298I-450515J-216879D01*
G01*
X68424484Y-142524719D02*
G75*
G02*
X68374999Y-142307841I450515J216878D01*
G01*
X68374999Y-140902156D02*
G75*
G02*
X68424484Y-140685279I500000J-1D01*
G01*
X67721711Y-140036702D02*
G75*
G02*
X68424484Y-140685279I252258J-431700D01*
G01*
X67721711Y-140036701D02*
G75*
G02*
X67469453Y-140105000I-252258J431701D01*
G01*
X65880547Y-140104999D02*
G75*
G02*
X65628289Y-140036700I1J499999D01*
G01*
X64925516Y-140685279D02*
G75*
G02*
X65628289Y-140036700I450515J216878D01*
G01*
X64925516Y-140685279D02*
G75*
G02*
X64975001Y-140902157I-450515J-216878D01*
G01*
X64975001Y-142307842D02*
G75*
G02*
X64925516Y-142524719I-500000J1D01*
G01*
X65628289Y-143173296D02*
G75*
G02*
X64925516Y-142524719I-252258J431700D01*
G01*
%TO.C,D19*%
X84025001Y-161357841D02*
X84025001Y-159952157D01*
X84930548Y-159155000D02*
X86519453Y-159155000D01*
X87424999Y-159952157D02*
X87424999Y-161357841D01*
X86519452Y-162154999D02*
X84930548Y-162154999D01*
X84678290Y-162223298D02*
G75*
G02*
X84930548Y-162154999I252258J-431701D01*
G01*
X86519452Y-162154999D02*
G75*
G02*
X86771711Y-162223298I0J-500000D01*
G01*
X87474484Y-161574718D02*
G75*
G02*
X86771711Y-162223298I-450515J-216879D01*
G01*
X87474484Y-161574719D02*
G75*
G02*
X87424999Y-161357841I450515J216878D01*
G01*
X87424999Y-159952156D02*
G75*
G02*
X87474484Y-159735279I500000J-1D01*
G01*
X86771711Y-159086702D02*
G75*
G02*
X87474484Y-159735279I252258J-431700D01*
G01*
X86771711Y-159086701D02*
G75*
G02*
X86519453Y-159155000I-252258J431701D01*
G01*
X84930547Y-159154999D02*
G75*
G02*
X84678289Y-159086700I1J499999D01*
G01*
X83975516Y-159735279D02*
G75*
G02*
X84678289Y-159086700I450515J216878D01*
G01*
X83975516Y-159735279D02*
G75*
G02*
X84025001Y-159952157I-450515J-216878D01*
G01*
X84025001Y-161357842D02*
G75*
G02*
X83975516Y-161574719I-500000J1D01*
G01*
X84678289Y-162223296D02*
G75*
G02*
X83975516Y-161574719I-252258J431700D01*
G01*
%TO.C,D16*%
X64975001Y-161357841D02*
X64975001Y-159952157D01*
X65880548Y-159155000D02*
X67469453Y-159155000D01*
X68374999Y-159952157D02*
X68374999Y-161357841D01*
X67469452Y-162154999D02*
X65880548Y-162154999D01*
X65628290Y-162223298D02*
G75*
G02*
X65880548Y-162154999I252258J-431701D01*
G01*
X67469452Y-162154999D02*
G75*
G02*
X67721711Y-162223298I0J-500000D01*
G01*
X68424484Y-161574718D02*
G75*
G02*
X67721711Y-162223298I-450515J-216879D01*
G01*
X68424484Y-161574719D02*
G75*
G02*
X68374999Y-161357841I450515J216878D01*
G01*
X68374999Y-159952156D02*
G75*
G02*
X68424484Y-159735279I500000J-1D01*
G01*
X67721711Y-159086702D02*
G75*
G02*
X68424484Y-159735279I252258J-431700D01*
G01*
X67721711Y-159086701D02*
G75*
G02*
X67469453Y-159155000I-252258J431701D01*
G01*
X65880547Y-159154999D02*
G75*
G02*
X65628289Y-159086700I1J499999D01*
G01*
X64925516Y-159735279D02*
G75*
G02*
X65628289Y-159086700I450515J216878D01*
G01*
X64925516Y-159735279D02*
G75*
G02*
X64975001Y-159952157I-450515J-216878D01*
G01*
X64975001Y-161357842D02*
G75*
G02*
X64925516Y-161574719I-500000J1D01*
G01*
X65628289Y-162223296D02*
G75*
G02*
X64925516Y-161574719I-252258J431700D01*
G01*
%TO.C,D12*%
X45925001Y-161357841D02*
X45925001Y-159952157D01*
X46830548Y-159155000D02*
X48419453Y-159155000D01*
X49324999Y-159952157D02*
X49324999Y-161357841D01*
X48419452Y-162154999D02*
X46830548Y-162154999D01*
X46578290Y-162223298D02*
G75*
G02*
X46830548Y-162154999I252258J-431701D01*
G01*
X48419452Y-162154999D02*
G75*
G02*
X48671711Y-162223298I0J-500000D01*
G01*
X49374484Y-161574718D02*
G75*
G02*
X48671711Y-162223298I-450515J-216879D01*
G01*
X49374484Y-161574719D02*
G75*
G02*
X49324999Y-161357841I450515J216878D01*
G01*
X49324999Y-159952156D02*
G75*
G02*
X49374484Y-159735279I500000J-1D01*
G01*
X48671711Y-159086702D02*
G75*
G02*
X49374484Y-159735279I252258J-431700D01*
G01*
X48671711Y-159086701D02*
G75*
G02*
X48419453Y-159155000I-252258J431701D01*
G01*
X46830547Y-159154999D02*
G75*
G02*
X46578289Y-159086700I1J499999D01*
G01*
X45875516Y-159735279D02*
G75*
G02*
X46578289Y-159086700I450515J216878D01*
G01*
X45875516Y-159735279D02*
G75*
G02*
X45925001Y-159952157I-450515J-216878D01*
G01*
X45925001Y-161357842D02*
G75*
G02*
X45875516Y-161574719I-500000J1D01*
G01*
X46578289Y-162223296D02*
G75*
G02*
X45875516Y-161574719I-252258J431700D01*
G01*
%TO.C,D20*%
X84025001Y-180407841D02*
X84025001Y-179002157D01*
X84930548Y-178205000D02*
X86519453Y-178205000D01*
X87424999Y-179002157D02*
X87424999Y-180407841D01*
X86519452Y-181204999D02*
X84930548Y-181204999D01*
X84678290Y-181273298D02*
G75*
G02*
X84930548Y-181204999I252258J-431701D01*
G01*
X86519452Y-181204999D02*
G75*
G02*
X86771711Y-181273298I0J-500000D01*
G01*
X87474484Y-180624718D02*
G75*
G02*
X86771711Y-181273298I-450515J-216879D01*
G01*
X87474484Y-180624719D02*
G75*
G02*
X87424999Y-180407841I450515J216878D01*
G01*
X87424999Y-179002156D02*
G75*
G02*
X87474484Y-178785279I500000J-1D01*
G01*
X86771711Y-178136702D02*
G75*
G02*
X87474484Y-178785279I252258J-431700D01*
G01*
X86771711Y-178136701D02*
G75*
G02*
X86519453Y-178205000I-252258J431701D01*
G01*
X84930547Y-178204999D02*
G75*
G02*
X84678289Y-178136700I1J499999D01*
G01*
X83975516Y-178785279D02*
G75*
G02*
X84678289Y-178136700I450515J216878D01*
G01*
X83975516Y-178785279D02*
G75*
G02*
X84025001Y-179002157I-450515J-216878D01*
G01*
X84025001Y-180407842D02*
G75*
G02*
X83975516Y-180624719I-500000J1D01*
G01*
X84678289Y-181273296D02*
G75*
G02*
X83975516Y-180624719I-252258J431700D01*
G01*
%TO.C,D18*%
X84025001Y-142307841D02*
X84025001Y-140902157D01*
X84930548Y-140105000D02*
X86519453Y-140105000D01*
X87424999Y-140902157D02*
X87424999Y-142307841D01*
X86519452Y-143104999D02*
X84930548Y-143104999D01*
X84678290Y-143173298D02*
G75*
G02*
X84930548Y-143104999I252258J-431701D01*
G01*
X86519452Y-143104999D02*
G75*
G02*
X86771711Y-143173298I0J-500000D01*
G01*
X87474484Y-142524718D02*
G75*
G02*
X86771711Y-143173298I-450515J-216879D01*
G01*
X87474484Y-142524719D02*
G75*
G02*
X87424999Y-142307841I450515J216878D01*
G01*
X87424999Y-140902156D02*
G75*
G02*
X87474484Y-140685279I500000J-1D01*
G01*
X86771711Y-140036702D02*
G75*
G02*
X87474484Y-140685279I252258J-431700D01*
G01*
X86771711Y-140036701D02*
G75*
G02*
X86519453Y-140105000I-252258J431701D01*
G01*
X84930547Y-140104999D02*
G75*
G02*
X84678289Y-140036700I1J499999D01*
G01*
X83975516Y-140685279D02*
G75*
G02*
X84678289Y-140036700I450515J216878D01*
G01*
X83975516Y-140685279D02*
G75*
G02*
X84025001Y-140902157I-450515J-216878D01*
G01*
X84025001Y-142307842D02*
G75*
G02*
X83975516Y-142524719I-500000J1D01*
G01*
X84678289Y-143173296D02*
G75*
G02*
X83975516Y-142524719I-252258J431700D01*
G01*
%TO.C,D17*%
X64975001Y-180407841D02*
X64975001Y-179002157D01*
X65880548Y-178205000D02*
X67469453Y-178205000D01*
X68374999Y-179002157D02*
X68374999Y-180407841D01*
X67469452Y-181204999D02*
X65880548Y-181204999D01*
X65628290Y-181273298D02*
G75*
G02*
X65880548Y-181204999I252258J-431701D01*
G01*
X67469452Y-181204999D02*
G75*
G02*
X67721711Y-181273298I0J-500000D01*
G01*
X68424484Y-180624718D02*
G75*
G02*
X67721711Y-181273298I-450515J-216879D01*
G01*
X68424484Y-180624719D02*
G75*
G02*
X68374999Y-180407841I450515J216878D01*
G01*
X68374999Y-179002156D02*
G75*
G02*
X68424484Y-178785279I500000J-1D01*
G01*
X67721711Y-178136702D02*
G75*
G02*
X68424484Y-178785279I252258J-431700D01*
G01*
X67721711Y-178136701D02*
G75*
G02*
X67469453Y-178205000I-252258J431701D01*
G01*
X65880547Y-178204999D02*
G75*
G02*
X65628289Y-178136700I1J499999D01*
G01*
X64925516Y-178785279D02*
G75*
G02*
X65628289Y-178136700I450515J216878D01*
G01*
X64925516Y-178785279D02*
G75*
G02*
X64975001Y-179002157I-450515J-216878D01*
G01*
X64975001Y-180407842D02*
G75*
G02*
X64925516Y-180624719I-500000J1D01*
G01*
X65628289Y-181273296D02*
G75*
G02*
X64925516Y-180624719I-252258J431700D01*
G01*
%TO.C,D13*%
X45925001Y-180407841D02*
X45925001Y-179002157D01*
X46830548Y-178205000D02*
X48419453Y-178205000D01*
X49324999Y-179002157D02*
X49324999Y-180407841D01*
X48419452Y-181204999D02*
X46830548Y-181204999D01*
X46578290Y-181273298D02*
G75*
G02*
X46830548Y-181204999I252258J-431701D01*
G01*
X48419452Y-181204999D02*
G75*
G02*
X48671711Y-181273298I0J-500000D01*
G01*
X49374484Y-180624718D02*
G75*
G02*
X48671711Y-181273298I-450515J-216879D01*
G01*
X49374484Y-180624719D02*
G75*
G02*
X49324999Y-180407841I450515J216878D01*
G01*
X49324999Y-179002156D02*
G75*
G02*
X49374484Y-178785279I500000J-1D01*
G01*
X48671711Y-178136702D02*
G75*
G02*
X49374484Y-178785279I252258J-431700D01*
G01*
X48671711Y-178136701D02*
G75*
G02*
X48419453Y-178205000I-252258J431701D01*
G01*
X46830547Y-178204999D02*
G75*
G02*
X46578289Y-178136700I1J499999D01*
G01*
X45875516Y-178785279D02*
G75*
G02*
X46578289Y-178136700I450515J216878D01*
G01*
X45875516Y-178785279D02*
G75*
G02*
X45925001Y-179002157I-450515J-216878D01*
G01*
X45925001Y-180407842D02*
G75*
G02*
X45875516Y-180624719I-500000J1D01*
G01*
X46578289Y-181273296D02*
G75*
G02*
X45875516Y-180624719I-252258J431700D01*
G01*
%TD*%
M02*
