M48
; DRILL file {KiCad (5.1.9)-1} date 04/22/21 22:30:46
; FORMAT={-:-/ absolute / inch / decimal}
; #@! TF.CreationDate,2021-04-22T22:30:46+01:00
; #@! TF.GenerationSoftware,Kicad,Pcbnew,(5.1.9)-1
; #@! TF.FileFunction,NonPlated,1,2,NPTH
FMAT,2
INCH
T1C0.0256
T2C0.0689
T3C0.1570
%
G90
G05
T1
X2.5112Y-4.1348
X2.7388Y-4.1348
T2
X1.675Y-5.375
X1.675Y-6.125
X1.675Y-6.875
X2.075Y-5.375
X2.075Y-6.125
X2.075Y-6.875
X2.425Y-5.375
X2.425Y-6.125
X2.425Y-6.875
X2.825Y-5.375
X2.825Y-6.125
X2.825Y-6.875
X3.175Y-5.375
X3.175Y-6.125
X3.175Y-6.875
X3.575Y-5.375
X3.575Y-6.125
X3.575Y-6.875
T3
X1.875Y-5.375
X1.875Y-6.125
X1.875Y-6.875
X2.625Y-5.375
X2.625Y-6.125
X2.625Y-6.875
X3.375Y-5.375
X3.375Y-6.125
X3.375Y-6.875
T0
M30
