M48
; DRILL file {KiCad (5.1.9)-1} date 04/22/21 22:30:46
; FORMAT={-:-/ absolute / inch / decimal}
; #@! TF.CreationDate,2021-04-22T22:30:46+01:00
; #@! TF.GenerationSoftware,Kicad,Pcbnew,(5.1.9)-1
; #@! TF.FileFunction,Plated,1,2,PTH
FMAT,2
INCH
T1C0.0157
T2C0.0236
T3C0.0394
T4C0.1181
T5C0.1260
%
G90
G05
T1
X1.47Y-4.88
X1.5086Y-4.9214
X1.525Y-5.245
X1.525Y-5.305
X1.525Y-5.995
X1.525Y-6.055
X1.525Y-6.745
X1.525Y-6.805
X1.565Y-5.545
X1.565Y-6.295
X1.565Y-6.465
X1.565Y-7.045
X1.605Y-5.605
X1.605Y-6.355
X1.605Y-7.105
X1.62Y-4.96
X1.6202Y-4.9202
X1.67Y-4.76
X1.785Y-6.53
X2.0Y-4.05
X2.0443Y-4.7168
X2.05Y-4.05
X2.05Y-5.605
X2.05Y-6.355
X2.05Y-7.105
X2.0722Y-4.7447
X2.09Y-6.355
X2.09Y-6.465
X2.1Y-4.05
X2.1Y-4.7725
X2.1296Y-4.8021
X2.175Y-5.145
X2.175Y-5.205
X2.175Y-5.895
X2.175Y-5.955
X2.175Y-6.645
X2.175Y-6.705
X2.2Y-5.545
X2.2Y-7.045
X2.225Y-6.465
X2.275Y-5.245
X2.275Y-5.305
X2.275Y-5.995
X2.275Y-6.055
X2.275Y-6.745
X2.275Y-6.805
X2.305Y-4.695
X2.315Y-5.545
X2.315Y-6.295
X2.315Y-7.045
X2.355Y-5.605
X2.355Y-6.355
X2.355Y-7.105
X2.37Y-4.96
X2.37Y-4.96
X2.4Y-4.23
X2.4Y-4.305
X2.5Y-4.265
X2.5Y-4.495
X2.59Y-4.495
X2.66Y-4.495
X2.75Y-4.265
X2.77Y-4.915
X2.8Y-5.605
X2.8Y-6.355
X2.8Y-7.105
X2.815Y-4.305
X2.905Y-4.81
X2.925Y-5.145
X2.925Y-5.205
X2.925Y-5.895
X2.925Y-5.955
X2.925Y-6.645
X2.925Y-6.705
X2.95Y-4.225
X3.0Y-4.225
X3.015Y-4.615
X3.025Y-5.245
X3.025Y-5.305
X3.025Y-5.995
X3.025Y-6.055
X3.025Y-6.745
X3.025Y-6.805
X3.05Y-4.225
X3.065Y-5.545
X3.065Y-6.295
X3.065Y-6.465
X3.065Y-7.045
X3.07Y-4.725
X3.07Y-4.81
X3.09Y-4.54
X3.1Y-4.225
X3.1Y-4.84
X3.1Y-7.105
X3.105Y-5.605
X3.105Y-6.355
X3.12Y-4.96
X3.13Y-4.87
X3.145Y-4.01
X3.195Y-4.435
X3.265Y-4.905
X3.325Y-4.305
X3.37Y-4.96
X3.42Y-4.37
X3.545Y-7.105
X3.55Y-5.605
X3.55Y-5.605
X3.55Y-6.355
X3.605Y-4.725
X3.67Y-4.66
X3.675Y-5.145
X3.675Y-5.205
X3.675Y-5.895
X3.675Y-5.955
X3.675Y-6.645
X3.675Y-6.705
X3.69Y-6.47
X3.76Y-4.88
T3
X1.75Y-4.045
X1.75Y-4.145
X1.75Y-4.245
X1.75Y-4.345
X1.75Y-4.445
X1.75Y-4.545
T4
X1.725Y-5.275
X1.725Y-6.025
X1.725Y-6.775
X1.975Y-5.175
X1.975Y-5.925
X1.975Y-6.675
X2.475Y-5.275
X2.475Y-6.025
X2.475Y-6.775
X2.725Y-5.175
X2.725Y-5.925
X2.725Y-6.675
X3.225Y-5.275
X3.225Y-6.025
X3.225Y-6.775
X3.475Y-5.175
X3.475Y-5.925
X3.475Y-6.675
T5
X1.45Y-4.1
X1.45Y-7.3
X3.8Y-4.1
X3.8Y-7.3
T2
G00X2.4549Y-3.9793
M15
G01X2.4549Y-4.0029
M16
G05
G00X2.4549Y-4.134
M15
G01X2.4549Y-4.1773
M16
G05
G00X2.7951Y-3.9793
M15
G01X2.7951Y-4.0029
M16
G05
G00X2.7951Y-4.134
M15
G01X2.7951Y-4.1773
M16
G05
T0
M30
