%TF.GenerationSoftware,KiCad,Pcbnew,(5.1.9)-1*%
%TF.CreationDate,2021-04-22T22:31:28+01:00*%
%TF.ProjectId,ai03-macropad-pcb,61693033-2d6d-4616-9372-6f7061642d70,rev?*%
%TF.SameCoordinates,Original*%
%TF.FileFunction,Soldermask,Top*%
%TF.FilePolarity,Negative*%
%FSLAX46Y46*%
G04 Gerber Fmt 4.6, Leading zero omitted, Abs format (unit mm)*
G04 Created by KiCad (PCBNEW (5.1.9)-1) date 2021-04-22 22:31:28*
%MOMM*%
%LPD*%
G01*
G04 APERTURE LIST*
%ADD10C,1.750000*%
%ADD11C,3.987800*%
%ADD12C,5.600000*%
%ADD13R,1.700000X1.700000*%
%ADD14O,1.700000X1.700000*%
%ADD15C,0.650000*%
%ADD16O,1.000000X2.100000*%
%ADD17O,1.000000X1.600000*%
G04 APERTURE END LIST*
D10*
%TO.C,MX2*%
X52705000Y-155575000D03*
X42545000Y-155575000D03*
D11*
X47625000Y-155575000D03*
%TD*%
D10*
%TO.C,MX1*%
X52705000Y-136525000D03*
X42545000Y-136525000D03*
D11*
X47625000Y-136525000D03*
%TD*%
D10*
%TO.C,MX9*%
X90805000Y-174625000D03*
X80645000Y-174625000D03*
D11*
X85725000Y-174625000D03*
%TD*%
D10*
%TO.C,MX6*%
X71755000Y-174625000D03*
X61595000Y-174625000D03*
D11*
X66675000Y-174625000D03*
%TD*%
D10*
%TO.C,MX8*%
X90805000Y-155575000D03*
X80645000Y-155575000D03*
D11*
X85725000Y-155575000D03*
%TD*%
D10*
%TO.C,MX4*%
X71755000Y-136525000D03*
X61595000Y-136525000D03*
D11*
X66675000Y-136525000D03*
%TD*%
D10*
%TO.C,MX7*%
X90805000Y-136525000D03*
X80645000Y-136525000D03*
D11*
X85725000Y-136525000D03*
%TD*%
D10*
%TO.C,MX5*%
X71755000Y-155575000D03*
X61595000Y-155575000D03*
D11*
X66675000Y-155575000D03*
%TD*%
D10*
%TO.C,MX3*%
X52705000Y-174625000D03*
X42545000Y-174625000D03*
D11*
X47625000Y-174625000D03*
%TD*%
D12*
%TO.C,H4*%
X96520000Y-185420000D03*
%TD*%
%TO.C,H3*%
X96520000Y-104140000D03*
%TD*%
%TO.C,H2*%
X36830000Y-185420000D03*
%TD*%
%TO.C,H1*%
X36830000Y-104140000D03*
%TD*%
D13*
%TO.C,J2*%
X44450000Y-115443000D03*
D14*
X44450000Y-112903000D03*
X44450000Y-110363000D03*
X44450000Y-107823000D03*
X44450000Y-105283000D03*
X44450000Y-102743000D03*
%TD*%
D15*
%TO.C,USB1*%
X69565000Y-105024250D03*
X63785000Y-105024250D03*
D16*
X62355000Y-105554250D03*
X70995000Y-105554250D03*
D17*
X62355000Y-101374250D03*
X70995000Y-101374250D03*
%TD*%
M02*
