%TF.GenerationSoftware,KiCad,Pcbnew,(5.1.9)-1*%
%TF.CreationDate,2021-04-22T22:31:28+01:00*%
%TF.ProjectId,ai03-macropad-pcb,61693033-2d6d-4616-9372-6f7061642d70,rev?*%
%TF.SameCoordinates,Original*%
%TF.FileFunction,Legend,Bot*%
%TF.FilePolarity,Positive*%
%FSLAX46Y46*%
G04 Gerber Fmt 4.6, Leading zero omitted, Abs format (unit mm)*
G04 Created by KiCad (PCBNEW (5.1.9)-1) date 2021-04-22 22:31:28*
%MOMM*%
%LPD*%
G01*
G04 APERTURE LIST*
%ADD10C,0.120000*%
%ADD11C,0.180000*%
%ADD12C,0.100000*%
%ADD13C,0.150000*%
%ADD14R,2.550000X2.500000*%
%ADD15C,1.750000*%
%ADD16C,3.987800*%
%ADD17R,1.600000X0.850000*%
%ADD18C,5.600000*%
%ADD19C,3.000000*%
%ADD20R,0.550000X1.500000*%
%ADD21R,1.700000X1.700000*%
%ADD22O,1.700000X1.700000*%
%ADD23R,1.200000X0.900000*%
%ADD24R,1.400000X1.000000*%
%ADD25R,1.400000X1.200000*%
%ADD26R,0.600000X1.450000*%
%ADD27R,0.300000X1.450000*%
%ADD28C,0.650000*%
%ADD29O,1.000000X2.100000*%
%ADD30O,1.000000X1.600000*%
G04 APERTURE END LIST*
D10*
%TO.C,MX2*%
X47361500Y-152875000D02*
X52461500Y-152875000D01*
X43461500Y-148675000D02*
X48561500Y-148675000D01*
X41461500Y-150675000D02*
G75*
G02*
X43461500Y-148675000I2000000J0D01*
G01*
X45361500Y-154875000D02*
G75*
G02*
X47361500Y-152875000I2000000J0D01*
G01*
%TO.C,U1*%
X84228098Y-122353409D02*
X84740750Y-122866061D01*
X84740750Y-122866061D02*
X85253402Y-122353409D01*
X85253402Y-113168091D02*
X84740750Y-112655439D01*
X84740750Y-112655439D02*
X84228098Y-113168091D01*
X89333409Y-117248098D02*
X89846061Y-117760750D01*
X89846061Y-117760750D02*
X89333409Y-118273402D01*
X80148091Y-118273402D02*
X79635439Y-117760750D01*
D11*
X80579504Y-117715849D02*
G75*
G03*
X80579504Y-117715849I-283981J0D01*
G01*
D12*
%TO.C,D24*%
G36*
X96393000Y-163830000D02*
G01*
X95885000Y-163322000D01*
X96393000Y-163322000D01*
X96393000Y-163830000D01*
G37*
X96393000Y-163830000D02*
X95885000Y-163322000D01*
X96393000Y-163322000D01*
X96393000Y-163830000D01*
D10*
X96549000Y-163150000D02*
X96549000Y-164225000D01*
X90649000Y-163150000D02*
X96549000Y-163150000D01*
X90649000Y-167050000D02*
X96549000Y-167050000D01*
D12*
%TO.C,D23*%
G36*
X98123682Y-125537631D02*
G01*
X98123682Y-124819210D01*
X98482892Y-125178420D01*
X98123682Y-125537631D01*
G37*
X98123682Y-125537631D02*
X98123682Y-124819210D01*
X98482892Y-125178420D01*
X98123682Y-125537631D01*
D10*
X98714823Y-125167107D02*
X97954683Y-125927247D01*
X94542893Y-120995177D02*
X98714823Y-125167107D01*
X91785177Y-123752893D02*
X95957107Y-127924823D01*
D12*
%TO.C,D21*%
G36*
X37022369Y-127333682D02*
G01*
X37740790Y-127333682D01*
X37381580Y-127692892D01*
X37022369Y-127333682D01*
G37*
X37022369Y-127333682D02*
X37740790Y-127333682D01*
X37381580Y-127692892D01*
X37022369Y-127333682D01*
D10*
X37392893Y-127924823D02*
X36632753Y-127164683D01*
X41564823Y-123752893D02*
X37392893Y-127924823D01*
X38807107Y-120995177D02*
X34635177Y-125167107D01*
D12*
%TO.C,D22*%
G36*
X36957000Y-166370000D02*
G01*
X37465000Y-166878000D01*
X36957000Y-166878000D01*
X36957000Y-166370000D01*
G37*
X36957000Y-166370000D02*
X37465000Y-166878000D01*
X36957000Y-166878000D01*
X36957000Y-166370000D01*
D10*
X36801000Y-167050000D02*
X36801000Y-165975000D01*
X42701000Y-167050000D02*
X36801000Y-167050000D01*
X42701000Y-163150000D02*
X36801000Y-163150000D01*
%TO.C,MX1*%
X47361500Y-133825000D02*
X52461500Y-133825000D01*
X43461500Y-129625000D02*
X48561500Y-129625000D01*
X41461500Y-131625000D02*
G75*
G02*
X43461500Y-129625000I2000000J0D01*
G01*
X45361500Y-135825000D02*
G75*
G02*
X47361500Y-133825000I2000000J0D01*
G01*
%TO.C,MX9*%
X85461500Y-171925000D02*
X90561500Y-171925000D01*
X81561500Y-167725000D02*
X86661500Y-167725000D01*
X79561500Y-169725000D02*
G75*
G02*
X81561500Y-167725000I2000000J0D01*
G01*
X83461500Y-173925000D02*
G75*
G02*
X85461500Y-171925000I2000000J0D01*
G01*
%TO.C,MX6*%
X66411500Y-171925000D02*
X71511500Y-171925000D01*
X62511500Y-167725000D02*
X67611500Y-167725000D01*
X60511500Y-169725000D02*
G75*
G02*
X62511500Y-167725000I2000000J0D01*
G01*
X64411500Y-173925000D02*
G75*
G02*
X66411500Y-171925000I2000000J0D01*
G01*
%TO.C,MX8*%
X85461500Y-152875000D02*
X90561500Y-152875000D01*
X81561500Y-148675000D02*
X86661500Y-148675000D01*
X79561500Y-150675000D02*
G75*
G02*
X81561500Y-148675000I2000000J0D01*
G01*
X83461500Y-154875000D02*
G75*
G02*
X85461500Y-152875000I2000000J0D01*
G01*
%TO.C,MX4*%
X66411500Y-133825000D02*
X71511500Y-133825000D01*
X62511500Y-129625000D02*
X67611500Y-129625000D01*
X60511500Y-131625000D02*
G75*
G02*
X62511500Y-129625000I2000000J0D01*
G01*
X64411500Y-135825000D02*
G75*
G02*
X66411500Y-133825000I2000000J0D01*
G01*
%TO.C,MX7*%
X85461500Y-133825000D02*
X90561500Y-133825000D01*
X81561500Y-129625000D02*
X86661500Y-129625000D01*
X79561500Y-131625000D02*
G75*
G02*
X81561500Y-129625000I2000000J0D01*
G01*
X83461500Y-135825000D02*
G75*
G02*
X85461500Y-133825000I2000000J0D01*
G01*
%TO.C,MX5*%
X66411500Y-152875000D02*
X71511500Y-152875000D01*
X62511500Y-148675000D02*
X67611500Y-148675000D01*
X60511500Y-150675000D02*
G75*
G02*
X62511500Y-148675000I2000000J0D01*
G01*
X64411500Y-154875000D02*
G75*
G02*
X66411500Y-152875000I2000000J0D01*
G01*
%TO.C,MX3*%
X47361500Y-171925000D02*
X52461500Y-171925000D01*
X43461500Y-167725000D02*
X48561500Y-167725000D01*
X41461500Y-169725000D02*
G75*
G02*
X43461500Y-167725000I2000000J0D01*
G01*
X45361500Y-173925000D02*
G75*
G02*
X47361500Y-171925000I2000000J0D01*
G01*
%TO.C,C14*%
X82028420Y-106428000D02*
X82309580Y-106428000D01*
X82028420Y-105408000D02*
X82309580Y-105408000D01*
%TO.C,SW1*%
X83789000Y-102639000D02*
X80549000Y-102639000D01*
X80549000Y-102639000D02*
X80549000Y-102739000D01*
X83789000Y-102639000D02*
X83789000Y-102739000D01*
X83789000Y-104879000D02*
X80549000Y-104879000D01*
X80549000Y-104779000D02*
X80549000Y-104879000D01*
X83789000Y-104779000D02*
X83789000Y-104879000D01*
%TO.C,J2*%
X43120000Y-114173000D02*
X45780000Y-114173000D01*
X43120000Y-101413000D02*
X43120000Y-114173000D01*
X45780000Y-101413000D02*
X43120000Y-101413000D01*
X45780000Y-114173000D02*
X45780000Y-101413000D01*
%TO.C,D25*%
X74334000Y-123979000D02*
X76619000Y-123979000D01*
X74334000Y-125449000D02*
X74334000Y-123979000D01*
X76619000Y-125449000D02*
X74334000Y-125449000D01*
%TO.C,R9*%
X72279742Y-124191500D02*
X72754258Y-124191500D01*
X72279742Y-125236500D02*
X72754258Y-125236500D01*
%TO.C,D4*%
X59928000Y-121503000D02*
X57928000Y-121503000D01*
X57928000Y-121503000D02*
X57928000Y-117603000D01*
X59928000Y-121503000D02*
X59928000Y-117603000D01*
%TO.C,C10*%
X40433970Y-121927219D02*
X40632781Y-122126030D01*
X41155219Y-121205970D02*
X41354030Y-121404781D01*
%TO.C,C21*%
X83552420Y-126494000D02*
X83833580Y-126494000D01*
X83552420Y-125474000D02*
X83833580Y-125474000D01*
%TO.C,R7*%
X87265742Y-126506500D02*
X87740258Y-126506500D01*
X87265742Y-125461500D02*
X87740258Y-125461500D01*
%TO.C,C15*%
X92077000Y-117914330D02*
X92077000Y-117633170D01*
X91057000Y-117914330D02*
X91057000Y-117633170D01*
%TO.C,J1*%
X56580000Y-101411000D02*
X56580000Y-101961000D01*
X47560000Y-101411000D02*
X56580000Y-101411000D01*
X47560000Y-101961000D02*
X47560000Y-101411000D01*
X56580000Y-105931000D02*
X55130000Y-105931000D01*
X56580000Y-104181000D02*
X56580000Y-105931000D01*
X49010000Y-105931000D02*
X49010000Y-106821000D01*
X47560000Y-105931000D02*
X49010000Y-105931000D01*
X47560000Y-104181000D02*
X47560000Y-105931000D01*
%TO.C,C12*%
X92717219Y-122126030D02*
X92916030Y-121927219D01*
X91995970Y-121404781D02*
X92194781Y-121205970D01*
%TO.C,D8*%
X94662500Y-139568750D02*
X92662500Y-139568750D01*
X92662500Y-139568750D02*
X92662500Y-135668750D01*
X94662500Y-139568750D02*
X94662500Y-135668750D01*
D12*
%TO.C,D11*%
G36*
X51825000Y-142604999D02*
G01*
X50925000Y-143504999D01*
X51825000Y-143504999D01*
X51825000Y-142604999D01*
G37*
X51825000Y-142604999D02*
X50925000Y-143504999D01*
X51825000Y-143504999D01*
X51825000Y-142604999D01*
D10*
%TO.C,F1*%
X59638000Y-111129578D02*
X59638000Y-110612422D01*
X58218000Y-111129578D02*
X58218000Y-110612422D01*
%TO.C,D14*%
X65475000Y-110210000D02*
X67875000Y-110210000D01*
X67875000Y-113310000D02*
X64925000Y-113310000D01*
D12*
%TO.C,D15*%
G36*
X70875000Y-142604999D02*
G01*
X69975000Y-143504999D01*
X70875000Y-143504999D01*
X70875000Y-142604999D01*
G37*
X70875000Y-142604999D02*
X69975000Y-143504999D01*
X70875000Y-143504999D01*
X70875000Y-142604999D01*
D10*
%TO.C,C7*%
X80008000Y-141464420D02*
X80008000Y-141745580D01*
X81028000Y-141464420D02*
X81028000Y-141745580D01*
%TO.C,C4*%
X60958000Y-141464420D02*
X60958000Y-141745580D01*
X61978000Y-141464420D02*
X61978000Y-141745580D01*
%TO.C,C1*%
X41908000Y-141464420D02*
X41908000Y-141745580D01*
X42928000Y-141464420D02*
X42928000Y-141745580D01*
D12*
%TO.C,D19*%
G36*
X89925000Y-161654999D02*
G01*
X89025000Y-162554999D01*
X89925000Y-162554999D01*
X89925000Y-161654999D01*
G37*
X89925000Y-161654999D02*
X89025000Y-162554999D01*
X89925000Y-162554999D01*
X89925000Y-161654999D01*
%TO.C,D16*%
G36*
X70875000Y-161654999D02*
G01*
X69975000Y-162554999D01*
X70875000Y-162554999D01*
X70875000Y-161654999D01*
G37*
X70875000Y-161654999D02*
X69975000Y-162554999D01*
X70875000Y-162554999D01*
X70875000Y-161654999D01*
%TO.C,D12*%
G36*
X51825000Y-161654999D02*
G01*
X50925000Y-162554999D01*
X51825000Y-162554999D01*
X51825000Y-161654999D01*
G37*
X51825000Y-161654999D02*
X50925000Y-162554999D01*
X51825000Y-162554999D01*
X51825000Y-161654999D01*
D10*
%TO.C,D3*%
X56562500Y-177668750D02*
X54562500Y-177668750D01*
X54562500Y-177668750D02*
X54562500Y-173768750D01*
X56562500Y-177668750D02*
X56562500Y-173768750D01*
%TO.C,Y1*%
X93844163Y-110755629D02*
X91510710Y-113089082D01*
X91510710Y-113089082D02*
X88682283Y-110260655D01*
%TO.C,R8*%
X75708742Y-121934500D02*
X76183258Y-121934500D01*
X75708742Y-120889500D02*
X76183258Y-120889500D01*
%TO.C,R6*%
X65800500Y-116569258D02*
X65800500Y-116094742D01*
X64755500Y-116569258D02*
X64755500Y-116094742D01*
%TO.C,R5*%
X68594500Y-116569258D02*
X68594500Y-116094742D01*
X67549500Y-116569258D02*
X67549500Y-116094742D01*
%TO.C,R4*%
X81931742Y-108091500D02*
X82406258Y-108091500D01*
X81931742Y-107046500D02*
X82406258Y-107046500D01*
%TO.C,R3*%
X81931742Y-102122500D02*
X82406258Y-102122500D01*
X81931742Y-101077500D02*
X82406258Y-101077500D01*
%TO.C,R2*%
X70913258Y-110221500D02*
X70438742Y-110221500D01*
X70913258Y-111266500D02*
X70438742Y-111266500D01*
%TO.C,R1*%
X62436742Y-111266500D02*
X62911258Y-111266500D01*
X62436742Y-110221500D02*
X62911258Y-110221500D01*
%TO.C,FB2*%
X59638000Y-114939578D02*
X59638000Y-114422422D01*
X58218000Y-114939578D02*
X58218000Y-114422422D01*
%TO.C,FB1*%
X62511221Y-112905000D02*
X62836779Y-112905000D01*
X62511221Y-111885000D02*
X62836779Y-111885000D01*
D12*
%TO.C,D20*%
G36*
X89925000Y-180704999D02*
G01*
X89025000Y-181604999D01*
X89925000Y-181604999D01*
X89925000Y-180704999D01*
G37*
X89925000Y-180704999D02*
X89025000Y-181604999D01*
X89925000Y-181604999D01*
X89925000Y-180704999D01*
%TO.C,D18*%
G36*
X89925000Y-142604999D02*
G01*
X89025000Y-143504999D01*
X89925000Y-143504999D01*
X89925000Y-142604999D01*
G37*
X89925000Y-142604999D02*
X89025000Y-143504999D01*
X89925000Y-143504999D01*
X89925000Y-142604999D01*
%TO.C,D17*%
G36*
X70875000Y-180704999D02*
G01*
X69975000Y-181604999D01*
X70875000Y-181604999D01*
X70875000Y-180704999D01*
G37*
X70875000Y-180704999D02*
X69975000Y-181604999D01*
X70875000Y-181604999D01*
X70875000Y-180704999D01*
%TO.C,D13*%
G36*
X51825000Y-180704999D02*
G01*
X50925000Y-181604999D01*
X51825000Y-181604999D01*
X51825000Y-180704999D01*
G37*
X51825000Y-180704999D02*
X50925000Y-181604999D01*
X51825000Y-181604999D01*
X51825000Y-180704999D01*
D10*
%TO.C,D10*%
X94662500Y-177668750D02*
X92662500Y-177668750D01*
X92662500Y-177668750D02*
X92662500Y-173768750D01*
X94662500Y-177668750D02*
X94662500Y-173768750D01*
%TO.C,D9*%
X94662500Y-158618750D02*
X92662500Y-158618750D01*
X92662500Y-158618750D02*
X92662500Y-154718750D01*
X94662500Y-158618750D02*
X94662500Y-154718750D01*
%TO.C,D7*%
X75612500Y-177668750D02*
X73612500Y-177668750D01*
X73612500Y-177668750D02*
X73612500Y-173768750D01*
X75612500Y-177668750D02*
X75612500Y-173768750D01*
%TO.C,D6*%
X75612500Y-158618750D02*
X73612500Y-158618750D01*
X73612500Y-158618750D02*
X73612500Y-154718750D01*
X75612500Y-158618750D02*
X75612500Y-154718750D01*
%TO.C,D5*%
X75612500Y-139568750D02*
X73612500Y-139568750D01*
X73612500Y-139568750D02*
X73612500Y-135668750D01*
X75612500Y-139568750D02*
X75612500Y-135668750D01*
%TO.C,D2*%
X56562500Y-158618750D02*
X54562500Y-158618750D01*
X54562500Y-158618750D02*
X54562500Y-154718750D01*
X56562500Y-158618750D02*
X56562500Y-154718750D01*
%TO.C,D1*%
X56562500Y-139568750D02*
X54562500Y-139568750D01*
X54562500Y-139568750D02*
X54562500Y-135668750D01*
X56562500Y-139568750D02*
X56562500Y-135668750D01*
%TO.C,C20*%
X84913080Y-110456250D02*
X84631920Y-110456250D01*
X84913080Y-111476250D02*
X84631920Y-111476250D01*
%TO.C,C19*%
X78488000Y-117869580D02*
X78488000Y-117588420D01*
X77468000Y-117869580D02*
X77468000Y-117588420D01*
%TO.C,C18*%
X89201227Y-108624022D02*
X89400038Y-108425211D01*
X88479978Y-107902773D02*
X88678789Y-107703962D01*
%TO.C,C17*%
X93297773Y-112355978D02*
X93098962Y-112554789D01*
X94019022Y-113077227D02*
X93820211Y-113276038D01*
%TO.C,C16*%
X77970781Y-110410970D02*
X77771970Y-110609781D01*
X78692030Y-111132219D02*
X78493219Y-111331030D01*
%TO.C,C13*%
X90172000Y-165240580D02*
X90172000Y-164959420D01*
X89152000Y-165240580D02*
X89152000Y-164959420D01*
%TO.C,C11*%
X43178000Y-164959420D02*
X43178000Y-165240580D01*
X44198000Y-164959420D02*
X44198000Y-165240580D01*
%TO.C,C9*%
X80008000Y-179564420D02*
X80008000Y-179845580D01*
X81028000Y-179564420D02*
X81028000Y-179845580D01*
%TO.C,C8*%
X80008000Y-160514420D02*
X80008000Y-160795580D01*
X81028000Y-160514420D02*
X81028000Y-160795580D01*
%TO.C,C6*%
X60958000Y-179564420D02*
X60958000Y-179845580D01*
X61978000Y-179564420D02*
X61978000Y-179845580D01*
%TO.C,C5*%
X60958000Y-160514420D02*
X60958000Y-160795580D01*
X61978000Y-160514420D02*
X61978000Y-160795580D01*
%TO.C,C3*%
X41908000Y-179564420D02*
X41908000Y-179845580D01*
X42928000Y-179564420D02*
X42928000Y-179845580D01*
%TO.C,C2*%
X41908000Y-160514420D02*
X41908000Y-160795580D01*
X42928000Y-160514420D02*
X42928000Y-160795580D01*
%TO.C,U1*%
D13*
X88353022Y-120232026D02*
X88925442Y-120804446D01*
X88959114Y-120905461D01*
X88959114Y-120972805D01*
X88925442Y-121073820D01*
X88790755Y-121208507D01*
X88689740Y-121242179D01*
X88622396Y-121242179D01*
X88521381Y-121208507D01*
X87948961Y-120636087D01*
X87948961Y-122050301D02*
X88353022Y-121646240D01*
X88150992Y-121848270D02*
X87443885Y-121141164D01*
X87612244Y-121174835D01*
X87746931Y-121174835D01*
X87847946Y-121141164D01*
%TO.C,D24*%
X94813285Y-162758380D02*
X94813285Y-161758380D01*
X94575190Y-161758380D01*
X94432333Y-161806000D01*
X94337095Y-161901238D01*
X94289476Y-161996476D01*
X94241857Y-162186952D01*
X94241857Y-162329809D01*
X94289476Y-162520285D01*
X94337095Y-162615523D01*
X94432333Y-162710761D01*
X94575190Y-162758380D01*
X94813285Y-162758380D01*
X93860904Y-161853619D02*
X93813285Y-161806000D01*
X93718047Y-161758380D01*
X93479952Y-161758380D01*
X93384714Y-161806000D01*
X93337095Y-161853619D01*
X93289476Y-161948857D01*
X93289476Y-162044095D01*
X93337095Y-162186952D01*
X93908523Y-162758380D01*
X93289476Y-162758380D01*
X92432333Y-162091714D02*
X92432333Y-162758380D01*
X92670428Y-161710761D02*
X92908523Y-162425047D01*
X92289476Y-162425047D01*
%TO.C,D23*%
X97693748Y-123733511D02*
X98400854Y-123026404D01*
X98232496Y-122858045D01*
X98097809Y-122790702D01*
X97963122Y-122790702D01*
X97862106Y-122824374D01*
X97693748Y-122925389D01*
X97592732Y-123026404D01*
X97491717Y-123194763D01*
X97458045Y-123295778D01*
X97458045Y-123430465D01*
X97525389Y-123565152D01*
X97693748Y-123733511D01*
X97660076Y-122420312D02*
X97660076Y-122352969D01*
X97626404Y-122251954D01*
X97458045Y-122083595D01*
X97357030Y-122049923D01*
X97289687Y-122049923D01*
X97188671Y-122083595D01*
X97121328Y-122150938D01*
X97053984Y-122285625D01*
X97053984Y-123093748D01*
X96616251Y-122656015D01*
X97087656Y-121713206D02*
X96649923Y-121275473D01*
X96616251Y-121780549D01*
X96515236Y-121679534D01*
X96414221Y-121645862D01*
X96346877Y-121645862D01*
X96245862Y-121679534D01*
X96077503Y-121847893D01*
X96043832Y-121948908D01*
X96043832Y-122016251D01*
X96077503Y-122117267D01*
X96279534Y-122319297D01*
X96380549Y-122352969D01*
X96447893Y-122352969D01*
%TO.C,D21*%
X37333967Y-121976707D02*
X36626860Y-121269601D01*
X36458501Y-121437959D01*
X36391158Y-121572646D01*
X36391158Y-121707333D01*
X36424830Y-121808349D01*
X36525845Y-121976707D01*
X36626860Y-122077723D01*
X36795219Y-122178738D01*
X36896234Y-122212410D01*
X37030921Y-122212410D01*
X37165608Y-122145066D01*
X37333967Y-121976707D01*
X36020768Y-122010379D02*
X35953425Y-122010379D01*
X35852410Y-122044051D01*
X35684051Y-122212410D01*
X35650379Y-122313425D01*
X35650379Y-122380768D01*
X35684051Y-122481784D01*
X35751394Y-122549127D01*
X35886081Y-122616471D01*
X36694204Y-122616471D01*
X36256471Y-123054204D01*
X35583036Y-123727639D02*
X35987097Y-123323578D01*
X35785066Y-123525608D02*
X35077959Y-122818501D01*
X35246318Y-122852173D01*
X35381005Y-122852173D01*
X35482020Y-122818501D01*
%TO.C,D22*%
X40965285Y-162758380D02*
X40965285Y-161758380D01*
X40727190Y-161758380D01*
X40584333Y-161806000D01*
X40489095Y-161901238D01*
X40441476Y-161996476D01*
X40393857Y-162186952D01*
X40393857Y-162329809D01*
X40441476Y-162520285D01*
X40489095Y-162615523D01*
X40584333Y-162710761D01*
X40727190Y-162758380D01*
X40965285Y-162758380D01*
X40012904Y-161853619D02*
X39965285Y-161806000D01*
X39870047Y-161758380D01*
X39631952Y-161758380D01*
X39536714Y-161806000D01*
X39489095Y-161853619D01*
X39441476Y-161948857D01*
X39441476Y-162044095D01*
X39489095Y-162186952D01*
X40060523Y-162758380D01*
X39441476Y-162758380D01*
X39060523Y-161853619D02*
X39012904Y-161806000D01*
X38917666Y-161758380D01*
X38679571Y-161758380D01*
X38584333Y-161806000D01*
X38536714Y-161853619D01*
X38489095Y-161948857D01*
X38489095Y-162044095D01*
X38536714Y-162186952D01*
X39108142Y-162758380D01*
X38489095Y-162758380D01*
%TO.C,MX6*%
X67944833Y-167266880D02*
X68278166Y-166790690D01*
X68516261Y-167266880D02*
X68516261Y-166266880D01*
X68135309Y-166266880D01*
X68040071Y-166314500D01*
X67992452Y-166362119D01*
X67944833Y-166457357D01*
X67944833Y-166600214D01*
X67992452Y-166695452D01*
X68040071Y-166743071D01*
X68135309Y-166790690D01*
X68516261Y-166790690D01*
X67516261Y-166743071D02*
X67182928Y-166743071D01*
X67040071Y-167266880D02*
X67516261Y-167266880D01*
X67516261Y-166266880D01*
X67040071Y-166266880D01*
X66278166Y-166743071D02*
X66611500Y-166743071D01*
X66611500Y-167266880D02*
X66611500Y-166266880D01*
X66135309Y-166266880D01*
X65611500Y-166266880D02*
X65611500Y-166504976D01*
X65849595Y-166409738D02*
X65611500Y-166504976D01*
X65373404Y-166409738D01*
X65754357Y-166695452D02*
X65611500Y-166504976D01*
X65468642Y-166695452D01*
X64849595Y-166266880D02*
X64849595Y-166504976D01*
X65087690Y-166409738D02*
X64849595Y-166504976D01*
X64611500Y-166409738D01*
X64992452Y-166695452D02*
X64849595Y-166504976D01*
X64706738Y-166695452D01*
%TO.C,C14*%
X79763857Y-106275142D02*
X79811476Y-106322761D01*
X79954333Y-106370380D01*
X80049571Y-106370380D01*
X80192428Y-106322761D01*
X80287666Y-106227523D01*
X80335285Y-106132285D01*
X80382904Y-105941809D01*
X80382904Y-105798952D01*
X80335285Y-105608476D01*
X80287666Y-105513238D01*
X80192428Y-105418000D01*
X80049571Y-105370380D01*
X79954333Y-105370380D01*
X79811476Y-105418000D01*
X79763857Y-105465619D01*
X78811476Y-106370380D02*
X79382904Y-106370380D01*
X79097190Y-106370380D02*
X79097190Y-105370380D01*
X79192428Y-105513238D01*
X79287666Y-105608476D01*
X79382904Y-105656095D01*
X77954333Y-105703714D02*
X77954333Y-106370380D01*
X78192428Y-105322761D02*
X78430523Y-106037047D01*
X77811476Y-106037047D01*
%TO.C,SW1*%
X79692333Y-104163761D02*
X79549476Y-104211380D01*
X79311380Y-104211380D01*
X79216142Y-104163761D01*
X79168523Y-104116142D01*
X79120904Y-104020904D01*
X79120904Y-103925666D01*
X79168523Y-103830428D01*
X79216142Y-103782809D01*
X79311380Y-103735190D01*
X79501857Y-103687571D01*
X79597095Y-103639952D01*
X79644714Y-103592333D01*
X79692333Y-103497095D01*
X79692333Y-103401857D01*
X79644714Y-103306619D01*
X79597095Y-103259000D01*
X79501857Y-103211380D01*
X79263761Y-103211380D01*
X79120904Y-103259000D01*
X78787571Y-103211380D02*
X78549476Y-104211380D01*
X78359000Y-103497095D01*
X78168523Y-104211380D01*
X77930428Y-103211380D01*
X77025666Y-104211380D02*
X77597095Y-104211380D01*
X77311380Y-104211380D02*
X77311380Y-103211380D01*
X77406619Y-103354238D01*
X77501857Y-103449476D01*
X77597095Y-103497095D01*
%TO.C,J2*%
X42861666Y-106596000D02*
X42161666Y-106596000D01*
X42661666Y-106829333D01*
X42161666Y-107062666D01*
X42861666Y-107062666D01*
X42161666Y-107529333D02*
X42161666Y-107662666D01*
X42195000Y-107729333D01*
X42261666Y-107796000D01*
X42395000Y-107829333D01*
X42628333Y-107829333D01*
X42761666Y-107796000D01*
X42828333Y-107729333D01*
X42861666Y-107662666D01*
X42861666Y-107529333D01*
X42828333Y-107462666D01*
X42761666Y-107396000D01*
X42628333Y-107362666D01*
X42395000Y-107362666D01*
X42261666Y-107396000D01*
X42195000Y-107462666D01*
X42161666Y-107529333D01*
X42828333Y-108096000D02*
X42861666Y-108196000D01*
X42861666Y-108362666D01*
X42828333Y-108429333D01*
X42795000Y-108462666D01*
X42728333Y-108496000D01*
X42661666Y-108496000D01*
X42595000Y-108462666D01*
X42561666Y-108429333D01*
X42528333Y-108362666D01*
X42495000Y-108229333D01*
X42461666Y-108162666D01*
X42428333Y-108129333D01*
X42361666Y-108096000D01*
X42295000Y-108096000D01*
X42228333Y-108129333D01*
X42195000Y-108162666D01*
X42161666Y-108229333D01*
X42161666Y-108396000D01*
X42195000Y-108496000D01*
X42861666Y-108796000D02*
X42161666Y-108796000D01*
X42828333Y-104256000D02*
X42861666Y-104356000D01*
X42861666Y-104522666D01*
X42828333Y-104589333D01*
X42795000Y-104622666D01*
X42728333Y-104656000D01*
X42661666Y-104656000D01*
X42595000Y-104622666D01*
X42561666Y-104589333D01*
X42528333Y-104522666D01*
X42495000Y-104389333D01*
X42461666Y-104322666D01*
X42428333Y-104289333D01*
X42361666Y-104256000D01*
X42295000Y-104256000D01*
X42228333Y-104289333D01*
X42195000Y-104322666D01*
X42161666Y-104389333D01*
X42161666Y-104556000D01*
X42195000Y-104656000D01*
X42795000Y-105356000D02*
X42828333Y-105322666D01*
X42861666Y-105222666D01*
X42861666Y-105156000D01*
X42828333Y-105056000D01*
X42761666Y-104989333D01*
X42695000Y-104956000D01*
X42561666Y-104922666D01*
X42461666Y-104922666D01*
X42328333Y-104956000D01*
X42261666Y-104989333D01*
X42195000Y-105056000D01*
X42161666Y-105156000D01*
X42161666Y-105222666D01*
X42195000Y-105322666D01*
X42228333Y-105356000D01*
X42861666Y-105656000D02*
X42161666Y-105656000D01*
X42861666Y-106056000D02*
X42461666Y-105756000D01*
X42161666Y-106056000D02*
X42561666Y-105656000D01*
X42861666Y-109390000D02*
X42161666Y-109390000D01*
X42661666Y-109623333D01*
X42161666Y-109856666D01*
X42861666Y-109856666D01*
X42861666Y-110190000D02*
X42161666Y-110190000D01*
X42828333Y-110490000D02*
X42861666Y-110590000D01*
X42861666Y-110756666D01*
X42828333Y-110823333D01*
X42795000Y-110856666D01*
X42728333Y-110890000D01*
X42661666Y-110890000D01*
X42595000Y-110856666D01*
X42561666Y-110823333D01*
X42528333Y-110756666D01*
X42495000Y-110623333D01*
X42461666Y-110556666D01*
X42428333Y-110523333D01*
X42361666Y-110490000D01*
X42295000Y-110490000D01*
X42228333Y-110523333D01*
X42195000Y-110556666D01*
X42161666Y-110623333D01*
X42161666Y-110790000D01*
X42195000Y-110890000D01*
X42161666Y-111323333D02*
X42161666Y-111456666D01*
X42195000Y-111523333D01*
X42261666Y-111590000D01*
X42395000Y-111623333D01*
X42628333Y-111623333D01*
X42761666Y-111590000D01*
X42828333Y-111523333D01*
X42861666Y-111456666D01*
X42861666Y-111323333D01*
X42828333Y-111256666D01*
X42761666Y-111190000D01*
X42628333Y-111156666D01*
X42395000Y-111156666D01*
X42261666Y-111190000D01*
X42195000Y-111256666D01*
X42161666Y-111323333D01*
X42861666Y-112519666D02*
X42528333Y-112286333D01*
X42861666Y-112119666D02*
X42161666Y-112119666D01*
X42161666Y-112386333D01*
X42195000Y-112453000D01*
X42228333Y-112486333D01*
X42295000Y-112519666D01*
X42395000Y-112519666D01*
X42461666Y-112486333D01*
X42495000Y-112453000D01*
X42528333Y-112386333D01*
X42528333Y-112119666D01*
X42828333Y-112786333D02*
X42861666Y-112886333D01*
X42861666Y-113053000D01*
X42828333Y-113119666D01*
X42795000Y-113153000D01*
X42728333Y-113186333D01*
X42661666Y-113186333D01*
X42595000Y-113153000D01*
X42561666Y-113119666D01*
X42528333Y-113053000D01*
X42495000Y-112919666D01*
X42461666Y-112853000D01*
X42428333Y-112819666D01*
X42361666Y-112786333D01*
X42295000Y-112786333D01*
X42228333Y-112819666D01*
X42195000Y-112853000D01*
X42161666Y-112919666D01*
X42161666Y-113086333D01*
X42195000Y-113186333D01*
X42161666Y-113386333D02*
X42161666Y-113786333D01*
X42861666Y-113586333D02*
X42161666Y-113586333D01*
X42195000Y-114909666D02*
X42161666Y-114843000D01*
X42161666Y-114743000D01*
X42195000Y-114643000D01*
X42261666Y-114576333D01*
X42328333Y-114543000D01*
X42461666Y-114509666D01*
X42561666Y-114509666D01*
X42695000Y-114543000D01*
X42761666Y-114576333D01*
X42828333Y-114643000D01*
X42861666Y-114743000D01*
X42861666Y-114809666D01*
X42828333Y-114909666D01*
X42795000Y-114943000D01*
X42561666Y-114943000D01*
X42561666Y-114809666D01*
X42861666Y-115243000D02*
X42161666Y-115243000D01*
X42861666Y-115643000D01*
X42161666Y-115643000D01*
X42861666Y-115976333D02*
X42161666Y-115976333D01*
X42161666Y-116143000D01*
X42195000Y-116243000D01*
X42261666Y-116309666D01*
X42328333Y-116343000D01*
X42461666Y-116376333D01*
X42561666Y-116376333D01*
X42695000Y-116343000D01*
X42761666Y-116309666D01*
X42828333Y-116243000D01*
X42861666Y-116143000D01*
X42861666Y-115976333D01*
X42161666Y-101809666D02*
X42861666Y-102043000D01*
X42161666Y-102276333D01*
X42795000Y-102909666D02*
X42828333Y-102876333D01*
X42861666Y-102776333D01*
X42861666Y-102709666D01*
X42828333Y-102609666D01*
X42761666Y-102543000D01*
X42695000Y-102509666D01*
X42561666Y-102476333D01*
X42461666Y-102476333D01*
X42328333Y-102509666D01*
X42261666Y-102543000D01*
X42195000Y-102609666D01*
X42161666Y-102709666D01*
X42161666Y-102776333D01*
X42195000Y-102876333D01*
X42228333Y-102909666D01*
X42795000Y-103609666D02*
X42828333Y-103576333D01*
X42861666Y-103476333D01*
X42861666Y-103409666D01*
X42828333Y-103309666D01*
X42761666Y-103243000D01*
X42695000Y-103209666D01*
X42561666Y-103176333D01*
X42461666Y-103176333D01*
X42328333Y-103209666D01*
X42261666Y-103243000D01*
X42195000Y-103309666D01*
X42161666Y-103409666D01*
X42161666Y-103476333D01*
X42195000Y-103576333D01*
X42228333Y-103609666D01*
%TO.C,D25*%
X77033285Y-126817380D02*
X77033285Y-125817380D01*
X76795190Y-125817380D01*
X76652333Y-125865000D01*
X76557095Y-125960238D01*
X76509476Y-126055476D01*
X76461857Y-126245952D01*
X76461857Y-126388809D01*
X76509476Y-126579285D01*
X76557095Y-126674523D01*
X76652333Y-126769761D01*
X76795190Y-126817380D01*
X77033285Y-126817380D01*
X76080904Y-125912619D02*
X76033285Y-125865000D01*
X75938047Y-125817380D01*
X75699952Y-125817380D01*
X75604714Y-125865000D01*
X75557095Y-125912619D01*
X75509476Y-126007857D01*
X75509476Y-126103095D01*
X75557095Y-126245952D01*
X76128523Y-126817380D01*
X75509476Y-126817380D01*
X74604714Y-125817380D02*
X75080904Y-125817380D01*
X75128523Y-126293571D01*
X75080904Y-126245952D01*
X74985666Y-126198333D01*
X74747571Y-126198333D01*
X74652333Y-126245952D01*
X74604714Y-126293571D01*
X74557095Y-126388809D01*
X74557095Y-126626904D01*
X74604714Y-126722142D01*
X74652333Y-126769761D01*
X74747571Y-126817380D01*
X74985666Y-126817380D01*
X75080904Y-126769761D01*
X75128523Y-126722142D01*
%TO.C,R9*%
X72683666Y-126817380D02*
X73017000Y-126341190D01*
X73255095Y-126817380D02*
X73255095Y-125817380D01*
X72874142Y-125817380D01*
X72778904Y-125865000D01*
X72731285Y-125912619D01*
X72683666Y-126007857D01*
X72683666Y-126150714D01*
X72731285Y-126245952D01*
X72778904Y-126293571D01*
X72874142Y-126341190D01*
X73255095Y-126341190D01*
X72207476Y-126817380D02*
X72017000Y-126817380D01*
X71921761Y-126769761D01*
X71874142Y-126722142D01*
X71778904Y-126579285D01*
X71731285Y-126388809D01*
X71731285Y-126007857D01*
X71778904Y-125912619D01*
X71826523Y-125865000D01*
X71921761Y-125817380D01*
X72112238Y-125817380D01*
X72207476Y-125865000D01*
X72255095Y-125912619D01*
X72302714Y-126007857D01*
X72302714Y-126245952D01*
X72255095Y-126341190D01*
X72207476Y-126388809D01*
X72112238Y-126436428D01*
X71921761Y-126436428D01*
X71826523Y-126388809D01*
X71778904Y-126341190D01*
X71731285Y-126245952D01*
%TO.C,D4*%
X57538880Y-118514904D02*
X56538880Y-118514904D01*
X56538880Y-118753000D01*
X56586500Y-118895857D01*
X56681738Y-118991095D01*
X56776976Y-119038714D01*
X56967452Y-119086333D01*
X57110309Y-119086333D01*
X57300785Y-119038714D01*
X57396023Y-118991095D01*
X57491261Y-118895857D01*
X57538880Y-118753000D01*
X57538880Y-118514904D01*
X56872214Y-119943476D02*
X57538880Y-119943476D01*
X56491261Y-119705380D02*
X57205547Y-119467285D01*
X57205547Y-120086333D01*
%TO.C,C10*%
X42239030Y-121230106D02*
X42239030Y-121297450D01*
X42306374Y-121432137D01*
X42373717Y-121499480D01*
X42508404Y-121566824D01*
X42643091Y-121566824D01*
X42744106Y-121533152D01*
X42912465Y-121432137D01*
X43013480Y-121331122D01*
X43114496Y-121162763D01*
X43148167Y-121061748D01*
X43148167Y-120927061D01*
X43080824Y-120792374D01*
X43013480Y-120725030D01*
X42878793Y-120657687D01*
X42811450Y-120657687D01*
X41498251Y-120624015D02*
X41902312Y-121028076D01*
X41700282Y-120826045D02*
X42407389Y-120118938D01*
X42373717Y-120287297D01*
X42373717Y-120421984D01*
X42407389Y-120523000D01*
X41767625Y-119479175D02*
X41700282Y-119411832D01*
X41599267Y-119378160D01*
X41531923Y-119378160D01*
X41430908Y-119411832D01*
X41262549Y-119512847D01*
X41094190Y-119681206D01*
X40993175Y-119849564D01*
X40959503Y-119950580D01*
X40959503Y-120017923D01*
X40993175Y-120118938D01*
X41060519Y-120186282D01*
X41161534Y-120219954D01*
X41228877Y-120219954D01*
X41329893Y-120186282D01*
X41498251Y-120085267D01*
X41666610Y-119916908D01*
X41767625Y-119748549D01*
X41801297Y-119647534D01*
X41801297Y-119580190D01*
X41767625Y-119479175D01*
%TO.C,C21*%
X84335857Y-127771142D02*
X84383476Y-127818761D01*
X84526333Y-127866380D01*
X84621571Y-127866380D01*
X84764428Y-127818761D01*
X84859666Y-127723523D01*
X84907285Y-127628285D01*
X84954904Y-127437809D01*
X84954904Y-127294952D01*
X84907285Y-127104476D01*
X84859666Y-127009238D01*
X84764428Y-126914000D01*
X84621571Y-126866380D01*
X84526333Y-126866380D01*
X84383476Y-126914000D01*
X84335857Y-126961619D01*
X83954904Y-126961619D02*
X83907285Y-126914000D01*
X83812047Y-126866380D01*
X83573952Y-126866380D01*
X83478714Y-126914000D01*
X83431095Y-126961619D01*
X83383476Y-127056857D01*
X83383476Y-127152095D01*
X83431095Y-127294952D01*
X84002523Y-127866380D01*
X83383476Y-127866380D01*
X82431095Y-127866380D02*
X83002523Y-127866380D01*
X82716809Y-127866380D02*
X82716809Y-126866380D01*
X82812047Y-127009238D01*
X82907285Y-127104476D01*
X83002523Y-127152095D01*
%TO.C,R7*%
X87669666Y-127866380D02*
X88003000Y-127390190D01*
X88241095Y-127866380D02*
X88241095Y-126866380D01*
X87860142Y-126866380D01*
X87764904Y-126914000D01*
X87717285Y-126961619D01*
X87669666Y-127056857D01*
X87669666Y-127199714D01*
X87717285Y-127294952D01*
X87764904Y-127342571D01*
X87860142Y-127390190D01*
X88241095Y-127390190D01*
X87336333Y-126866380D02*
X86669666Y-126866380D01*
X87098238Y-127866380D01*
%TO.C,C15*%
X93354142Y-117130892D02*
X93401761Y-117083273D01*
X93449380Y-116940416D01*
X93449380Y-116845178D01*
X93401761Y-116702321D01*
X93306523Y-116607083D01*
X93211285Y-116559464D01*
X93020809Y-116511845D01*
X92877952Y-116511845D01*
X92687476Y-116559464D01*
X92592238Y-116607083D01*
X92497000Y-116702321D01*
X92449380Y-116845178D01*
X92449380Y-116940416D01*
X92497000Y-117083273D01*
X92544619Y-117130892D01*
X93449380Y-118083273D02*
X93449380Y-117511845D01*
X93449380Y-117797559D02*
X92449380Y-117797559D01*
X92592238Y-117702321D01*
X92687476Y-117607083D01*
X92735095Y-117511845D01*
X92449380Y-118988035D02*
X92449380Y-118511845D01*
X92925571Y-118464226D01*
X92877952Y-118511845D01*
X92830333Y-118607083D01*
X92830333Y-118845178D01*
X92877952Y-118940416D01*
X92925571Y-118988035D01*
X93020809Y-119035654D01*
X93258904Y-119035654D01*
X93354142Y-118988035D01*
X93401761Y-118940416D01*
X93449380Y-118845178D01*
X93449380Y-118607083D01*
X93401761Y-118511845D01*
X93354142Y-118464226D01*
%TO.C,J1*%
X52403333Y-107473380D02*
X52403333Y-108187666D01*
X52450952Y-108330523D01*
X52546190Y-108425761D01*
X52689047Y-108473380D01*
X52784285Y-108473380D01*
X51403333Y-108473380D02*
X51974761Y-108473380D01*
X51689047Y-108473380D02*
X51689047Y-107473380D01*
X51784285Y-107616238D01*
X51879523Y-107711476D01*
X51974761Y-107759095D01*
%TO.C,C12*%
X92147106Y-120574970D02*
X92214450Y-120574970D01*
X92349137Y-120507626D01*
X92416480Y-120440283D01*
X92483824Y-120305596D01*
X92483824Y-120170909D01*
X92450152Y-120069894D01*
X92349137Y-119901535D01*
X92248122Y-119800520D01*
X92079763Y-119699504D01*
X91978748Y-119665833D01*
X91844061Y-119665833D01*
X91709374Y-119733176D01*
X91642030Y-119800520D01*
X91574687Y-119935207D01*
X91574687Y-120002550D01*
X91541015Y-121315749D02*
X91945076Y-120911688D01*
X91743045Y-121113718D02*
X91035938Y-120406611D01*
X91204297Y-120440283D01*
X91338984Y-120440283D01*
X91440000Y-120406611D01*
X90631877Y-120945359D02*
X90564534Y-120945359D01*
X90463519Y-120979031D01*
X90295160Y-121147390D01*
X90261488Y-121248405D01*
X90261488Y-121315749D01*
X90295160Y-121416764D01*
X90362503Y-121484107D01*
X90497190Y-121551451D01*
X91305312Y-121551451D01*
X90867580Y-121989184D01*
%TO.C,D8*%
X96114880Y-136580654D02*
X95114880Y-136580654D01*
X95114880Y-136818750D01*
X95162500Y-136961607D01*
X95257738Y-137056845D01*
X95352976Y-137104464D01*
X95543452Y-137152083D01*
X95686309Y-137152083D01*
X95876785Y-137104464D01*
X95972023Y-137056845D01*
X96067261Y-136961607D01*
X96114880Y-136818750D01*
X96114880Y-136580654D01*
X95543452Y-137723511D02*
X95495833Y-137628273D01*
X95448214Y-137580654D01*
X95352976Y-137533035D01*
X95305357Y-137533035D01*
X95210119Y-137580654D01*
X95162500Y-137628273D01*
X95114880Y-137723511D01*
X95114880Y-137913988D01*
X95162500Y-138009226D01*
X95210119Y-138056845D01*
X95305357Y-138104464D01*
X95352976Y-138104464D01*
X95448214Y-138056845D01*
X95495833Y-138009226D01*
X95543452Y-137913988D01*
X95543452Y-137723511D01*
X95591071Y-137628273D01*
X95638690Y-137580654D01*
X95733928Y-137533035D01*
X95924404Y-137533035D01*
X96019642Y-137580654D01*
X96067261Y-137628273D01*
X96114880Y-137723511D01*
X96114880Y-137913988D01*
X96067261Y-138009226D01*
X96019642Y-138056845D01*
X95924404Y-138104464D01*
X95733928Y-138104464D01*
X95638690Y-138056845D01*
X95591071Y-138009226D01*
X95543452Y-137913988D01*
%TO.C,D11*%
X48839285Y-139771380D02*
X48839285Y-138771380D01*
X48601190Y-138771380D01*
X48458333Y-138819000D01*
X48363095Y-138914238D01*
X48315476Y-139009476D01*
X48267857Y-139199952D01*
X48267857Y-139342809D01*
X48315476Y-139533285D01*
X48363095Y-139628523D01*
X48458333Y-139723761D01*
X48601190Y-139771380D01*
X48839285Y-139771380D01*
X47315476Y-139771380D02*
X47886904Y-139771380D01*
X47601190Y-139771380D02*
X47601190Y-138771380D01*
X47696428Y-138914238D01*
X47791666Y-139009476D01*
X47886904Y-139057095D01*
X46363095Y-139771380D02*
X46934523Y-139771380D01*
X46648809Y-139771380D02*
X46648809Y-138771380D01*
X46744047Y-138914238D01*
X46839285Y-139009476D01*
X46934523Y-139057095D01*
%TO.C,F1*%
X57205571Y-110537666D02*
X57205571Y-110204333D01*
X57729380Y-110204333D02*
X56729380Y-110204333D01*
X56729380Y-110680523D01*
X57729380Y-111585285D02*
X57729380Y-111013857D01*
X57729380Y-111299571D02*
X56729380Y-111299571D01*
X56872238Y-111204333D01*
X56967476Y-111109095D01*
X57015095Y-111013857D01*
%TO.C,D14*%
X67909285Y-114592380D02*
X67909285Y-113592380D01*
X67671190Y-113592380D01*
X67528333Y-113640000D01*
X67433095Y-113735238D01*
X67385476Y-113830476D01*
X67337857Y-114020952D01*
X67337857Y-114163809D01*
X67385476Y-114354285D01*
X67433095Y-114449523D01*
X67528333Y-114544761D01*
X67671190Y-114592380D01*
X67909285Y-114592380D01*
X66385476Y-114592380D02*
X66956904Y-114592380D01*
X66671190Y-114592380D02*
X66671190Y-113592380D01*
X66766428Y-113735238D01*
X66861666Y-113830476D01*
X66956904Y-113878095D01*
X65528333Y-113925714D02*
X65528333Y-114592380D01*
X65766428Y-113544761D02*
X66004523Y-114259047D01*
X65385476Y-114259047D01*
%TO.C,USB1*%
X68413095Y-107476630D02*
X68413095Y-108286154D01*
X68365476Y-108381392D01*
X68317857Y-108429011D01*
X68222619Y-108476630D01*
X68032142Y-108476630D01*
X67936904Y-108429011D01*
X67889285Y-108381392D01*
X67841666Y-108286154D01*
X67841666Y-107476630D01*
X67413095Y-108429011D02*
X67270238Y-108476630D01*
X67032142Y-108476630D01*
X66936904Y-108429011D01*
X66889285Y-108381392D01*
X66841666Y-108286154D01*
X66841666Y-108190916D01*
X66889285Y-108095678D01*
X66936904Y-108048059D01*
X67032142Y-108000440D01*
X67222619Y-107952821D01*
X67317857Y-107905202D01*
X67365476Y-107857583D01*
X67413095Y-107762345D01*
X67413095Y-107667107D01*
X67365476Y-107571869D01*
X67317857Y-107524250D01*
X67222619Y-107476630D01*
X66984523Y-107476630D01*
X66841666Y-107524250D01*
X66079761Y-107952821D02*
X65936904Y-108000440D01*
X65889285Y-108048059D01*
X65841666Y-108143297D01*
X65841666Y-108286154D01*
X65889285Y-108381392D01*
X65936904Y-108429011D01*
X66032142Y-108476630D01*
X66413095Y-108476630D01*
X66413095Y-107476630D01*
X66079761Y-107476630D01*
X65984523Y-107524250D01*
X65936904Y-107571869D01*
X65889285Y-107667107D01*
X65889285Y-107762345D01*
X65936904Y-107857583D01*
X65984523Y-107905202D01*
X66079761Y-107952821D01*
X66413095Y-107952821D01*
X64889285Y-108476630D02*
X65460714Y-108476630D01*
X65175000Y-108476630D02*
X65175000Y-107476630D01*
X65270238Y-107619488D01*
X65365476Y-107714726D01*
X65460714Y-107762345D01*
%TO.C,D15*%
X67889285Y-139771380D02*
X67889285Y-138771380D01*
X67651190Y-138771380D01*
X67508333Y-138819000D01*
X67413095Y-138914238D01*
X67365476Y-139009476D01*
X67317857Y-139199952D01*
X67317857Y-139342809D01*
X67365476Y-139533285D01*
X67413095Y-139628523D01*
X67508333Y-139723761D01*
X67651190Y-139771380D01*
X67889285Y-139771380D01*
X66365476Y-139771380D02*
X66936904Y-139771380D01*
X66651190Y-139771380D02*
X66651190Y-138771380D01*
X66746428Y-138914238D01*
X66841666Y-139009476D01*
X66936904Y-139057095D01*
X65460714Y-138771380D02*
X65936904Y-138771380D01*
X65984523Y-139247571D01*
X65936904Y-139199952D01*
X65841666Y-139152333D01*
X65603571Y-139152333D01*
X65508333Y-139199952D01*
X65460714Y-139247571D01*
X65413095Y-139342809D01*
X65413095Y-139580904D01*
X65460714Y-139676142D01*
X65508333Y-139723761D01*
X65603571Y-139771380D01*
X65841666Y-139771380D01*
X65936904Y-139723761D01*
X65984523Y-139676142D01*
%TO.C,C7*%
X79445142Y-141438333D02*
X79492761Y-141390714D01*
X79540380Y-141247857D01*
X79540380Y-141152619D01*
X79492761Y-141009761D01*
X79397523Y-140914523D01*
X79302285Y-140866904D01*
X79111809Y-140819285D01*
X78968952Y-140819285D01*
X78778476Y-140866904D01*
X78683238Y-140914523D01*
X78588000Y-141009761D01*
X78540380Y-141152619D01*
X78540380Y-141247857D01*
X78588000Y-141390714D01*
X78635619Y-141438333D01*
X78540380Y-141771666D02*
X78540380Y-142438333D01*
X79540380Y-142009761D01*
%TO.C,C4*%
X60395142Y-141438333D02*
X60442761Y-141390714D01*
X60490380Y-141247857D01*
X60490380Y-141152619D01*
X60442761Y-141009761D01*
X60347523Y-140914523D01*
X60252285Y-140866904D01*
X60061809Y-140819285D01*
X59918952Y-140819285D01*
X59728476Y-140866904D01*
X59633238Y-140914523D01*
X59538000Y-141009761D01*
X59490380Y-141152619D01*
X59490380Y-141247857D01*
X59538000Y-141390714D01*
X59585619Y-141438333D01*
X59823714Y-142295476D02*
X60490380Y-142295476D01*
X59442761Y-142057380D02*
X60157047Y-141819285D01*
X60157047Y-142438333D01*
%TO.C,C1*%
X41345142Y-141438333D02*
X41392761Y-141390714D01*
X41440380Y-141247857D01*
X41440380Y-141152619D01*
X41392761Y-141009761D01*
X41297523Y-140914523D01*
X41202285Y-140866904D01*
X41011809Y-140819285D01*
X40868952Y-140819285D01*
X40678476Y-140866904D01*
X40583238Y-140914523D01*
X40488000Y-141009761D01*
X40440380Y-141152619D01*
X40440380Y-141247857D01*
X40488000Y-141390714D01*
X40535619Y-141438333D01*
X41440380Y-142390714D02*
X41440380Y-141819285D01*
X41440380Y-142105000D02*
X40440380Y-142105000D01*
X40583238Y-142009761D01*
X40678476Y-141914523D01*
X40726095Y-141819285D01*
%TO.C,D19*%
X86939285Y-158821380D02*
X86939285Y-157821380D01*
X86701190Y-157821380D01*
X86558333Y-157869000D01*
X86463095Y-157964238D01*
X86415476Y-158059476D01*
X86367857Y-158249952D01*
X86367857Y-158392809D01*
X86415476Y-158583285D01*
X86463095Y-158678523D01*
X86558333Y-158773761D01*
X86701190Y-158821380D01*
X86939285Y-158821380D01*
X85415476Y-158821380D02*
X85986904Y-158821380D01*
X85701190Y-158821380D02*
X85701190Y-157821380D01*
X85796428Y-157964238D01*
X85891666Y-158059476D01*
X85986904Y-158107095D01*
X84939285Y-158821380D02*
X84748809Y-158821380D01*
X84653571Y-158773761D01*
X84605952Y-158726142D01*
X84510714Y-158583285D01*
X84463095Y-158392809D01*
X84463095Y-158011857D01*
X84510714Y-157916619D01*
X84558333Y-157869000D01*
X84653571Y-157821380D01*
X84844047Y-157821380D01*
X84939285Y-157869000D01*
X84986904Y-157916619D01*
X85034523Y-158011857D01*
X85034523Y-158249952D01*
X84986904Y-158345190D01*
X84939285Y-158392809D01*
X84844047Y-158440428D01*
X84653571Y-158440428D01*
X84558333Y-158392809D01*
X84510714Y-158345190D01*
X84463095Y-158249952D01*
%TO.C,D16*%
X67889285Y-158821380D02*
X67889285Y-157821380D01*
X67651190Y-157821380D01*
X67508333Y-157869000D01*
X67413095Y-157964238D01*
X67365476Y-158059476D01*
X67317857Y-158249952D01*
X67317857Y-158392809D01*
X67365476Y-158583285D01*
X67413095Y-158678523D01*
X67508333Y-158773761D01*
X67651190Y-158821380D01*
X67889285Y-158821380D01*
X66365476Y-158821380D02*
X66936904Y-158821380D01*
X66651190Y-158821380D02*
X66651190Y-157821380D01*
X66746428Y-157964238D01*
X66841666Y-158059476D01*
X66936904Y-158107095D01*
X65508333Y-157821380D02*
X65698809Y-157821380D01*
X65794047Y-157869000D01*
X65841666Y-157916619D01*
X65936904Y-158059476D01*
X65984523Y-158249952D01*
X65984523Y-158630904D01*
X65936904Y-158726142D01*
X65889285Y-158773761D01*
X65794047Y-158821380D01*
X65603571Y-158821380D01*
X65508333Y-158773761D01*
X65460714Y-158726142D01*
X65413095Y-158630904D01*
X65413095Y-158392809D01*
X65460714Y-158297571D01*
X65508333Y-158249952D01*
X65603571Y-158202333D01*
X65794047Y-158202333D01*
X65889285Y-158249952D01*
X65936904Y-158297571D01*
X65984523Y-158392809D01*
%TO.C,D12*%
X48839285Y-158821380D02*
X48839285Y-157821380D01*
X48601190Y-157821380D01*
X48458333Y-157869000D01*
X48363095Y-157964238D01*
X48315476Y-158059476D01*
X48267857Y-158249952D01*
X48267857Y-158392809D01*
X48315476Y-158583285D01*
X48363095Y-158678523D01*
X48458333Y-158773761D01*
X48601190Y-158821380D01*
X48839285Y-158821380D01*
X47315476Y-158821380D02*
X47886904Y-158821380D01*
X47601190Y-158821380D02*
X47601190Y-157821380D01*
X47696428Y-157964238D01*
X47791666Y-158059476D01*
X47886904Y-158107095D01*
X46934523Y-157916619D02*
X46886904Y-157869000D01*
X46791666Y-157821380D01*
X46553571Y-157821380D01*
X46458333Y-157869000D01*
X46410714Y-157916619D01*
X46363095Y-158011857D01*
X46363095Y-158107095D01*
X46410714Y-158249952D01*
X46982142Y-158821380D01*
X46363095Y-158821380D01*
%TO.C,D3*%
X58014880Y-174680654D02*
X57014880Y-174680654D01*
X57014880Y-174918750D01*
X57062500Y-175061607D01*
X57157738Y-175156845D01*
X57252976Y-175204464D01*
X57443452Y-175252083D01*
X57586309Y-175252083D01*
X57776785Y-175204464D01*
X57872023Y-175156845D01*
X57967261Y-175061607D01*
X58014880Y-174918750D01*
X58014880Y-174680654D01*
X57014880Y-175585416D02*
X57014880Y-176204464D01*
X57395833Y-175871130D01*
X57395833Y-176013988D01*
X57443452Y-176109226D01*
X57491071Y-176156845D01*
X57586309Y-176204464D01*
X57824404Y-176204464D01*
X57919642Y-176156845D01*
X57967261Y-176109226D01*
X58014880Y-176013988D01*
X58014880Y-175728273D01*
X57967261Y-175633035D01*
X57919642Y-175585416D01*
%TO.C,Y1*%
X93349188Y-109095611D02*
X93012470Y-109432329D01*
X93955279Y-108960924D02*
X93349188Y-109095611D01*
X93483875Y-108489520D01*
X92170677Y-108590535D02*
X92574738Y-108994596D01*
X92372707Y-108792565D02*
X93079814Y-108085459D01*
X93046142Y-108253817D01*
X93046142Y-108388504D01*
X93079814Y-108489520D01*
%TO.C,R8*%
X76112666Y-123294380D02*
X76446000Y-122818190D01*
X76684095Y-123294380D02*
X76684095Y-122294380D01*
X76303142Y-122294380D01*
X76207904Y-122342000D01*
X76160285Y-122389619D01*
X76112666Y-122484857D01*
X76112666Y-122627714D01*
X76160285Y-122722952D01*
X76207904Y-122770571D01*
X76303142Y-122818190D01*
X76684095Y-122818190D01*
X75541238Y-122722952D02*
X75636476Y-122675333D01*
X75684095Y-122627714D01*
X75731714Y-122532476D01*
X75731714Y-122484857D01*
X75684095Y-122389619D01*
X75636476Y-122342000D01*
X75541238Y-122294380D01*
X75350761Y-122294380D01*
X75255523Y-122342000D01*
X75207904Y-122389619D01*
X75160285Y-122484857D01*
X75160285Y-122532476D01*
X75207904Y-122627714D01*
X75255523Y-122675333D01*
X75350761Y-122722952D01*
X75541238Y-122722952D01*
X75636476Y-122770571D01*
X75684095Y-122818190D01*
X75731714Y-122913428D01*
X75731714Y-123103904D01*
X75684095Y-123199142D01*
X75636476Y-123246761D01*
X75541238Y-123294380D01*
X75350761Y-123294380D01*
X75255523Y-123246761D01*
X75207904Y-123199142D01*
X75160285Y-123103904D01*
X75160285Y-122913428D01*
X75207904Y-122818190D01*
X75255523Y-122770571D01*
X75350761Y-122722952D01*
%TO.C,R6*%
X67160380Y-116165333D02*
X66684190Y-115832000D01*
X67160380Y-115593904D02*
X66160380Y-115593904D01*
X66160380Y-115974857D01*
X66208000Y-116070095D01*
X66255619Y-116117714D01*
X66350857Y-116165333D01*
X66493714Y-116165333D01*
X66588952Y-116117714D01*
X66636571Y-116070095D01*
X66684190Y-115974857D01*
X66684190Y-115593904D01*
X66160380Y-117022476D02*
X66160380Y-116832000D01*
X66208000Y-116736761D01*
X66255619Y-116689142D01*
X66398476Y-116593904D01*
X66588952Y-116546285D01*
X66969904Y-116546285D01*
X67065142Y-116593904D01*
X67112761Y-116641523D01*
X67160380Y-116736761D01*
X67160380Y-116927238D01*
X67112761Y-117022476D01*
X67065142Y-117070095D01*
X66969904Y-117117714D01*
X66731809Y-117117714D01*
X66636571Y-117070095D01*
X66588952Y-117022476D01*
X66541333Y-116927238D01*
X66541333Y-116736761D01*
X66588952Y-116641523D01*
X66636571Y-116593904D01*
X66731809Y-116546285D01*
%TO.C,R5*%
X69954380Y-116165333D02*
X69478190Y-115832000D01*
X69954380Y-115593904D02*
X68954380Y-115593904D01*
X68954380Y-115974857D01*
X69002000Y-116070095D01*
X69049619Y-116117714D01*
X69144857Y-116165333D01*
X69287714Y-116165333D01*
X69382952Y-116117714D01*
X69430571Y-116070095D01*
X69478190Y-115974857D01*
X69478190Y-115593904D01*
X68954380Y-117070095D02*
X68954380Y-116593904D01*
X69430571Y-116546285D01*
X69382952Y-116593904D01*
X69335333Y-116689142D01*
X69335333Y-116927238D01*
X69382952Y-117022476D01*
X69430571Y-117070095D01*
X69525809Y-117117714D01*
X69763904Y-117117714D01*
X69859142Y-117070095D01*
X69906761Y-117022476D01*
X69954380Y-116927238D01*
X69954380Y-116689142D01*
X69906761Y-116593904D01*
X69859142Y-116546285D01*
%TO.C,R4*%
X82335666Y-109545380D02*
X82669000Y-109069190D01*
X82907095Y-109545380D02*
X82907095Y-108545380D01*
X82526142Y-108545380D01*
X82430904Y-108593000D01*
X82383285Y-108640619D01*
X82335666Y-108735857D01*
X82335666Y-108878714D01*
X82383285Y-108973952D01*
X82430904Y-109021571D01*
X82526142Y-109069190D01*
X82907095Y-109069190D01*
X81478523Y-108878714D02*
X81478523Y-109545380D01*
X81716619Y-108497761D02*
X81954714Y-109212047D01*
X81335666Y-109212047D01*
%TO.C,R3*%
X79795666Y-102052380D02*
X80129000Y-101576190D01*
X80367095Y-102052380D02*
X80367095Y-101052380D01*
X79986142Y-101052380D01*
X79890904Y-101100000D01*
X79843285Y-101147619D01*
X79795666Y-101242857D01*
X79795666Y-101385714D01*
X79843285Y-101480952D01*
X79890904Y-101528571D01*
X79986142Y-101576190D01*
X80367095Y-101576190D01*
X79462333Y-101052380D02*
X78843285Y-101052380D01*
X79176619Y-101433333D01*
X79033761Y-101433333D01*
X78938523Y-101480952D01*
X78890904Y-101528571D01*
X78843285Y-101623809D01*
X78843285Y-101861904D01*
X78890904Y-101957142D01*
X78938523Y-102004761D01*
X79033761Y-102052380D01*
X79319476Y-102052380D01*
X79414714Y-102004761D01*
X79462333Y-101957142D01*
%TO.C,R2*%
X70842666Y-109766380D02*
X71176000Y-109290190D01*
X71414095Y-109766380D02*
X71414095Y-108766380D01*
X71033142Y-108766380D01*
X70937904Y-108814000D01*
X70890285Y-108861619D01*
X70842666Y-108956857D01*
X70842666Y-109099714D01*
X70890285Y-109194952D01*
X70937904Y-109242571D01*
X71033142Y-109290190D01*
X71414095Y-109290190D01*
X70461714Y-108861619D02*
X70414095Y-108814000D01*
X70318857Y-108766380D01*
X70080761Y-108766380D01*
X69985523Y-108814000D01*
X69937904Y-108861619D01*
X69890285Y-108956857D01*
X69890285Y-109052095D01*
X69937904Y-109194952D01*
X70509333Y-109766380D01*
X69890285Y-109766380D01*
%TO.C,R1*%
X62840666Y-109862880D02*
X63174000Y-109386690D01*
X63412095Y-109862880D02*
X63412095Y-108862880D01*
X63031142Y-108862880D01*
X62935904Y-108910500D01*
X62888285Y-108958119D01*
X62840666Y-109053357D01*
X62840666Y-109196214D01*
X62888285Y-109291452D01*
X62935904Y-109339071D01*
X63031142Y-109386690D01*
X63412095Y-109386690D01*
X61888285Y-109862880D02*
X62459714Y-109862880D01*
X62174000Y-109862880D02*
X62174000Y-108862880D01*
X62269238Y-109005738D01*
X62364476Y-109100976D01*
X62459714Y-109148595D01*
%TO.C,FB2*%
X57205571Y-113847666D02*
X57205571Y-113514333D01*
X57729380Y-113514333D02*
X56729380Y-113514333D01*
X56729380Y-113990523D01*
X57205571Y-114704809D02*
X57253190Y-114847666D01*
X57300809Y-114895285D01*
X57396047Y-114942904D01*
X57538904Y-114942904D01*
X57634142Y-114895285D01*
X57681761Y-114847666D01*
X57729380Y-114752428D01*
X57729380Y-114371476D01*
X56729380Y-114371476D01*
X56729380Y-114704809D01*
X56777000Y-114800047D01*
X56824619Y-114847666D01*
X56919857Y-114895285D01*
X57015095Y-114895285D01*
X57110333Y-114847666D01*
X57157952Y-114800047D01*
X57205571Y-114704809D01*
X57205571Y-114371476D01*
X56824619Y-115323857D02*
X56777000Y-115371476D01*
X56729380Y-115466714D01*
X56729380Y-115704809D01*
X56777000Y-115800047D01*
X56824619Y-115847666D01*
X56919857Y-115895285D01*
X57015095Y-115895285D01*
X57157952Y-115847666D01*
X57729380Y-115276238D01*
X57729380Y-115895285D01*
%TO.C,FB1*%
X63507333Y-113753571D02*
X63840666Y-113753571D01*
X63840666Y-114277380D02*
X63840666Y-113277380D01*
X63364476Y-113277380D01*
X62650190Y-113753571D02*
X62507333Y-113801190D01*
X62459714Y-113848809D01*
X62412095Y-113944047D01*
X62412095Y-114086904D01*
X62459714Y-114182142D01*
X62507333Y-114229761D01*
X62602571Y-114277380D01*
X62983523Y-114277380D01*
X62983523Y-113277380D01*
X62650190Y-113277380D01*
X62554952Y-113325000D01*
X62507333Y-113372619D01*
X62459714Y-113467857D01*
X62459714Y-113563095D01*
X62507333Y-113658333D01*
X62554952Y-113705952D01*
X62650190Y-113753571D01*
X62983523Y-113753571D01*
X61459714Y-114277380D02*
X62031142Y-114277380D01*
X61745428Y-114277380D02*
X61745428Y-113277380D01*
X61840666Y-113420238D01*
X61935904Y-113515476D01*
X62031142Y-113563095D01*
%TO.C,D20*%
X86939285Y-177871380D02*
X86939285Y-176871380D01*
X86701190Y-176871380D01*
X86558333Y-176919000D01*
X86463095Y-177014238D01*
X86415476Y-177109476D01*
X86367857Y-177299952D01*
X86367857Y-177442809D01*
X86415476Y-177633285D01*
X86463095Y-177728523D01*
X86558333Y-177823761D01*
X86701190Y-177871380D01*
X86939285Y-177871380D01*
X85986904Y-176966619D02*
X85939285Y-176919000D01*
X85844047Y-176871380D01*
X85605952Y-176871380D01*
X85510714Y-176919000D01*
X85463095Y-176966619D01*
X85415476Y-177061857D01*
X85415476Y-177157095D01*
X85463095Y-177299952D01*
X86034523Y-177871380D01*
X85415476Y-177871380D01*
X84796428Y-176871380D02*
X84701190Y-176871380D01*
X84605952Y-176919000D01*
X84558333Y-176966619D01*
X84510714Y-177061857D01*
X84463095Y-177252333D01*
X84463095Y-177490428D01*
X84510714Y-177680904D01*
X84558333Y-177776142D01*
X84605952Y-177823761D01*
X84701190Y-177871380D01*
X84796428Y-177871380D01*
X84891666Y-177823761D01*
X84939285Y-177776142D01*
X84986904Y-177680904D01*
X85034523Y-177490428D01*
X85034523Y-177252333D01*
X84986904Y-177061857D01*
X84939285Y-176966619D01*
X84891666Y-176919000D01*
X84796428Y-176871380D01*
%TO.C,D18*%
X86939285Y-139771380D02*
X86939285Y-138771380D01*
X86701190Y-138771380D01*
X86558333Y-138819000D01*
X86463095Y-138914238D01*
X86415476Y-139009476D01*
X86367857Y-139199952D01*
X86367857Y-139342809D01*
X86415476Y-139533285D01*
X86463095Y-139628523D01*
X86558333Y-139723761D01*
X86701190Y-139771380D01*
X86939285Y-139771380D01*
X85415476Y-139771380D02*
X85986904Y-139771380D01*
X85701190Y-139771380D02*
X85701190Y-138771380D01*
X85796428Y-138914238D01*
X85891666Y-139009476D01*
X85986904Y-139057095D01*
X84844047Y-139199952D02*
X84939285Y-139152333D01*
X84986904Y-139104714D01*
X85034523Y-139009476D01*
X85034523Y-138961857D01*
X84986904Y-138866619D01*
X84939285Y-138819000D01*
X84844047Y-138771380D01*
X84653571Y-138771380D01*
X84558333Y-138819000D01*
X84510714Y-138866619D01*
X84463095Y-138961857D01*
X84463095Y-139009476D01*
X84510714Y-139104714D01*
X84558333Y-139152333D01*
X84653571Y-139199952D01*
X84844047Y-139199952D01*
X84939285Y-139247571D01*
X84986904Y-139295190D01*
X85034523Y-139390428D01*
X85034523Y-139580904D01*
X84986904Y-139676142D01*
X84939285Y-139723761D01*
X84844047Y-139771380D01*
X84653571Y-139771380D01*
X84558333Y-139723761D01*
X84510714Y-139676142D01*
X84463095Y-139580904D01*
X84463095Y-139390428D01*
X84510714Y-139295190D01*
X84558333Y-139247571D01*
X84653571Y-139199952D01*
%TO.C,D17*%
X67889285Y-177871380D02*
X67889285Y-176871380D01*
X67651190Y-176871380D01*
X67508333Y-176919000D01*
X67413095Y-177014238D01*
X67365476Y-177109476D01*
X67317857Y-177299952D01*
X67317857Y-177442809D01*
X67365476Y-177633285D01*
X67413095Y-177728523D01*
X67508333Y-177823761D01*
X67651190Y-177871380D01*
X67889285Y-177871380D01*
X66365476Y-177871380D02*
X66936904Y-177871380D01*
X66651190Y-177871380D02*
X66651190Y-176871380D01*
X66746428Y-177014238D01*
X66841666Y-177109476D01*
X66936904Y-177157095D01*
X66032142Y-176871380D02*
X65365476Y-176871380D01*
X65794047Y-177871380D01*
%TO.C,D13*%
X48839285Y-177871380D02*
X48839285Y-176871380D01*
X48601190Y-176871380D01*
X48458333Y-176919000D01*
X48363095Y-177014238D01*
X48315476Y-177109476D01*
X48267857Y-177299952D01*
X48267857Y-177442809D01*
X48315476Y-177633285D01*
X48363095Y-177728523D01*
X48458333Y-177823761D01*
X48601190Y-177871380D01*
X48839285Y-177871380D01*
X47315476Y-177871380D02*
X47886904Y-177871380D01*
X47601190Y-177871380D02*
X47601190Y-176871380D01*
X47696428Y-177014238D01*
X47791666Y-177109476D01*
X47886904Y-177157095D01*
X46982142Y-176871380D02*
X46363095Y-176871380D01*
X46696428Y-177252333D01*
X46553571Y-177252333D01*
X46458333Y-177299952D01*
X46410714Y-177347571D01*
X46363095Y-177442809D01*
X46363095Y-177680904D01*
X46410714Y-177776142D01*
X46458333Y-177823761D01*
X46553571Y-177871380D01*
X46839285Y-177871380D01*
X46934523Y-177823761D01*
X46982142Y-177776142D01*
%TO.C,D10*%
X96114880Y-174204464D02*
X95114880Y-174204464D01*
X95114880Y-174442559D01*
X95162500Y-174585416D01*
X95257738Y-174680654D01*
X95352976Y-174728273D01*
X95543452Y-174775892D01*
X95686309Y-174775892D01*
X95876785Y-174728273D01*
X95972023Y-174680654D01*
X96067261Y-174585416D01*
X96114880Y-174442559D01*
X96114880Y-174204464D01*
X96114880Y-175728273D02*
X96114880Y-175156845D01*
X96114880Y-175442559D02*
X95114880Y-175442559D01*
X95257738Y-175347321D01*
X95352976Y-175252083D01*
X95400595Y-175156845D01*
X95114880Y-176347321D02*
X95114880Y-176442559D01*
X95162500Y-176537797D01*
X95210119Y-176585416D01*
X95305357Y-176633035D01*
X95495833Y-176680654D01*
X95733928Y-176680654D01*
X95924404Y-176633035D01*
X96019642Y-176585416D01*
X96067261Y-176537797D01*
X96114880Y-176442559D01*
X96114880Y-176347321D01*
X96067261Y-176252083D01*
X96019642Y-176204464D01*
X95924404Y-176156845D01*
X95733928Y-176109226D01*
X95495833Y-176109226D01*
X95305357Y-176156845D01*
X95210119Y-176204464D01*
X95162500Y-176252083D01*
X95114880Y-176347321D01*
%TO.C,D9*%
X96114880Y-155630654D02*
X95114880Y-155630654D01*
X95114880Y-155868750D01*
X95162500Y-156011607D01*
X95257738Y-156106845D01*
X95352976Y-156154464D01*
X95543452Y-156202083D01*
X95686309Y-156202083D01*
X95876785Y-156154464D01*
X95972023Y-156106845D01*
X96067261Y-156011607D01*
X96114880Y-155868750D01*
X96114880Y-155630654D01*
X96114880Y-156678273D02*
X96114880Y-156868750D01*
X96067261Y-156963988D01*
X96019642Y-157011607D01*
X95876785Y-157106845D01*
X95686309Y-157154464D01*
X95305357Y-157154464D01*
X95210119Y-157106845D01*
X95162500Y-157059226D01*
X95114880Y-156963988D01*
X95114880Y-156773511D01*
X95162500Y-156678273D01*
X95210119Y-156630654D01*
X95305357Y-156583035D01*
X95543452Y-156583035D01*
X95638690Y-156630654D01*
X95686309Y-156678273D01*
X95733928Y-156773511D01*
X95733928Y-156963988D01*
X95686309Y-157059226D01*
X95638690Y-157106845D01*
X95543452Y-157154464D01*
%TO.C,D7*%
X77064880Y-174680654D02*
X76064880Y-174680654D01*
X76064880Y-174918750D01*
X76112500Y-175061607D01*
X76207738Y-175156845D01*
X76302976Y-175204464D01*
X76493452Y-175252083D01*
X76636309Y-175252083D01*
X76826785Y-175204464D01*
X76922023Y-175156845D01*
X77017261Y-175061607D01*
X77064880Y-174918750D01*
X77064880Y-174680654D01*
X76064880Y-175585416D02*
X76064880Y-176252083D01*
X77064880Y-175823511D01*
%TO.C,D6*%
X77064880Y-155630654D02*
X76064880Y-155630654D01*
X76064880Y-155868750D01*
X76112500Y-156011607D01*
X76207738Y-156106845D01*
X76302976Y-156154464D01*
X76493452Y-156202083D01*
X76636309Y-156202083D01*
X76826785Y-156154464D01*
X76922023Y-156106845D01*
X77017261Y-156011607D01*
X77064880Y-155868750D01*
X77064880Y-155630654D01*
X76064880Y-157059226D02*
X76064880Y-156868750D01*
X76112500Y-156773511D01*
X76160119Y-156725892D01*
X76302976Y-156630654D01*
X76493452Y-156583035D01*
X76874404Y-156583035D01*
X76969642Y-156630654D01*
X77017261Y-156678273D01*
X77064880Y-156773511D01*
X77064880Y-156963988D01*
X77017261Y-157059226D01*
X76969642Y-157106845D01*
X76874404Y-157154464D01*
X76636309Y-157154464D01*
X76541071Y-157106845D01*
X76493452Y-157059226D01*
X76445833Y-156963988D01*
X76445833Y-156773511D01*
X76493452Y-156678273D01*
X76541071Y-156630654D01*
X76636309Y-156583035D01*
%TO.C,D5*%
X77064880Y-136580654D02*
X76064880Y-136580654D01*
X76064880Y-136818750D01*
X76112500Y-136961607D01*
X76207738Y-137056845D01*
X76302976Y-137104464D01*
X76493452Y-137152083D01*
X76636309Y-137152083D01*
X76826785Y-137104464D01*
X76922023Y-137056845D01*
X77017261Y-136961607D01*
X77064880Y-136818750D01*
X77064880Y-136580654D01*
X76064880Y-138056845D02*
X76064880Y-137580654D01*
X76541071Y-137533035D01*
X76493452Y-137580654D01*
X76445833Y-137675892D01*
X76445833Y-137913988D01*
X76493452Y-138009226D01*
X76541071Y-138056845D01*
X76636309Y-138104464D01*
X76874404Y-138104464D01*
X76969642Y-138056845D01*
X77017261Y-138009226D01*
X77064880Y-137913988D01*
X77064880Y-137675892D01*
X77017261Y-137580654D01*
X76969642Y-137533035D01*
%TO.C,D2*%
X58014880Y-155630654D02*
X57014880Y-155630654D01*
X57014880Y-155868750D01*
X57062500Y-156011607D01*
X57157738Y-156106845D01*
X57252976Y-156154464D01*
X57443452Y-156202083D01*
X57586309Y-156202083D01*
X57776785Y-156154464D01*
X57872023Y-156106845D01*
X57967261Y-156011607D01*
X58014880Y-155868750D01*
X58014880Y-155630654D01*
X57110119Y-156583035D02*
X57062500Y-156630654D01*
X57014880Y-156725892D01*
X57014880Y-156963988D01*
X57062500Y-157059226D01*
X57110119Y-157106845D01*
X57205357Y-157154464D01*
X57300595Y-157154464D01*
X57443452Y-157106845D01*
X58014880Y-156535416D01*
X58014880Y-157154464D01*
%TO.C,D1*%
X58014880Y-136580654D02*
X57014880Y-136580654D01*
X57014880Y-136818750D01*
X57062500Y-136961607D01*
X57157738Y-137056845D01*
X57252976Y-137104464D01*
X57443452Y-137152083D01*
X57586309Y-137152083D01*
X57776785Y-137104464D01*
X57872023Y-137056845D01*
X57967261Y-136961607D01*
X58014880Y-136818750D01*
X58014880Y-136580654D01*
X58014880Y-138104464D02*
X58014880Y-137533035D01*
X58014880Y-137818750D02*
X57014880Y-137818750D01*
X57157738Y-137723511D01*
X57252976Y-137628273D01*
X57300595Y-137533035D01*
%TO.C,C20*%
X85415357Y-109893392D02*
X85462976Y-109941011D01*
X85605833Y-109988630D01*
X85701071Y-109988630D01*
X85843928Y-109941011D01*
X85939166Y-109845773D01*
X85986785Y-109750535D01*
X86034404Y-109560059D01*
X86034404Y-109417202D01*
X85986785Y-109226726D01*
X85939166Y-109131488D01*
X85843928Y-109036250D01*
X85701071Y-108988630D01*
X85605833Y-108988630D01*
X85462976Y-109036250D01*
X85415357Y-109083869D01*
X85034404Y-109083869D02*
X84986785Y-109036250D01*
X84891547Y-108988630D01*
X84653452Y-108988630D01*
X84558214Y-109036250D01*
X84510595Y-109083869D01*
X84462976Y-109179107D01*
X84462976Y-109274345D01*
X84510595Y-109417202D01*
X85082023Y-109988630D01*
X84462976Y-109988630D01*
X83843928Y-108988630D02*
X83748690Y-108988630D01*
X83653452Y-109036250D01*
X83605833Y-109083869D01*
X83558214Y-109179107D01*
X83510595Y-109369583D01*
X83510595Y-109607678D01*
X83558214Y-109798154D01*
X83605833Y-109893392D01*
X83653452Y-109941011D01*
X83748690Y-109988630D01*
X83843928Y-109988630D01*
X83939166Y-109941011D01*
X83986785Y-109893392D01*
X84034404Y-109798154D01*
X84082023Y-109607678D01*
X84082023Y-109369583D01*
X84034404Y-109179107D01*
X83986785Y-109083869D01*
X83939166Y-109036250D01*
X83843928Y-108988630D01*
%TO.C,C19*%
X76874642Y-117086142D02*
X76922261Y-117038523D01*
X76969880Y-116895666D01*
X76969880Y-116800428D01*
X76922261Y-116657571D01*
X76827023Y-116562333D01*
X76731785Y-116514714D01*
X76541309Y-116467095D01*
X76398452Y-116467095D01*
X76207976Y-116514714D01*
X76112738Y-116562333D01*
X76017500Y-116657571D01*
X75969880Y-116800428D01*
X75969880Y-116895666D01*
X76017500Y-117038523D01*
X76065119Y-117086142D01*
X76969880Y-118038523D02*
X76969880Y-117467095D01*
X76969880Y-117752809D02*
X75969880Y-117752809D01*
X76112738Y-117657571D01*
X76207976Y-117562333D01*
X76255595Y-117467095D01*
X76969880Y-118514714D02*
X76969880Y-118705190D01*
X76922261Y-118800428D01*
X76874642Y-118848047D01*
X76731785Y-118943285D01*
X76541309Y-118990904D01*
X76160357Y-118990904D01*
X76065119Y-118943285D01*
X76017500Y-118895666D01*
X75969880Y-118800428D01*
X75969880Y-118609952D01*
X76017500Y-118514714D01*
X76065119Y-118467095D01*
X76160357Y-118419476D01*
X76398452Y-118419476D01*
X76493690Y-118467095D01*
X76541309Y-118514714D01*
X76588928Y-118609952D01*
X76588928Y-118800428D01*
X76541309Y-118895666D01*
X76493690Y-118943285D01*
X76398452Y-118990904D01*
%TO.C,C18*%
X88654605Y-106985969D02*
X88721949Y-106985969D01*
X88856636Y-106918625D01*
X88923979Y-106851282D01*
X88991323Y-106716595D01*
X88991323Y-106581908D01*
X88957651Y-106480893D01*
X88856636Y-106312534D01*
X88755621Y-106211519D01*
X88587262Y-106110503D01*
X88486247Y-106076832D01*
X88351560Y-106076832D01*
X88216873Y-106144175D01*
X88149529Y-106211519D01*
X88082186Y-106346206D01*
X88082186Y-106413549D01*
X88048514Y-107726748D02*
X88452575Y-107322687D01*
X88250544Y-107524717D02*
X87543437Y-106817610D01*
X87711796Y-106851282D01*
X87846483Y-106851282D01*
X87947499Y-106817610D01*
X87240392Y-107726748D02*
X87274063Y-107625732D01*
X87274063Y-107558389D01*
X87240392Y-107457374D01*
X87206720Y-107423702D01*
X87105705Y-107390030D01*
X87038361Y-107390030D01*
X86937346Y-107423702D01*
X86802659Y-107558389D01*
X86768987Y-107659404D01*
X86768987Y-107726748D01*
X86802659Y-107827763D01*
X86836331Y-107861435D01*
X86937346Y-107895106D01*
X87004689Y-107895106D01*
X87105705Y-107861435D01*
X87240392Y-107726748D01*
X87341407Y-107693076D01*
X87408750Y-107693076D01*
X87509766Y-107726748D01*
X87644453Y-107861435D01*
X87678124Y-107962450D01*
X87678124Y-108029793D01*
X87644453Y-108130809D01*
X87509766Y-108265496D01*
X87408750Y-108299167D01*
X87341407Y-108299167D01*
X87240392Y-108265496D01*
X87105705Y-108130809D01*
X87072033Y-108029793D01*
X87072033Y-107962450D01*
X87105705Y-107861435D01*
%TO.C,C17*%
X95322106Y-113653469D02*
X95389450Y-113653469D01*
X95524137Y-113586125D01*
X95591480Y-113518782D01*
X95658824Y-113384095D01*
X95658824Y-113249408D01*
X95625152Y-113148393D01*
X95524137Y-112980034D01*
X95423122Y-112879019D01*
X95254763Y-112778003D01*
X95153748Y-112744332D01*
X95019061Y-112744332D01*
X94884374Y-112811675D01*
X94817030Y-112879019D01*
X94749687Y-113013706D01*
X94749687Y-113081049D01*
X94716015Y-114394248D02*
X95120076Y-113990187D01*
X94918045Y-114192217D02*
X94210938Y-113485110D01*
X94379297Y-113518782D01*
X94513984Y-113518782D01*
X94615000Y-113485110D01*
X93773206Y-113922843D02*
X93301801Y-114394248D01*
X94311954Y-114798309D01*
%TO.C,C16*%
X77927943Y-109657806D02*
X77995287Y-109657806D01*
X78129974Y-109590462D01*
X78197317Y-109523119D01*
X78264661Y-109388432D01*
X78264661Y-109253745D01*
X78230989Y-109152730D01*
X78129974Y-108984371D01*
X78028959Y-108883356D01*
X77860600Y-108782340D01*
X77759585Y-108748669D01*
X77624898Y-108748669D01*
X77490211Y-108816012D01*
X77422867Y-108883356D01*
X77355524Y-109018043D01*
X77355524Y-109085386D01*
X77321852Y-110398585D02*
X77725913Y-109994524D01*
X77523882Y-110196554D02*
X76816775Y-109489447D01*
X76985134Y-109523119D01*
X77119821Y-109523119D01*
X77220837Y-109489447D01*
X76008653Y-110297569D02*
X76143340Y-110162882D01*
X76244356Y-110129211D01*
X76311699Y-110129211D01*
X76480058Y-110162882D01*
X76648417Y-110263898D01*
X76917791Y-110533272D01*
X76951462Y-110634287D01*
X76951462Y-110701630D01*
X76917791Y-110802646D01*
X76783104Y-110937333D01*
X76682088Y-110971004D01*
X76614745Y-110971004D01*
X76513730Y-110937333D01*
X76345371Y-110768974D01*
X76311699Y-110667959D01*
X76311699Y-110600615D01*
X76345371Y-110499600D01*
X76480058Y-110364913D01*
X76581073Y-110331241D01*
X76648417Y-110331241D01*
X76749432Y-110364913D01*
%TO.C,C13*%
X88495142Y-164457142D02*
X88542761Y-164409523D01*
X88590380Y-164266666D01*
X88590380Y-164171428D01*
X88542761Y-164028571D01*
X88447523Y-163933333D01*
X88352285Y-163885714D01*
X88161809Y-163838095D01*
X88018952Y-163838095D01*
X87828476Y-163885714D01*
X87733238Y-163933333D01*
X87638000Y-164028571D01*
X87590380Y-164171428D01*
X87590380Y-164266666D01*
X87638000Y-164409523D01*
X87685619Y-164457142D01*
X88590380Y-165409523D02*
X88590380Y-164838095D01*
X88590380Y-165123809D02*
X87590380Y-165123809D01*
X87733238Y-165028571D01*
X87828476Y-164933333D01*
X87876095Y-164838095D01*
X87590380Y-165742857D02*
X87590380Y-166361904D01*
X87971333Y-166028571D01*
X87971333Y-166171428D01*
X88018952Y-166266666D01*
X88066571Y-166314285D01*
X88161809Y-166361904D01*
X88399904Y-166361904D01*
X88495142Y-166314285D01*
X88542761Y-166266666D01*
X88590380Y-166171428D01*
X88590380Y-165885714D01*
X88542761Y-165790476D01*
X88495142Y-165742857D01*
%TO.C,C11*%
X45569142Y-164457142D02*
X45616761Y-164409523D01*
X45664380Y-164266666D01*
X45664380Y-164171428D01*
X45616761Y-164028571D01*
X45521523Y-163933333D01*
X45426285Y-163885714D01*
X45235809Y-163838095D01*
X45092952Y-163838095D01*
X44902476Y-163885714D01*
X44807238Y-163933333D01*
X44712000Y-164028571D01*
X44664380Y-164171428D01*
X44664380Y-164266666D01*
X44712000Y-164409523D01*
X44759619Y-164457142D01*
X45664380Y-165409523D02*
X45664380Y-164838095D01*
X45664380Y-165123809D02*
X44664380Y-165123809D01*
X44807238Y-165028571D01*
X44902476Y-164933333D01*
X44950095Y-164838095D01*
X45664380Y-166361904D02*
X45664380Y-165790476D01*
X45664380Y-166076190D02*
X44664380Y-166076190D01*
X44807238Y-165980952D01*
X44902476Y-165885714D01*
X44950095Y-165790476D01*
%TO.C,C9*%
X79445142Y-179538333D02*
X79492761Y-179490714D01*
X79540380Y-179347857D01*
X79540380Y-179252619D01*
X79492761Y-179109761D01*
X79397523Y-179014523D01*
X79302285Y-178966904D01*
X79111809Y-178919285D01*
X78968952Y-178919285D01*
X78778476Y-178966904D01*
X78683238Y-179014523D01*
X78588000Y-179109761D01*
X78540380Y-179252619D01*
X78540380Y-179347857D01*
X78588000Y-179490714D01*
X78635619Y-179538333D01*
X79540380Y-180014523D02*
X79540380Y-180205000D01*
X79492761Y-180300238D01*
X79445142Y-180347857D01*
X79302285Y-180443095D01*
X79111809Y-180490714D01*
X78730857Y-180490714D01*
X78635619Y-180443095D01*
X78588000Y-180395476D01*
X78540380Y-180300238D01*
X78540380Y-180109761D01*
X78588000Y-180014523D01*
X78635619Y-179966904D01*
X78730857Y-179919285D01*
X78968952Y-179919285D01*
X79064190Y-179966904D01*
X79111809Y-180014523D01*
X79159428Y-180109761D01*
X79159428Y-180300238D01*
X79111809Y-180395476D01*
X79064190Y-180443095D01*
X78968952Y-180490714D01*
%TO.C,C8*%
X79445142Y-160488333D02*
X79492761Y-160440714D01*
X79540380Y-160297857D01*
X79540380Y-160202619D01*
X79492761Y-160059761D01*
X79397523Y-159964523D01*
X79302285Y-159916904D01*
X79111809Y-159869285D01*
X78968952Y-159869285D01*
X78778476Y-159916904D01*
X78683238Y-159964523D01*
X78588000Y-160059761D01*
X78540380Y-160202619D01*
X78540380Y-160297857D01*
X78588000Y-160440714D01*
X78635619Y-160488333D01*
X78968952Y-161059761D02*
X78921333Y-160964523D01*
X78873714Y-160916904D01*
X78778476Y-160869285D01*
X78730857Y-160869285D01*
X78635619Y-160916904D01*
X78588000Y-160964523D01*
X78540380Y-161059761D01*
X78540380Y-161250238D01*
X78588000Y-161345476D01*
X78635619Y-161393095D01*
X78730857Y-161440714D01*
X78778476Y-161440714D01*
X78873714Y-161393095D01*
X78921333Y-161345476D01*
X78968952Y-161250238D01*
X78968952Y-161059761D01*
X79016571Y-160964523D01*
X79064190Y-160916904D01*
X79159428Y-160869285D01*
X79349904Y-160869285D01*
X79445142Y-160916904D01*
X79492761Y-160964523D01*
X79540380Y-161059761D01*
X79540380Y-161250238D01*
X79492761Y-161345476D01*
X79445142Y-161393095D01*
X79349904Y-161440714D01*
X79159428Y-161440714D01*
X79064190Y-161393095D01*
X79016571Y-161345476D01*
X78968952Y-161250238D01*
%TO.C,C6*%
X60395142Y-179538333D02*
X60442761Y-179490714D01*
X60490380Y-179347857D01*
X60490380Y-179252619D01*
X60442761Y-179109761D01*
X60347523Y-179014523D01*
X60252285Y-178966904D01*
X60061809Y-178919285D01*
X59918952Y-178919285D01*
X59728476Y-178966904D01*
X59633238Y-179014523D01*
X59538000Y-179109761D01*
X59490380Y-179252619D01*
X59490380Y-179347857D01*
X59538000Y-179490714D01*
X59585619Y-179538333D01*
X59490380Y-180395476D02*
X59490380Y-180205000D01*
X59538000Y-180109761D01*
X59585619Y-180062142D01*
X59728476Y-179966904D01*
X59918952Y-179919285D01*
X60299904Y-179919285D01*
X60395142Y-179966904D01*
X60442761Y-180014523D01*
X60490380Y-180109761D01*
X60490380Y-180300238D01*
X60442761Y-180395476D01*
X60395142Y-180443095D01*
X60299904Y-180490714D01*
X60061809Y-180490714D01*
X59966571Y-180443095D01*
X59918952Y-180395476D01*
X59871333Y-180300238D01*
X59871333Y-180109761D01*
X59918952Y-180014523D01*
X59966571Y-179966904D01*
X60061809Y-179919285D01*
%TO.C,C5*%
X60395142Y-160488333D02*
X60442761Y-160440714D01*
X60490380Y-160297857D01*
X60490380Y-160202619D01*
X60442761Y-160059761D01*
X60347523Y-159964523D01*
X60252285Y-159916904D01*
X60061809Y-159869285D01*
X59918952Y-159869285D01*
X59728476Y-159916904D01*
X59633238Y-159964523D01*
X59538000Y-160059761D01*
X59490380Y-160202619D01*
X59490380Y-160297857D01*
X59538000Y-160440714D01*
X59585619Y-160488333D01*
X59490380Y-161393095D02*
X59490380Y-160916904D01*
X59966571Y-160869285D01*
X59918952Y-160916904D01*
X59871333Y-161012142D01*
X59871333Y-161250238D01*
X59918952Y-161345476D01*
X59966571Y-161393095D01*
X60061809Y-161440714D01*
X60299904Y-161440714D01*
X60395142Y-161393095D01*
X60442761Y-161345476D01*
X60490380Y-161250238D01*
X60490380Y-161012142D01*
X60442761Y-160916904D01*
X60395142Y-160869285D01*
%TO.C,C3*%
X41345142Y-179538333D02*
X41392761Y-179490714D01*
X41440380Y-179347857D01*
X41440380Y-179252619D01*
X41392761Y-179109761D01*
X41297523Y-179014523D01*
X41202285Y-178966904D01*
X41011809Y-178919285D01*
X40868952Y-178919285D01*
X40678476Y-178966904D01*
X40583238Y-179014523D01*
X40488000Y-179109761D01*
X40440380Y-179252619D01*
X40440380Y-179347857D01*
X40488000Y-179490714D01*
X40535619Y-179538333D01*
X40440380Y-179871666D02*
X40440380Y-180490714D01*
X40821333Y-180157380D01*
X40821333Y-180300238D01*
X40868952Y-180395476D01*
X40916571Y-180443095D01*
X41011809Y-180490714D01*
X41249904Y-180490714D01*
X41345142Y-180443095D01*
X41392761Y-180395476D01*
X41440380Y-180300238D01*
X41440380Y-180014523D01*
X41392761Y-179919285D01*
X41345142Y-179871666D01*
%TO.C,C2*%
X41345142Y-160488333D02*
X41392761Y-160440714D01*
X41440380Y-160297857D01*
X41440380Y-160202619D01*
X41392761Y-160059761D01*
X41297523Y-159964523D01*
X41202285Y-159916904D01*
X41011809Y-159869285D01*
X40868952Y-159869285D01*
X40678476Y-159916904D01*
X40583238Y-159964523D01*
X40488000Y-160059761D01*
X40440380Y-160202619D01*
X40440380Y-160297857D01*
X40488000Y-160440714D01*
X40535619Y-160488333D01*
X40535619Y-160869285D02*
X40488000Y-160916904D01*
X40440380Y-161012142D01*
X40440380Y-161250238D01*
X40488000Y-161345476D01*
X40535619Y-161393095D01*
X40630857Y-161440714D01*
X40726095Y-161440714D01*
X40868952Y-161393095D01*
X41440380Y-160821666D01*
X41440380Y-161440714D01*
%TD*%
%LPC*%
D14*
%TO.C,MX2*%
X53440000Y-150495000D03*
X40540000Y-153035000D03*
D15*
X52705000Y-155575000D03*
X42545000Y-155575000D03*
D16*
X47625000Y-155575000D03*
%TD*%
D12*
%TO.C,U1*%
G36*
X81063795Y-117760750D02*
G01*
X84740750Y-114083795D01*
X88417705Y-117760750D01*
X84740750Y-121437705D01*
X81063795Y-117760750D01*
G37*
G36*
G01*
X80188750Y-118600440D02*
X80860502Y-117928688D01*
G75*
G02*
X80948890Y-117928688I44194J-44194D01*
G01*
X81037278Y-118017076D01*
G75*
G02*
X81037278Y-118105464I-44194J-44194D01*
G01*
X80365526Y-118777216D01*
G75*
G02*
X80277138Y-118777216I-44194J44194D01*
G01*
X80188750Y-118688828D01*
G75*
G02*
X80188750Y-118600440I44194J44194D01*
G01*
G37*
G36*
G01*
X80542304Y-118953993D02*
X81214056Y-118282241D01*
G75*
G02*
X81302444Y-118282241I44194J-44194D01*
G01*
X81390832Y-118370629D01*
G75*
G02*
X81390832Y-118459017I-44194J-44194D01*
G01*
X80719080Y-119130769D01*
G75*
G02*
X80630692Y-119130769I-44194J44194D01*
G01*
X80542304Y-119042381D01*
G75*
G02*
X80542304Y-118953993I44194J44194D01*
G01*
G37*
G36*
G01*
X80895857Y-119307547D02*
X81567609Y-118635795D01*
G75*
G02*
X81655997Y-118635795I44194J-44194D01*
G01*
X81744385Y-118724183D01*
G75*
G02*
X81744385Y-118812571I-44194J-44194D01*
G01*
X81072633Y-119484323D01*
G75*
G02*
X80984245Y-119484323I-44194J44194D01*
G01*
X80895857Y-119395935D01*
G75*
G02*
X80895857Y-119307547I44194J44194D01*
G01*
G37*
G36*
G01*
X81249410Y-119661100D02*
X81921162Y-118989348D01*
G75*
G02*
X82009550Y-118989348I44194J-44194D01*
G01*
X82097938Y-119077736D01*
G75*
G02*
X82097938Y-119166124I-44194J-44194D01*
G01*
X81426186Y-119837876D01*
G75*
G02*
X81337798Y-119837876I-44194J44194D01*
G01*
X81249410Y-119749488D01*
G75*
G02*
X81249410Y-119661100I44194J44194D01*
G01*
G37*
G36*
G01*
X81602964Y-120014653D02*
X82274716Y-119342901D01*
G75*
G02*
X82363104Y-119342901I44194J-44194D01*
G01*
X82451492Y-119431289D01*
G75*
G02*
X82451492Y-119519677I-44194J-44194D01*
G01*
X81779740Y-120191429D01*
G75*
G02*
X81691352Y-120191429I-44194J44194D01*
G01*
X81602964Y-120103041D01*
G75*
G02*
X81602964Y-120014653I44194J44194D01*
G01*
G37*
G36*
G01*
X81956517Y-120368207D02*
X82628269Y-119696455D01*
G75*
G02*
X82716657Y-119696455I44194J-44194D01*
G01*
X82805045Y-119784843D01*
G75*
G02*
X82805045Y-119873231I-44194J-44194D01*
G01*
X82133293Y-120544983D01*
G75*
G02*
X82044905Y-120544983I-44194J44194D01*
G01*
X81956517Y-120456595D01*
G75*
G02*
X81956517Y-120368207I44194J44194D01*
G01*
G37*
G36*
G01*
X82310071Y-120721760D02*
X82981823Y-120050008D01*
G75*
G02*
X83070211Y-120050008I44194J-44194D01*
G01*
X83158599Y-120138396D01*
G75*
G02*
X83158599Y-120226784I-44194J-44194D01*
G01*
X82486847Y-120898536D01*
G75*
G02*
X82398459Y-120898536I-44194J44194D01*
G01*
X82310071Y-120810148D01*
G75*
G02*
X82310071Y-120721760I44194J44194D01*
G01*
G37*
G36*
G01*
X82663624Y-121075314D02*
X83335376Y-120403562D01*
G75*
G02*
X83423764Y-120403562I44194J-44194D01*
G01*
X83512152Y-120491950D01*
G75*
G02*
X83512152Y-120580338I-44194J-44194D01*
G01*
X82840400Y-121252090D01*
G75*
G02*
X82752012Y-121252090I-44194J44194D01*
G01*
X82663624Y-121163702D01*
G75*
G02*
X82663624Y-121075314I44194J44194D01*
G01*
G37*
G36*
G01*
X83017177Y-121428867D02*
X83688929Y-120757115D01*
G75*
G02*
X83777317Y-120757115I44194J-44194D01*
G01*
X83865705Y-120845503D01*
G75*
G02*
X83865705Y-120933891I-44194J-44194D01*
G01*
X83193953Y-121605643D01*
G75*
G02*
X83105565Y-121605643I-44194J44194D01*
G01*
X83017177Y-121517255D01*
G75*
G02*
X83017177Y-121428867I44194J44194D01*
G01*
G37*
G36*
G01*
X83370731Y-121782420D02*
X84042483Y-121110668D01*
G75*
G02*
X84130871Y-121110668I44194J-44194D01*
G01*
X84219259Y-121199056D01*
G75*
G02*
X84219259Y-121287444I-44194J-44194D01*
G01*
X83547507Y-121959196D01*
G75*
G02*
X83459119Y-121959196I-44194J44194D01*
G01*
X83370731Y-121870808D01*
G75*
G02*
X83370731Y-121782420I44194J44194D01*
G01*
G37*
G36*
G01*
X83724284Y-122135974D02*
X84396036Y-121464222D01*
G75*
G02*
X84484424Y-121464222I44194J-44194D01*
G01*
X84572812Y-121552610D01*
G75*
G02*
X84572812Y-121640998I-44194J-44194D01*
G01*
X83901060Y-122312750D01*
G75*
G02*
X83812672Y-122312750I-44194J44194D01*
G01*
X83724284Y-122224362D01*
G75*
G02*
X83724284Y-122135974I44194J44194D01*
G01*
G37*
G36*
G01*
X84908688Y-121552610D02*
X84997076Y-121464222D01*
G75*
G02*
X85085464Y-121464222I44194J-44194D01*
G01*
X85757216Y-122135974D01*
G75*
G02*
X85757216Y-122224362I-44194J-44194D01*
G01*
X85668828Y-122312750D01*
G75*
G02*
X85580440Y-122312750I-44194J44194D01*
G01*
X84908688Y-121640998D01*
G75*
G02*
X84908688Y-121552610I44194J44194D01*
G01*
G37*
G36*
G01*
X85262241Y-121199056D02*
X85350629Y-121110668D01*
G75*
G02*
X85439017Y-121110668I44194J-44194D01*
G01*
X86110769Y-121782420D01*
G75*
G02*
X86110769Y-121870808I-44194J-44194D01*
G01*
X86022381Y-121959196D01*
G75*
G02*
X85933993Y-121959196I-44194J44194D01*
G01*
X85262241Y-121287444D01*
G75*
G02*
X85262241Y-121199056I44194J44194D01*
G01*
G37*
G36*
G01*
X85615795Y-120845503D02*
X85704183Y-120757115D01*
G75*
G02*
X85792571Y-120757115I44194J-44194D01*
G01*
X86464323Y-121428867D01*
G75*
G02*
X86464323Y-121517255I-44194J-44194D01*
G01*
X86375935Y-121605643D01*
G75*
G02*
X86287547Y-121605643I-44194J44194D01*
G01*
X85615795Y-120933891D01*
G75*
G02*
X85615795Y-120845503I44194J44194D01*
G01*
G37*
G36*
G01*
X85969348Y-120491950D02*
X86057736Y-120403562D01*
G75*
G02*
X86146124Y-120403562I44194J-44194D01*
G01*
X86817876Y-121075314D01*
G75*
G02*
X86817876Y-121163702I-44194J-44194D01*
G01*
X86729488Y-121252090D01*
G75*
G02*
X86641100Y-121252090I-44194J44194D01*
G01*
X85969348Y-120580338D01*
G75*
G02*
X85969348Y-120491950I44194J44194D01*
G01*
G37*
G36*
G01*
X86322901Y-120138396D02*
X86411289Y-120050008D01*
G75*
G02*
X86499677Y-120050008I44194J-44194D01*
G01*
X87171429Y-120721760D01*
G75*
G02*
X87171429Y-120810148I-44194J-44194D01*
G01*
X87083041Y-120898536D01*
G75*
G02*
X86994653Y-120898536I-44194J44194D01*
G01*
X86322901Y-120226784D01*
G75*
G02*
X86322901Y-120138396I44194J44194D01*
G01*
G37*
G36*
G01*
X86676455Y-119784843D02*
X86764843Y-119696455D01*
G75*
G02*
X86853231Y-119696455I44194J-44194D01*
G01*
X87524983Y-120368207D01*
G75*
G02*
X87524983Y-120456595I-44194J-44194D01*
G01*
X87436595Y-120544983D01*
G75*
G02*
X87348207Y-120544983I-44194J44194D01*
G01*
X86676455Y-119873231D01*
G75*
G02*
X86676455Y-119784843I44194J44194D01*
G01*
G37*
G36*
G01*
X87030008Y-119431289D02*
X87118396Y-119342901D01*
G75*
G02*
X87206784Y-119342901I44194J-44194D01*
G01*
X87878536Y-120014653D01*
G75*
G02*
X87878536Y-120103041I-44194J-44194D01*
G01*
X87790148Y-120191429D01*
G75*
G02*
X87701760Y-120191429I-44194J44194D01*
G01*
X87030008Y-119519677D01*
G75*
G02*
X87030008Y-119431289I44194J44194D01*
G01*
G37*
G36*
G01*
X87383562Y-119077736D02*
X87471950Y-118989348D01*
G75*
G02*
X87560338Y-118989348I44194J-44194D01*
G01*
X88232090Y-119661100D01*
G75*
G02*
X88232090Y-119749488I-44194J-44194D01*
G01*
X88143702Y-119837876D01*
G75*
G02*
X88055314Y-119837876I-44194J44194D01*
G01*
X87383562Y-119166124D01*
G75*
G02*
X87383562Y-119077736I44194J44194D01*
G01*
G37*
G36*
G01*
X87737115Y-118724183D02*
X87825503Y-118635795D01*
G75*
G02*
X87913891Y-118635795I44194J-44194D01*
G01*
X88585643Y-119307547D01*
G75*
G02*
X88585643Y-119395935I-44194J-44194D01*
G01*
X88497255Y-119484323D01*
G75*
G02*
X88408867Y-119484323I-44194J44194D01*
G01*
X87737115Y-118812571D01*
G75*
G02*
X87737115Y-118724183I44194J44194D01*
G01*
G37*
G36*
G01*
X88090668Y-118370629D02*
X88179056Y-118282241D01*
G75*
G02*
X88267444Y-118282241I44194J-44194D01*
G01*
X88939196Y-118953993D01*
G75*
G02*
X88939196Y-119042381I-44194J-44194D01*
G01*
X88850808Y-119130769D01*
G75*
G02*
X88762420Y-119130769I-44194J44194D01*
G01*
X88090668Y-118459017D01*
G75*
G02*
X88090668Y-118370629I44194J44194D01*
G01*
G37*
G36*
G01*
X88444222Y-118017076D02*
X88532610Y-117928688D01*
G75*
G02*
X88620998Y-117928688I44194J-44194D01*
G01*
X89292750Y-118600440D01*
G75*
G02*
X89292750Y-118688828I-44194J-44194D01*
G01*
X89204362Y-118777216D01*
G75*
G02*
X89115974Y-118777216I-44194J44194D01*
G01*
X88444222Y-118105464D01*
G75*
G02*
X88444222Y-118017076I44194J44194D01*
G01*
G37*
G36*
G01*
X88444222Y-117416036D02*
X89115974Y-116744284D01*
G75*
G02*
X89204362Y-116744284I44194J-44194D01*
G01*
X89292750Y-116832672D01*
G75*
G02*
X89292750Y-116921060I-44194J-44194D01*
G01*
X88620998Y-117592812D01*
G75*
G02*
X88532610Y-117592812I-44194J44194D01*
G01*
X88444222Y-117504424D01*
G75*
G02*
X88444222Y-117416036I44194J44194D01*
G01*
G37*
G36*
G01*
X88090668Y-117062483D02*
X88762420Y-116390731D01*
G75*
G02*
X88850808Y-116390731I44194J-44194D01*
G01*
X88939196Y-116479119D01*
G75*
G02*
X88939196Y-116567507I-44194J-44194D01*
G01*
X88267444Y-117239259D01*
G75*
G02*
X88179056Y-117239259I-44194J44194D01*
G01*
X88090668Y-117150871D01*
G75*
G02*
X88090668Y-117062483I44194J44194D01*
G01*
G37*
G36*
G01*
X87737115Y-116708929D02*
X88408867Y-116037177D01*
G75*
G02*
X88497255Y-116037177I44194J-44194D01*
G01*
X88585643Y-116125565D01*
G75*
G02*
X88585643Y-116213953I-44194J-44194D01*
G01*
X87913891Y-116885705D01*
G75*
G02*
X87825503Y-116885705I-44194J44194D01*
G01*
X87737115Y-116797317D01*
G75*
G02*
X87737115Y-116708929I44194J44194D01*
G01*
G37*
G36*
G01*
X87383562Y-116355376D02*
X88055314Y-115683624D01*
G75*
G02*
X88143702Y-115683624I44194J-44194D01*
G01*
X88232090Y-115772012D01*
G75*
G02*
X88232090Y-115860400I-44194J-44194D01*
G01*
X87560338Y-116532152D01*
G75*
G02*
X87471950Y-116532152I-44194J44194D01*
G01*
X87383562Y-116443764D01*
G75*
G02*
X87383562Y-116355376I44194J44194D01*
G01*
G37*
G36*
G01*
X87030008Y-116001823D02*
X87701760Y-115330071D01*
G75*
G02*
X87790148Y-115330071I44194J-44194D01*
G01*
X87878536Y-115418459D01*
G75*
G02*
X87878536Y-115506847I-44194J-44194D01*
G01*
X87206784Y-116178599D01*
G75*
G02*
X87118396Y-116178599I-44194J44194D01*
G01*
X87030008Y-116090211D01*
G75*
G02*
X87030008Y-116001823I44194J44194D01*
G01*
G37*
G36*
G01*
X86676455Y-115648269D02*
X87348207Y-114976517D01*
G75*
G02*
X87436595Y-114976517I44194J-44194D01*
G01*
X87524983Y-115064905D01*
G75*
G02*
X87524983Y-115153293I-44194J-44194D01*
G01*
X86853231Y-115825045D01*
G75*
G02*
X86764843Y-115825045I-44194J44194D01*
G01*
X86676455Y-115736657D01*
G75*
G02*
X86676455Y-115648269I44194J44194D01*
G01*
G37*
G36*
G01*
X86322901Y-115294716D02*
X86994653Y-114622964D01*
G75*
G02*
X87083041Y-114622964I44194J-44194D01*
G01*
X87171429Y-114711352D01*
G75*
G02*
X87171429Y-114799740I-44194J-44194D01*
G01*
X86499677Y-115471492D01*
G75*
G02*
X86411289Y-115471492I-44194J44194D01*
G01*
X86322901Y-115383104D01*
G75*
G02*
X86322901Y-115294716I44194J44194D01*
G01*
G37*
G36*
G01*
X85969348Y-114941162D02*
X86641100Y-114269410D01*
G75*
G02*
X86729488Y-114269410I44194J-44194D01*
G01*
X86817876Y-114357798D01*
G75*
G02*
X86817876Y-114446186I-44194J-44194D01*
G01*
X86146124Y-115117938D01*
G75*
G02*
X86057736Y-115117938I-44194J44194D01*
G01*
X85969348Y-115029550D01*
G75*
G02*
X85969348Y-114941162I44194J44194D01*
G01*
G37*
G36*
G01*
X85615795Y-114587609D02*
X86287547Y-113915857D01*
G75*
G02*
X86375935Y-113915857I44194J-44194D01*
G01*
X86464323Y-114004245D01*
G75*
G02*
X86464323Y-114092633I-44194J-44194D01*
G01*
X85792571Y-114764385D01*
G75*
G02*
X85704183Y-114764385I-44194J44194D01*
G01*
X85615795Y-114675997D01*
G75*
G02*
X85615795Y-114587609I44194J44194D01*
G01*
G37*
G36*
G01*
X85262241Y-114234056D02*
X85933993Y-113562304D01*
G75*
G02*
X86022381Y-113562304I44194J-44194D01*
G01*
X86110769Y-113650692D01*
G75*
G02*
X86110769Y-113739080I-44194J-44194D01*
G01*
X85439017Y-114410832D01*
G75*
G02*
X85350629Y-114410832I-44194J44194D01*
G01*
X85262241Y-114322444D01*
G75*
G02*
X85262241Y-114234056I44194J44194D01*
G01*
G37*
G36*
G01*
X84908688Y-113880502D02*
X85580440Y-113208750D01*
G75*
G02*
X85668828Y-113208750I44194J-44194D01*
G01*
X85757216Y-113297138D01*
G75*
G02*
X85757216Y-113385526I-44194J-44194D01*
G01*
X85085464Y-114057278D01*
G75*
G02*
X84997076Y-114057278I-44194J44194D01*
G01*
X84908688Y-113968890D01*
G75*
G02*
X84908688Y-113880502I44194J44194D01*
G01*
G37*
G36*
G01*
X83724284Y-113297138D02*
X83812672Y-113208750D01*
G75*
G02*
X83901060Y-113208750I44194J-44194D01*
G01*
X84572812Y-113880502D01*
G75*
G02*
X84572812Y-113968890I-44194J-44194D01*
G01*
X84484424Y-114057278D01*
G75*
G02*
X84396036Y-114057278I-44194J44194D01*
G01*
X83724284Y-113385526D01*
G75*
G02*
X83724284Y-113297138I44194J44194D01*
G01*
G37*
G36*
G01*
X83370731Y-113650692D02*
X83459119Y-113562304D01*
G75*
G02*
X83547507Y-113562304I44194J-44194D01*
G01*
X84219259Y-114234056D01*
G75*
G02*
X84219259Y-114322444I-44194J-44194D01*
G01*
X84130871Y-114410832D01*
G75*
G02*
X84042483Y-114410832I-44194J44194D01*
G01*
X83370731Y-113739080D01*
G75*
G02*
X83370731Y-113650692I44194J44194D01*
G01*
G37*
G36*
G01*
X83017177Y-114004245D02*
X83105565Y-113915857D01*
G75*
G02*
X83193953Y-113915857I44194J-44194D01*
G01*
X83865705Y-114587609D01*
G75*
G02*
X83865705Y-114675997I-44194J-44194D01*
G01*
X83777317Y-114764385D01*
G75*
G02*
X83688929Y-114764385I-44194J44194D01*
G01*
X83017177Y-114092633D01*
G75*
G02*
X83017177Y-114004245I44194J44194D01*
G01*
G37*
G36*
G01*
X82663624Y-114357798D02*
X82752012Y-114269410D01*
G75*
G02*
X82840400Y-114269410I44194J-44194D01*
G01*
X83512152Y-114941162D01*
G75*
G02*
X83512152Y-115029550I-44194J-44194D01*
G01*
X83423764Y-115117938D01*
G75*
G02*
X83335376Y-115117938I-44194J44194D01*
G01*
X82663624Y-114446186D01*
G75*
G02*
X82663624Y-114357798I44194J44194D01*
G01*
G37*
G36*
G01*
X82310071Y-114711352D02*
X82398459Y-114622964D01*
G75*
G02*
X82486847Y-114622964I44194J-44194D01*
G01*
X83158599Y-115294716D01*
G75*
G02*
X83158599Y-115383104I-44194J-44194D01*
G01*
X83070211Y-115471492D01*
G75*
G02*
X82981823Y-115471492I-44194J44194D01*
G01*
X82310071Y-114799740D01*
G75*
G02*
X82310071Y-114711352I44194J44194D01*
G01*
G37*
G36*
G01*
X81956517Y-115064905D02*
X82044905Y-114976517D01*
G75*
G02*
X82133293Y-114976517I44194J-44194D01*
G01*
X82805045Y-115648269D01*
G75*
G02*
X82805045Y-115736657I-44194J-44194D01*
G01*
X82716657Y-115825045D01*
G75*
G02*
X82628269Y-115825045I-44194J44194D01*
G01*
X81956517Y-115153293D01*
G75*
G02*
X81956517Y-115064905I44194J44194D01*
G01*
G37*
G36*
G01*
X81602964Y-115418459D02*
X81691352Y-115330071D01*
G75*
G02*
X81779740Y-115330071I44194J-44194D01*
G01*
X82451492Y-116001823D01*
G75*
G02*
X82451492Y-116090211I-44194J-44194D01*
G01*
X82363104Y-116178599D01*
G75*
G02*
X82274716Y-116178599I-44194J44194D01*
G01*
X81602964Y-115506847D01*
G75*
G02*
X81602964Y-115418459I44194J44194D01*
G01*
G37*
G36*
G01*
X81249410Y-115772012D02*
X81337798Y-115683624D01*
G75*
G02*
X81426186Y-115683624I44194J-44194D01*
G01*
X82097938Y-116355376D01*
G75*
G02*
X82097938Y-116443764I-44194J-44194D01*
G01*
X82009550Y-116532152D01*
G75*
G02*
X81921162Y-116532152I-44194J44194D01*
G01*
X81249410Y-115860400D01*
G75*
G02*
X81249410Y-115772012I44194J44194D01*
G01*
G37*
G36*
G01*
X80895857Y-116125565D02*
X80984245Y-116037177D01*
G75*
G02*
X81072633Y-116037177I44194J-44194D01*
G01*
X81744385Y-116708929D01*
G75*
G02*
X81744385Y-116797317I-44194J-44194D01*
G01*
X81655997Y-116885705D01*
G75*
G02*
X81567609Y-116885705I-44194J44194D01*
G01*
X80895857Y-116213953D01*
G75*
G02*
X80895857Y-116125565I44194J44194D01*
G01*
G37*
G36*
G01*
X80542304Y-116479119D02*
X80630692Y-116390731D01*
G75*
G02*
X80719080Y-116390731I44194J-44194D01*
G01*
X81390832Y-117062483D01*
G75*
G02*
X81390832Y-117150871I-44194J-44194D01*
G01*
X81302444Y-117239259D01*
G75*
G02*
X81214056Y-117239259I-44194J44194D01*
G01*
X80542304Y-116567507D01*
G75*
G02*
X80542304Y-116479119I44194J44194D01*
G01*
G37*
G36*
G01*
X80188750Y-116832672D02*
X80277138Y-116744284D01*
G75*
G02*
X80365526Y-116744284I44194J-44194D01*
G01*
X81037278Y-117416036D01*
G75*
G02*
X81037278Y-117504424I-44194J-44194D01*
G01*
X80948890Y-117592812D01*
G75*
G02*
X80860502Y-117592812I-44194J44194D01*
G01*
X80188750Y-116921060D01*
G75*
G02*
X80188750Y-116832672I44194J44194D01*
G01*
G37*
%TD*%
D17*
%TO.C,D24*%
X91849000Y-165975000D03*
X91849000Y-164225000D03*
X95349000Y-165975000D03*
X95349000Y-164225000D03*
%TD*%
D12*
%TO.C,D23*%
G36*
X92527639Y-123576117D02*
G01*
X93128680Y-122975076D01*
X94260051Y-124106447D01*
X93659010Y-124707488D01*
X92527639Y-123576117D01*
G37*
G36*
X93765076Y-122338680D02*
G01*
X94366117Y-121737639D01*
X95497488Y-122869010D01*
X94896447Y-123470051D01*
X93765076Y-122338680D01*
G37*
G36*
X95002512Y-126050990D02*
G01*
X95603553Y-125449949D01*
X96734924Y-126581320D01*
X96133883Y-127182361D01*
X95002512Y-126050990D01*
G37*
G36*
X96239949Y-124813553D02*
G01*
X96840990Y-124212512D01*
X97972361Y-125343883D01*
X97371320Y-125944924D01*
X96239949Y-124813553D01*
G37*
%TD*%
%TO.C,D21*%
G36*
X38983883Y-121737639D02*
G01*
X39584924Y-122338680D01*
X38453553Y-123470051D01*
X37852512Y-122869010D01*
X38983883Y-121737639D01*
G37*
G36*
X40221320Y-122975076D02*
G01*
X40822361Y-123576117D01*
X39690990Y-124707488D01*
X39089949Y-124106447D01*
X40221320Y-122975076D01*
G37*
G36*
X36509010Y-124212512D02*
G01*
X37110051Y-124813553D01*
X35978680Y-125944924D01*
X35377639Y-125343883D01*
X36509010Y-124212512D01*
G37*
G36*
X37746447Y-125449949D02*
G01*
X38347488Y-126050990D01*
X37216117Y-127182361D01*
X36615076Y-126581320D01*
X37746447Y-125449949D01*
G37*
%TD*%
D17*
%TO.C,D22*%
X41501000Y-164225000D03*
X41501000Y-165975000D03*
X38001000Y-164225000D03*
X38001000Y-165975000D03*
%TD*%
D14*
%TO.C,MX1*%
X53440000Y-131445000D03*
X40540000Y-133985000D03*
D15*
X52705000Y-136525000D03*
X42545000Y-136525000D03*
D16*
X47625000Y-136525000D03*
%TD*%
D14*
%TO.C,MX9*%
X91540000Y-169545000D03*
X78640000Y-172085000D03*
D15*
X90805000Y-174625000D03*
X80645000Y-174625000D03*
D16*
X85725000Y-174625000D03*
%TD*%
D14*
%TO.C,MX6*%
X72490000Y-169545000D03*
X59590000Y-172085000D03*
D15*
X71755000Y-174625000D03*
X61595000Y-174625000D03*
D16*
X66675000Y-174625000D03*
%TD*%
D14*
%TO.C,MX8*%
X91540000Y-150495000D03*
X78640000Y-153035000D03*
D15*
X90805000Y-155575000D03*
X80645000Y-155575000D03*
D16*
X85725000Y-155575000D03*
%TD*%
D14*
%TO.C,MX4*%
X72490000Y-131445000D03*
X59590000Y-133985000D03*
D15*
X71755000Y-136525000D03*
X61595000Y-136525000D03*
D16*
X66675000Y-136525000D03*
%TD*%
D14*
%TO.C,MX7*%
X91540000Y-131445000D03*
X78640000Y-133985000D03*
D15*
X90805000Y-136525000D03*
X80645000Y-136525000D03*
D16*
X85725000Y-136525000D03*
%TD*%
D14*
%TO.C,MX5*%
X72490000Y-150495000D03*
X59590000Y-153035000D03*
D15*
X71755000Y-155575000D03*
X61595000Y-155575000D03*
D16*
X66675000Y-155575000D03*
%TD*%
D14*
%TO.C,MX3*%
X53440000Y-169545000D03*
X40540000Y-172085000D03*
D15*
X52705000Y-174625000D03*
X42545000Y-174625000D03*
D16*
X47625000Y-174625000D03*
%TD*%
D18*
%TO.C,H4*%
X96520000Y-185420000D03*
%TD*%
%TO.C,H3*%
X96520000Y-104140000D03*
%TD*%
%TO.C,H2*%
X36830000Y-185420000D03*
%TD*%
%TO.C,H1*%
X36830000Y-104140000D03*
%TD*%
D19*
%TO.C,REF\u002A\u002A*%
X90170000Y-185420000D03*
%TD*%
%TO.C,REF\u002A\u002A*%
X36830000Y-110490000D03*
%TD*%
%TO.C,C14*%
G36*
G01*
X82494000Y-106168000D02*
X82494000Y-105668000D01*
G75*
G02*
X82719000Y-105443000I225000J0D01*
G01*
X83169000Y-105443000D01*
G75*
G02*
X83394000Y-105668000I0J-225000D01*
G01*
X83394000Y-106168000D01*
G75*
G02*
X83169000Y-106393000I-225000J0D01*
G01*
X82719000Y-106393000D01*
G75*
G02*
X82494000Y-106168000I0J225000D01*
G01*
G37*
G36*
G01*
X80944000Y-106168000D02*
X80944000Y-105668000D01*
G75*
G02*
X81169000Y-105443000I225000J0D01*
G01*
X81619000Y-105443000D01*
G75*
G02*
X81844000Y-105668000I0J-225000D01*
G01*
X81844000Y-106168000D01*
G75*
G02*
X81619000Y-106393000I-225000J0D01*
G01*
X81169000Y-106393000D01*
G75*
G02*
X80944000Y-106168000I0J225000D01*
G01*
G37*
%TD*%
D20*
%TO.C,SW1*%
X80544000Y-103759000D03*
X83794000Y-103759000D03*
%TD*%
D21*
%TO.C,J2*%
X44450000Y-115443000D03*
D22*
X44450000Y-112903000D03*
X44450000Y-110363000D03*
X44450000Y-107823000D03*
X44450000Y-105283000D03*
X44450000Y-102743000D03*
%TD*%
%TO.C,D25*%
G36*
G01*
X76169000Y-124970250D02*
X76169000Y-124457750D01*
G75*
G02*
X76387750Y-124239000I218750J0D01*
G01*
X76825250Y-124239000D01*
G75*
G02*
X77044000Y-124457750I0J-218750D01*
G01*
X77044000Y-124970250D01*
G75*
G02*
X76825250Y-125189000I-218750J0D01*
G01*
X76387750Y-125189000D01*
G75*
G02*
X76169000Y-124970250I0J218750D01*
G01*
G37*
G36*
G01*
X74594000Y-124970250D02*
X74594000Y-124457750D01*
G75*
G02*
X74812750Y-124239000I218750J0D01*
G01*
X75250250Y-124239000D01*
G75*
G02*
X75469000Y-124457750I0J-218750D01*
G01*
X75469000Y-124970250D01*
G75*
G02*
X75250250Y-125189000I-218750J0D01*
G01*
X74812750Y-125189000D01*
G75*
G02*
X74594000Y-124970250I0J218750D01*
G01*
G37*
%TD*%
%TO.C,R9*%
G36*
G01*
X72942000Y-124989000D02*
X72942000Y-124439000D01*
G75*
G02*
X73142000Y-124239000I200000J0D01*
G01*
X73542000Y-124239000D01*
G75*
G02*
X73742000Y-124439000I0J-200000D01*
G01*
X73742000Y-124989000D01*
G75*
G02*
X73542000Y-125189000I-200000J0D01*
G01*
X73142000Y-125189000D01*
G75*
G02*
X72942000Y-124989000I0J200000D01*
G01*
G37*
G36*
G01*
X71292000Y-124989000D02*
X71292000Y-124439000D01*
G75*
G02*
X71492000Y-124239000I200000J0D01*
G01*
X71892000Y-124239000D01*
G75*
G02*
X72092000Y-124439000I0J-200000D01*
G01*
X72092000Y-124989000D01*
G75*
G02*
X71892000Y-125189000I-200000J0D01*
G01*
X71492000Y-125189000D01*
G75*
G02*
X71292000Y-124989000I0J200000D01*
G01*
G37*
%TD*%
D23*
%TO.C,D4*%
X58928000Y-117603000D03*
X58928000Y-120903000D03*
%TD*%
%TO.C,C10*%
G36*
G01*
X40947033Y-122072587D02*
X41300587Y-121719033D01*
G75*
G02*
X41618785Y-121719033I159099J-159099D01*
G01*
X41936983Y-122037231D01*
G75*
G02*
X41936983Y-122355429I-159099J-159099D01*
G01*
X41583429Y-122708983D01*
G75*
G02*
X41265231Y-122708983I-159099J159099D01*
G01*
X40947033Y-122390785D01*
G75*
G02*
X40947033Y-122072587I159099J159099D01*
G01*
G37*
G36*
G01*
X39851017Y-120976571D02*
X40204571Y-120623017D01*
G75*
G02*
X40522769Y-120623017I159099J-159099D01*
G01*
X40840967Y-120941215D01*
G75*
G02*
X40840967Y-121259413I-159099J-159099D01*
G01*
X40487413Y-121612967D01*
G75*
G02*
X40169215Y-121612967I-159099J159099D01*
G01*
X39851017Y-121294769D01*
G75*
G02*
X39851017Y-120976571I159099J159099D01*
G01*
G37*
%TD*%
%TO.C,C21*%
G36*
G01*
X84018000Y-126234000D02*
X84018000Y-125734000D01*
G75*
G02*
X84243000Y-125509000I225000J0D01*
G01*
X84693000Y-125509000D01*
G75*
G02*
X84918000Y-125734000I0J-225000D01*
G01*
X84918000Y-126234000D01*
G75*
G02*
X84693000Y-126459000I-225000J0D01*
G01*
X84243000Y-126459000D01*
G75*
G02*
X84018000Y-126234000I0J225000D01*
G01*
G37*
G36*
G01*
X82468000Y-126234000D02*
X82468000Y-125734000D01*
G75*
G02*
X82693000Y-125509000I225000J0D01*
G01*
X83143000Y-125509000D01*
G75*
G02*
X83368000Y-125734000I0J-225000D01*
G01*
X83368000Y-126234000D01*
G75*
G02*
X83143000Y-126459000I-225000J0D01*
G01*
X82693000Y-126459000D01*
G75*
G02*
X82468000Y-126234000I0J225000D01*
G01*
G37*
%TD*%
%TO.C,R7*%
G36*
G01*
X87928000Y-126259000D02*
X87928000Y-125709000D01*
G75*
G02*
X88128000Y-125509000I200000J0D01*
G01*
X88528000Y-125509000D01*
G75*
G02*
X88728000Y-125709000I0J-200000D01*
G01*
X88728000Y-126259000D01*
G75*
G02*
X88528000Y-126459000I-200000J0D01*
G01*
X88128000Y-126459000D01*
G75*
G02*
X87928000Y-126259000I0J200000D01*
G01*
G37*
G36*
G01*
X86278000Y-126259000D02*
X86278000Y-125709000D01*
G75*
G02*
X86478000Y-125509000I200000J0D01*
G01*
X86878000Y-125509000D01*
G75*
G02*
X87078000Y-125709000I0J-200000D01*
G01*
X87078000Y-126259000D01*
G75*
G02*
X86878000Y-126459000I-200000J0D01*
G01*
X86478000Y-126459000D01*
G75*
G02*
X86278000Y-126259000I0J200000D01*
G01*
G37*
%TD*%
%TO.C,C15*%
G36*
G01*
X91817000Y-117448750D02*
X91317000Y-117448750D01*
G75*
G02*
X91092000Y-117223750I0J225000D01*
G01*
X91092000Y-116773750D01*
G75*
G02*
X91317000Y-116548750I225000J0D01*
G01*
X91817000Y-116548750D01*
G75*
G02*
X92042000Y-116773750I0J-225000D01*
G01*
X92042000Y-117223750D01*
G75*
G02*
X91817000Y-117448750I-225000J0D01*
G01*
G37*
G36*
G01*
X91817000Y-118998750D02*
X91317000Y-118998750D01*
G75*
G02*
X91092000Y-118773750I0J225000D01*
G01*
X91092000Y-118323750D01*
G75*
G02*
X91317000Y-118098750I225000J0D01*
G01*
X91817000Y-118098750D01*
G75*
G02*
X92042000Y-118323750I0J-225000D01*
G01*
X92042000Y-118773750D01*
G75*
G02*
X91817000Y-118998750I-225000J0D01*
G01*
G37*
%TD*%
%TO.C,J1*%
G36*
G01*
X55570000Y-103696000D02*
X55570000Y-102446000D01*
G75*
G02*
X55795000Y-102221000I225000J0D01*
G01*
X56245000Y-102221000D01*
G75*
G02*
X56470000Y-102446000I0J-225000D01*
G01*
X56470000Y-103696000D01*
G75*
G02*
X56245000Y-103921000I-225000J0D01*
G01*
X55795000Y-103921000D01*
G75*
G02*
X55570000Y-103696000I0J225000D01*
G01*
G37*
G36*
G01*
X47670000Y-103696000D02*
X47670000Y-102446000D01*
G75*
G02*
X47895000Y-102221000I225000J0D01*
G01*
X48345000Y-102221000D01*
G75*
G02*
X48570000Y-102446000I0J-225000D01*
G01*
X48570000Y-103696000D01*
G75*
G02*
X48345000Y-103921000I-225000J0D01*
G01*
X47895000Y-103921000D01*
G75*
G02*
X47670000Y-103696000I0J225000D01*
G01*
G37*
G36*
G01*
X54270000Y-106671000D02*
X54270000Y-105721000D01*
G75*
G02*
X54420000Y-105571000I150000J0D01*
G01*
X54720000Y-105571000D01*
G75*
G02*
X54870000Y-105721000I0J-150000D01*
G01*
X54870000Y-106671000D01*
G75*
G02*
X54720000Y-106821000I-150000J0D01*
G01*
X54420000Y-106821000D01*
G75*
G02*
X54270000Y-106671000I0J150000D01*
G01*
G37*
G36*
G01*
X53270000Y-106671000D02*
X53270000Y-105721000D01*
G75*
G02*
X53420000Y-105571000I150000J0D01*
G01*
X53720000Y-105571000D01*
G75*
G02*
X53870000Y-105721000I0J-150000D01*
G01*
X53870000Y-106671000D01*
G75*
G02*
X53720000Y-106821000I-150000J0D01*
G01*
X53420000Y-106821000D01*
G75*
G02*
X53270000Y-106671000I0J150000D01*
G01*
G37*
G36*
G01*
X52270000Y-106671000D02*
X52270000Y-105721000D01*
G75*
G02*
X52420000Y-105571000I150000J0D01*
G01*
X52720000Y-105571000D01*
G75*
G02*
X52870000Y-105721000I0J-150000D01*
G01*
X52870000Y-106671000D01*
G75*
G02*
X52720000Y-106821000I-150000J0D01*
G01*
X52420000Y-106821000D01*
G75*
G02*
X52270000Y-106671000I0J150000D01*
G01*
G37*
G36*
G01*
X51270000Y-106671000D02*
X51270000Y-105721000D01*
G75*
G02*
X51420000Y-105571000I150000J0D01*
G01*
X51720000Y-105571000D01*
G75*
G02*
X51870000Y-105721000I0J-150000D01*
G01*
X51870000Y-106671000D01*
G75*
G02*
X51720000Y-106821000I-150000J0D01*
G01*
X51420000Y-106821000D01*
G75*
G02*
X51270000Y-106671000I0J150000D01*
G01*
G37*
G36*
G01*
X50270000Y-106671000D02*
X50270000Y-105721000D01*
G75*
G02*
X50420000Y-105571000I150000J0D01*
G01*
X50720000Y-105571000D01*
G75*
G02*
X50870000Y-105721000I0J-150000D01*
G01*
X50870000Y-106671000D01*
G75*
G02*
X50720000Y-106821000I-150000J0D01*
G01*
X50420000Y-106821000D01*
G75*
G02*
X50270000Y-106671000I0J150000D01*
G01*
G37*
G36*
G01*
X49270000Y-106671000D02*
X49270000Y-105721000D01*
G75*
G02*
X49420000Y-105571000I150000J0D01*
G01*
X49720000Y-105571000D01*
G75*
G02*
X49870000Y-105721000I0J-150000D01*
G01*
X49870000Y-106671000D01*
G75*
G02*
X49720000Y-106821000I-150000J0D01*
G01*
X49420000Y-106821000D01*
G75*
G02*
X49270000Y-106671000I0J150000D01*
G01*
G37*
%TD*%
%TO.C,C12*%
G36*
G01*
X92862587Y-121612967D02*
X92509033Y-121259413D01*
G75*
G02*
X92509033Y-120941215I159099J159099D01*
G01*
X92827231Y-120623017D01*
G75*
G02*
X93145429Y-120623017I159099J-159099D01*
G01*
X93498983Y-120976571D01*
G75*
G02*
X93498983Y-121294769I-159099J-159099D01*
G01*
X93180785Y-121612967D01*
G75*
G02*
X92862587Y-121612967I-159099J159099D01*
G01*
G37*
G36*
G01*
X91766571Y-122708983D02*
X91413017Y-122355429D01*
G75*
G02*
X91413017Y-122037231I159099J159099D01*
G01*
X91731215Y-121719033D01*
G75*
G02*
X92049413Y-121719033I159099J-159099D01*
G01*
X92402967Y-122072587D01*
G75*
G02*
X92402967Y-122390785I-159099J-159099D01*
G01*
X92084769Y-122708983D01*
G75*
G02*
X91766571Y-122708983I-159099J159099D01*
G01*
G37*
%TD*%
%TO.C,D8*%
X93662500Y-135668750D03*
X93662500Y-138968750D03*
%TD*%
%TO.C,D11*%
G36*
G01*
X49507000Y-141944999D02*
X50943000Y-141944999D01*
G75*
G02*
X51025000Y-142026999I0J-82000D01*
G01*
X51025000Y-142682999D01*
G75*
G02*
X50943000Y-142764999I-82000J0D01*
G01*
X49507000Y-142764999D01*
G75*
G02*
X49425000Y-142682999I0J82000D01*
G01*
X49425000Y-142026999D01*
G75*
G02*
X49507000Y-141944999I82000J0D01*
G01*
G37*
G36*
G01*
X49507000Y-140444999D02*
X50943000Y-140444999D01*
G75*
G02*
X51025000Y-140526999I0J-82000D01*
G01*
X51025000Y-141182999D01*
G75*
G02*
X50943000Y-141264999I-82000J0D01*
G01*
X49507000Y-141264999D01*
G75*
G02*
X49425000Y-141182999I0J82000D01*
G01*
X49425000Y-140526999D01*
G75*
G02*
X49507000Y-140444999I82000J0D01*
G01*
G37*
G36*
G01*
X44307000Y-141944999D02*
X45743000Y-141944999D01*
G75*
G02*
X45825000Y-142026999I0J-82000D01*
G01*
X45825000Y-142682999D01*
G75*
G02*
X45743000Y-142764999I-82000J0D01*
G01*
X44307000Y-142764999D01*
G75*
G02*
X44225000Y-142682999I0J82000D01*
G01*
X44225000Y-142026999D01*
G75*
G02*
X44307000Y-141944999I82000J0D01*
G01*
G37*
G36*
G01*
X44307000Y-140444999D02*
X45743000Y-140444999D01*
G75*
G02*
X45825000Y-140526999I0J-82000D01*
G01*
X45825000Y-141182999D01*
G75*
G02*
X45743000Y-141264999I-82000J0D01*
G01*
X44307000Y-141264999D01*
G75*
G02*
X44225000Y-141182999I0J82000D01*
G01*
X44225000Y-140526999D01*
G75*
G02*
X44307000Y-140444999I82000J0D01*
G01*
G37*
%TD*%
%TO.C,F1*%
G36*
G01*
X59384250Y-110421000D02*
X58471750Y-110421000D01*
G75*
G02*
X58228000Y-110177250I0J243750D01*
G01*
X58228000Y-109689750D01*
G75*
G02*
X58471750Y-109446000I243750J0D01*
G01*
X59384250Y-109446000D01*
G75*
G02*
X59628000Y-109689750I0J-243750D01*
G01*
X59628000Y-110177250D01*
G75*
G02*
X59384250Y-110421000I-243750J0D01*
G01*
G37*
G36*
G01*
X59384250Y-112296000D02*
X58471750Y-112296000D01*
G75*
G02*
X58228000Y-112052250I0J243750D01*
G01*
X58228000Y-111564750D01*
G75*
G02*
X58471750Y-111321000I243750J0D01*
G01*
X59384250Y-111321000D01*
G75*
G02*
X59628000Y-111564750I0J-243750D01*
G01*
X59628000Y-112052250D01*
G75*
G02*
X59384250Y-112296000I-243750J0D01*
G01*
G37*
%TD*%
D24*
%TO.C,D14*%
X67775000Y-112710000D03*
X67775000Y-110810000D03*
X65575000Y-110810000D03*
D25*
X65575000Y-112530000D03*
%TD*%
D26*
%TO.C,USB1*%
X69900000Y-106469250D03*
X63450000Y-106469250D03*
X69125000Y-106469250D03*
X64225000Y-106469250D03*
D27*
X64925000Y-106469250D03*
X68425000Y-106469250D03*
X65425000Y-106469250D03*
X67925000Y-106469250D03*
X65925000Y-106469250D03*
X67425000Y-106469250D03*
X66925000Y-106469250D03*
X66425000Y-106469250D03*
D28*
X69565000Y-105024250D03*
X63785000Y-105024250D03*
D29*
X62355000Y-105554250D03*
X70995000Y-105554250D03*
D30*
X62355000Y-101374250D03*
X70995000Y-101374250D03*
%TD*%
%TO.C,D15*%
G36*
G01*
X68557000Y-141944999D02*
X69993000Y-141944999D01*
G75*
G02*
X70075000Y-142026999I0J-82000D01*
G01*
X70075000Y-142682999D01*
G75*
G02*
X69993000Y-142764999I-82000J0D01*
G01*
X68557000Y-142764999D01*
G75*
G02*
X68475000Y-142682999I0J82000D01*
G01*
X68475000Y-142026999D01*
G75*
G02*
X68557000Y-141944999I82000J0D01*
G01*
G37*
G36*
G01*
X68557000Y-140444999D02*
X69993000Y-140444999D01*
G75*
G02*
X70075000Y-140526999I0J-82000D01*
G01*
X70075000Y-141182999D01*
G75*
G02*
X69993000Y-141264999I-82000J0D01*
G01*
X68557000Y-141264999D01*
G75*
G02*
X68475000Y-141182999I0J82000D01*
G01*
X68475000Y-140526999D01*
G75*
G02*
X68557000Y-140444999I82000J0D01*
G01*
G37*
G36*
G01*
X63357000Y-141944999D02*
X64793000Y-141944999D01*
G75*
G02*
X64875000Y-142026999I0J-82000D01*
G01*
X64875000Y-142682999D01*
G75*
G02*
X64793000Y-142764999I-82000J0D01*
G01*
X63357000Y-142764999D01*
G75*
G02*
X63275000Y-142682999I0J82000D01*
G01*
X63275000Y-142026999D01*
G75*
G02*
X63357000Y-141944999I82000J0D01*
G01*
G37*
G36*
G01*
X63357000Y-140444999D02*
X64793000Y-140444999D01*
G75*
G02*
X64875000Y-140526999I0J-82000D01*
G01*
X64875000Y-141182999D01*
G75*
G02*
X64793000Y-141264999I-82000J0D01*
G01*
X63357000Y-141264999D01*
G75*
G02*
X63275000Y-141182999I0J82000D01*
G01*
X63275000Y-140526999D01*
G75*
G02*
X63357000Y-140444999I82000J0D01*
G01*
G37*
%TD*%
%TO.C,C7*%
G36*
G01*
X80268000Y-141930000D02*
X80768000Y-141930000D01*
G75*
G02*
X80993000Y-142155000I0J-225000D01*
G01*
X80993000Y-142605000D01*
G75*
G02*
X80768000Y-142830000I-225000J0D01*
G01*
X80268000Y-142830000D01*
G75*
G02*
X80043000Y-142605000I0J225000D01*
G01*
X80043000Y-142155000D01*
G75*
G02*
X80268000Y-141930000I225000J0D01*
G01*
G37*
G36*
G01*
X80268000Y-140380000D02*
X80768000Y-140380000D01*
G75*
G02*
X80993000Y-140605000I0J-225000D01*
G01*
X80993000Y-141055000D01*
G75*
G02*
X80768000Y-141280000I-225000J0D01*
G01*
X80268000Y-141280000D01*
G75*
G02*
X80043000Y-141055000I0J225000D01*
G01*
X80043000Y-140605000D01*
G75*
G02*
X80268000Y-140380000I225000J0D01*
G01*
G37*
%TD*%
%TO.C,C4*%
G36*
G01*
X61218000Y-141930000D02*
X61718000Y-141930000D01*
G75*
G02*
X61943000Y-142155000I0J-225000D01*
G01*
X61943000Y-142605000D01*
G75*
G02*
X61718000Y-142830000I-225000J0D01*
G01*
X61218000Y-142830000D01*
G75*
G02*
X60993000Y-142605000I0J225000D01*
G01*
X60993000Y-142155000D01*
G75*
G02*
X61218000Y-141930000I225000J0D01*
G01*
G37*
G36*
G01*
X61218000Y-140380000D02*
X61718000Y-140380000D01*
G75*
G02*
X61943000Y-140605000I0J-225000D01*
G01*
X61943000Y-141055000D01*
G75*
G02*
X61718000Y-141280000I-225000J0D01*
G01*
X61218000Y-141280000D01*
G75*
G02*
X60993000Y-141055000I0J225000D01*
G01*
X60993000Y-140605000D01*
G75*
G02*
X61218000Y-140380000I225000J0D01*
G01*
G37*
%TD*%
%TO.C,C1*%
G36*
G01*
X42168000Y-141930000D02*
X42668000Y-141930000D01*
G75*
G02*
X42893000Y-142155000I0J-225000D01*
G01*
X42893000Y-142605000D01*
G75*
G02*
X42668000Y-142830000I-225000J0D01*
G01*
X42168000Y-142830000D01*
G75*
G02*
X41943000Y-142605000I0J225000D01*
G01*
X41943000Y-142155000D01*
G75*
G02*
X42168000Y-141930000I225000J0D01*
G01*
G37*
G36*
G01*
X42168000Y-140380000D02*
X42668000Y-140380000D01*
G75*
G02*
X42893000Y-140605000I0J-225000D01*
G01*
X42893000Y-141055000D01*
G75*
G02*
X42668000Y-141280000I-225000J0D01*
G01*
X42168000Y-141280000D01*
G75*
G02*
X41943000Y-141055000I0J225000D01*
G01*
X41943000Y-140605000D01*
G75*
G02*
X42168000Y-140380000I225000J0D01*
G01*
G37*
%TD*%
%TO.C,D19*%
G36*
G01*
X87607000Y-160994999D02*
X89043000Y-160994999D01*
G75*
G02*
X89125000Y-161076999I0J-82000D01*
G01*
X89125000Y-161732999D01*
G75*
G02*
X89043000Y-161814999I-82000J0D01*
G01*
X87607000Y-161814999D01*
G75*
G02*
X87525000Y-161732999I0J82000D01*
G01*
X87525000Y-161076999D01*
G75*
G02*
X87607000Y-160994999I82000J0D01*
G01*
G37*
G36*
G01*
X87607000Y-159494999D02*
X89043000Y-159494999D01*
G75*
G02*
X89125000Y-159576999I0J-82000D01*
G01*
X89125000Y-160232999D01*
G75*
G02*
X89043000Y-160314999I-82000J0D01*
G01*
X87607000Y-160314999D01*
G75*
G02*
X87525000Y-160232999I0J82000D01*
G01*
X87525000Y-159576999D01*
G75*
G02*
X87607000Y-159494999I82000J0D01*
G01*
G37*
G36*
G01*
X82407000Y-160994999D02*
X83843000Y-160994999D01*
G75*
G02*
X83925000Y-161076999I0J-82000D01*
G01*
X83925000Y-161732999D01*
G75*
G02*
X83843000Y-161814999I-82000J0D01*
G01*
X82407000Y-161814999D01*
G75*
G02*
X82325000Y-161732999I0J82000D01*
G01*
X82325000Y-161076999D01*
G75*
G02*
X82407000Y-160994999I82000J0D01*
G01*
G37*
G36*
G01*
X82407000Y-159494999D02*
X83843000Y-159494999D01*
G75*
G02*
X83925000Y-159576999I0J-82000D01*
G01*
X83925000Y-160232999D01*
G75*
G02*
X83843000Y-160314999I-82000J0D01*
G01*
X82407000Y-160314999D01*
G75*
G02*
X82325000Y-160232999I0J82000D01*
G01*
X82325000Y-159576999D01*
G75*
G02*
X82407000Y-159494999I82000J0D01*
G01*
G37*
%TD*%
%TO.C,D16*%
G36*
G01*
X68557000Y-160994999D02*
X69993000Y-160994999D01*
G75*
G02*
X70075000Y-161076999I0J-82000D01*
G01*
X70075000Y-161732999D01*
G75*
G02*
X69993000Y-161814999I-82000J0D01*
G01*
X68557000Y-161814999D01*
G75*
G02*
X68475000Y-161732999I0J82000D01*
G01*
X68475000Y-161076999D01*
G75*
G02*
X68557000Y-160994999I82000J0D01*
G01*
G37*
G36*
G01*
X68557000Y-159494999D02*
X69993000Y-159494999D01*
G75*
G02*
X70075000Y-159576999I0J-82000D01*
G01*
X70075000Y-160232999D01*
G75*
G02*
X69993000Y-160314999I-82000J0D01*
G01*
X68557000Y-160314999D01*
G75*
G02*
X68475000Y-160232999I0J82000D01*
G01*
X68475000Y-159576999D01*
G75*
G02*
X68557000Y-159494999I82000J0D01*
G01*
G37*
G36*
G01*
X63357000Y-160994999D02*
X64793000Y-160994999D01*
G75*
G02*
X64875000Y-161076999I0J-82000D01*
G01*
X64875000Y-161732999D01*
G75*
G02*
X64793000Y-161814999I-82000J0D01*
G01*
X63357000Y-161814999D01*
G75*
G02*
X63275000Y-161732999I0J82000D01*
G01*
X63275000Y-161076999D01*
G75*
G02*
X63357000Y-160994999I82000J0D01*
G01*
G37*
G36*
G01*
X63357000Y-159494999D02*
X64793000Y-159494999D01*
G75*
G02*
X64875000Y-159576999I0J-82000D01*
G01*
X64875000Y-160232999D01*
G75*
G02*
X64793000Y-160314999I-82000J0D01*
G01*
X63357000Y-160314999D01*
G75*
G02*
X63275000Y-160232999I0J82000D01*
G01*
X63275000Y-159576999D01*
G75*
G02*
X63357000Y-159494999I82000J0D01*
G01*
G37*
%TD*%
%TO.C,D12*%
G36*
G01*
X49507000Y-160994999D02*
X50943000Y-160994999D01*
G75*
G02*
X51025000Y-161076999I0J-82000D01*
G01*
X51025000Y-161732999D01*
G75*
G02*
X50943000Y-161814999I-82000J0D01*
G01*
X49507000Y-161814999D01*
G75*
G02*
X49425000Y-161732999I0J82000D01*
G01*
X49425000Y-161076999D01*
G75*
G02*
X49507000Y-160994999I82000J0D01*
G01*
G37*
G36*
G01*
X49507000Y-159494999D02*
X50943000Y-159494999D01*
G75*
G02*
X51025000Y-159576999I0J-82000D01*
G01*
X51025000Y-160232999D01*
G75*
G02*
X50943000Y-160314999I-82000J0D01*
G01*
X49507000Y-160314999D01*
G75*
G02*
X49425000Y-160232999I0J82000D01*
G01*
X49425000Y-159576999D01*
G75*
G02*
X49507000Y-159494999I82000J0D01*
G01*
G37*
G36*
G01*
X44307000Y-160994999D02*
X45743000Y-160994999D01*
G75*
G02*
X45825000Y-161076999I0J-82000D01*
G01*
X45825000Y-161732999D01*
G75*
G02*
X45743000Y-161814999I-82000J0D01*
G01*
X44307000Y-161814999D01*
G75*
G02*
X44225000Y-161732999I0J82000D01*
G01*
X44225000Y-161076999D01*
G75*
G02*
X44307000Y-160994999I82000J0D01*
G01*
G37*
G36*
G01*
X44307000Y-159494999D02*
X45743000Y-159494999D01*
G75*
G02*
X45825000Y-159576999I0J-82000D01*
G01*
X45825000Y-160232999D01*
G75*
G02*
X45743000Y-160314999I-82000J0D01*
G01*
X44307000Y-160314999D01*
G75*
G02*
X44225000Y-160232999I0J82000D01*
G01*
X44225000Y-159576999D01*
G75*
G02*
X44307000Y-159494999I82000J0D01*
G01*
G37*
%TD*%
D23*
%TO.C,D3*%
X55562500Y-173768750D03*
X55562500Y-177068750D03*
%TD*%
D12*
%TO.C,Y1*%
G36*
X93561320Y-110755630D02*
G01*
X92712792Y-111604158D01*
X91722842Y-110614208D01*
X92571370Y-109765680D01*
X93561320Y-110755630D01*
G37*
G36*
X92005685Y-109199995D02*
G01*
X91157157Y-110048523D01*
X90167207Y-109058573D01*
X91015735Y-108210045D01*
X92005685Y-109199995D01*
G37*
G36*
X90803604Y-110402076D02*
G01*
X89955076Y-111250604D01*
X88965126Y-110260654D01*
X89813654Y-109412126D01*
X90803604Y-110402076D01*
G37*
G36*
X92359239Y-111957711D02*
G01*
X91510711Y-112806239D01*
X90520761Y-111816289D01*
X91369289Y-110967761D01*
X92359239Y-111957711D01*
G37*
%TD*%
%TO.C,R8*%
G36*
G01*
X76371000Y-121687000D02*
X76371000Y-121137000D01*
G75*
G02*
X76571000Y-120937000I200000J0D01*
G01*
X76971000Y-120937000D01*
G75*
G02*
X77171000Y-121137000I0J-200000D01*
G01*
X77171000Y-121687000D01*
G75*
G02*
X76971000Y-121887000I-200000J0D01*
G01*
X76571000Y-121887000D01*
G75*
G02*
X76371000Y-121687000I0J200000D01*
G01*
G37*
G36*
G01*
X74721000Y-121687000D02*
X74721000Y-121137000D01*
G75*
G02*
X74921000Y-120937000I200000J0D01*
G01*
X75321000Y-120937000D01*
G75*
G02*
X75521000Y-121137000I0J-200000D01*
G01*
X75521000Y-121687000D01*
G75*
G02*
X75321000Y-121887000I-200000J0D01*
G01*
X74921000Y-121887000D01*
G75*
G02*
X74721000Y-121687000I0J200000D01*
G01*
G37*
%TD*%
%TO.C,R6*%
G36*
G01*
X65553000Y-115907000D02*
X65003000Y-115907000D01*
G75*
G02*
X64803000Y-115707000I0J200000D01*
G01*
X64803000Y-115307000D01*
G75*
G02*
X65003000Y-115107000I200000J0D01*
G01*
X65553000Y-115107000D01*
G75*
G02*
X65753000Y-115307000I0J-200000D01*
G01*
X65753000Y-115707000D01*
G75*
G02*
X65553000Y-115907000I-200000J0D01*
G01*
G37*
G36*
G01*
X65553000Y-117557000D02*
X65003000Y-117557000D01*
G75*
G02*
X64803000Y-117357000I0J200000D01*
G01*
X64803000Y-116957000D01*
G75*
G02*
X65003000Y-116757000I200000J0D01*
G01*
X65553000Y-116757000D01*
G75*
G02*
X65753000Y-116957000I0J-200000D01*
G01*
X65753000Y-117357000D01*
G75*
G02*
X65553000Y-117557000I-200000J0D01*
G01*
G37*
%TD*%
%TO.C,R5*%
G36*
G01*
X68347000Y-115907000D02*
X67797000Y-115907000D01*
G75*
G02*
X67597000Y-115707000I0J200000D01*
G01*
X67597000Y-115307000D01*
G75*
G02*
X67797000Y-115107000I200000J0D01*
G01*
X68347000Y-115107000D01*
G75*
G02*
X68547000Y-115307000I0J-200000D01*
G01*
X68547000Y-115707000D01*
G75*
G02*
X68347000Y-115907000I-200000J0D01*
G01*
G37*
G36*
G01*
X68347000Y-117557000D02*
X67797000Y-117557000D01*
G75*
G02*
X67597000Y-117357000I0J200000D01*
G01*
X67597000Y-116957000D01*
G75*
G02*
X67797000Y-116757000I200000J0D01*
G01*
X68347000Y-116757000D01*
G75*
G02*
X68547000Y-116957000I0J-200000D01*
G01*
X68547000Y-117357000D01*
G75*
G02*
X68347000Y-117557000I-200000J0D01*
G01*
G37*
%TD*%
%TO.C,R4*%
G36*
G01*
X82594000Y-107844000D02*
X82594000Y-107294000D01*
G75*
G02*
X82794000Y-107094000I200000J0D01*
G01*
X83194000Y-107094000D01*
G75*
G02*
X83394000Y-107294000I0J-200000D01*
G01*
X83394000Y-107844000D01*
G75*
G02*
X83194000Y-108044000I-200000J0D01*
G01*
X82794000Y-108044000D01*
G75*
G02*
X82594000Y-107844000I0J200000D01*
G01*
G37*
G36*
G01*
X80944000Y-107844000D02*
X80944000Y-107294000D01*
G75*
G02*
X81144000Y-107094000I200000J0D01*
G01*
X81544000Y-107094000D01*
G75*
G02*
X81744000Y-107294000I0J-200000D01*
G01*
X81744000Y-107844000D01*
G75*
G02*
X81544000Y-108044000I-200000J0D01*
G01*
X81144000Y-108044000D01*
G75*
G02*
X80944000Y-107844000I0J200000D01*
G01*
G37*
%TD*%
%TO.C,R3*%
G36*
G01*
X82594000Y-101875000D02*
X82594000Y-101325000D01*
G75*
G02*
X82794000Y-101125000I200000J0D01*
G01*
X83194000Y-101125000D01*
G75*
G02*
X83394000Y-101325000I0J-200000D01*
G01*
X83394000Y-101875000D01*
G75*
G02*
X83194000Y-102075000I-200000J0D01*
G01*
X82794000Y-102075000D01*
G75*
G02*
X82594000Y-101875000I0J200000D01*
G01*
G37*
G36*
G01*
X80944000Y-101875000D02*
X80944000Y-101325000D01*
G75*
G02*
X81144000Y-101125000I200000J0D01*
G01*
X81544000Y-101125000D01*
G75*
G02*
X81744000Y-101325000I0J-200000D01*
G01*
X81744000Y-101875000D01*
G75*
G02*
X81544000Y-102075000I-200000J0D01*
G01*
X81144000Y-102075000D01*
G75*
G02*
X80944000Y-101875000I0J200000D01*
G01*
G37*
%TD*%
%TO.C,R2*%
G36*
G01*
X70251000Y-110469000D02*
X70251000Y-111019000D01*
G75*
G02*
X70051000Y-111219000I-200000J0D01*
G01*
X69651000Y-111219000D01*
G75*
G02*
X69451000Y-111019000I0J200000D01*
G01*
X69451000Y-110469000D01*
G75*
G02*
X69651000Y-110269000I200000J0D01*
G01*
X70051000Y-110269000D01*
G75*
G02*
X70251000Y-110469000I0J-200000D01*
G01*
G37*
G36*
G01*
X71901000Y-110469000D02*
X71901000Y-111019000D01*
G75*
G02*
X71701000Y-111219000I-200000J0D01*
G01*
X71301000Y-111219000D01*
G75*
G02*
X71101000Y-111019000I0J200000D01*
G01*
X71101000Y-110469000D01*
G75*
G02*
X71301000Y-110269000I200000J0D01*
G01*
X71701000Y-110269000D01*
G75*
G02*
X71901000Y-110469000I0J-200000D01*
G01*
G37*
%TD*%
%TO.C,R1*%
G36*
G01*
X63099000Y-111019000D02*
X63099000Y-110469000D01*
G75*
G02*
X63299000Y-110269000I200000J0D01*
G01*
X63699000Y-110269000D01*
G75*
G02*
X63899000Y-110469000I0J-200000D01*
G01*
X63899000Y-111019000D01*
G75*
G02*
X63699000Y-111219000I-200000J0D01*
G01*
X63299000Y-111219000D01*
G75*
G02*
X63099000Y-111019000I0J200000D01*
G01*
G37*
G36*
G01*
X61449000Y-111019000D02*
X61449000Y-110469000D01*
G75*
G02*
X61649000Y-110269000I200000J0D01*
G01*
X62049000Y-110269000D01*
G75*
G02*
X62249000Y-110469000I0J-200000D01*
G01*
X62249000Y-111019000D01*
G75*
G02*
X62049000Y-111219000I-200000J0D01*
G01*
X61649000Y-111219000D01*
G75*
G02*
X61449000Y-111019000I0J200000D01*
G01*
G37*
%TD*%
%TO.C,FB2*%
G36*
G01*
X59384250Y-114231000D02*
X58471750Y-114231000D01*
G75*
G02*
X58228000Y-113987250I0J243750D01*
G01*
X58228000Y-113499750D01*
G75*
G02*
X58471750Y-113256000I243750J0D01*
G01*
X59384250Y-113256000D01*
G75*
G02*
X59628000Y-113499750I0J-243750D01*
G01*
X59628000Y-113987250D01*
G75*
G02*
X59384250Y-114231000I-243750J0D01*
G01*
G37*
G36*
G01*
X59384250Y-116106000D02*
X58471750Y-116106000D01*
G75*
G02*
X58228000Y-115862250I0J243750D01*
G01*
X58228000Y-115374750D01*
G75*
G02*
X58471750Y-115131000I243750J0D01*
G01*
X59384250Y-115131000D01*
G75*
G02*
X59628000Y-115374750I0J-243750D01*
G01*
X59628000Y-115862250D01*
G75*
G02*
X59384250Y-116106000I-243750J0D01*
G01*
G37*
%TD*%
%TO.C,FB1*%
G36*
G01*
X63024000Y-112651250D02*
X63024000Y-112138750D01*
G75*
G02*
X63242750Y-111920000I218750J0D01*
G01*
X63680250Y-111920000D01*
G75*
G02*
X63899000Y-112138750I0J-218750D01*
G01*
X63899000Y-112651250D01*
G75*
G02*
X63680250Y-112870000I-218750J0D01*
G01*
X63242750Y-112870000D01*
G75*
G02*
X63024000Y-112651250I0J218750D01*
G01*
G37*
G36*
G01*
X61449000Y-112651250D02*
X61449000Y-112138750D01*
G75*
G02*
X61667750Y-111920000I218750J0D01*
G01*
X62105250Y-111920000D01*
G75*
G02*
X62324000Y-112138750I0J-218750D01*
G01*
X62324000Y-112651250D01*
G75*
G02*
X62105250Y-112870000I-218750J0D01*
G01*
X61667750Y-112870000D01*
G75*
G02*
X61449000Y-112651250I0J218750D01*
G01*
G37*
%TD*%
%TO.C,D20*%
G36*
G01*
X87607000Y-180044999D02*
X89043000Y-180044999D01*
G75*
G02*
X89125000Y-180126999I0J-82000D01*
G01*
X89125000Y-180782999D01*
G75*
G02*
X89043000Y-180864999I-82000J0D01*
G01*
X87607000Y-180864999D01*
G75*
G02*
X87525000Y-180782999I0J82000D01*
G01*
X87525000Y-180126999D01*
G75*
G02*
X87607000Y-180044999I82000J0D01*
G01*
G37*
G36*
G01*
X87607000Y-178544999D02*
X89043000Y-178544999D01*
G75*
G02*
X89125000Y-178626999I0J-82000D01*
G01*
X89125000Y-179282999D01*
G75*
G02*
X89043000Y-179364999I-82000J0D01*
G01*
X87607000Y-179364999D01*
G75*
G02*
X87525000Y-179282999I0J82000D01*
G01*
X87525000Y-178626999D01*
G75*
G02*
X87607000Y-178544999I82000J0D01*
G01*
G37*
G36*
G01*
X82407000Y-180044999D02*
X83843000Y-180044999D01*
G75*
G02*
X83925000Y-180126999I0J-82000D01*
G01*
X83925000Y-180782999D01*
G75*
G02*
X83843000Y-180864999I-82000J0D01*
G01*
X82407000Y-180864999D01*
G75*
G02*
X82325000Y-180782999I0J82000D01*
G01*
X82325000Y-180126999D01*
G75*
G02*
X82407000Y-180044999I82000J0D01*
G01*
G37*
G36*
G01*
X82407000Y-178544999D02*
X83843000Y-178544999D01*
G75*
G02*
X83925000Y-178626999I0J-82000D01*
G01*
X83925000Y-179282999D01*
G75*
G02*
X83843000Y-179364999I-82000J0D01*
G01*
X82407000Y-179364999D01*
G75*
G02*
X82325000Y-179282999I0J82000D01*
G01*
X82325000Y-178626999D01*
G75*
G02*
X82407000Y-178544999I82000J0D01*
G01*
G37*
%TD*%
%TO.C,D18*%
G36*
G01*
X87607000Y-141944999D02*
X89043000Y-141944999D01*
G75*
G02*
X89125000Y-142026999I0J-82000D01*
G01*
X89125000Y-142682999D01*
G75*
G02*
X89043000Y-142764999I-82000J0D01*
G01*
X87607000Y-142764999D01*
G75*
G02*
X87525000Y-142682999I0J82000D01*
G01*
X87525000Y-142026999D01*
G75*
G02*
X87607000Y-141944999I82000J0D01*
G01*
G37*
G36*
G01*
X87607000Y-140444999D02*
X89043000Y-140444999D01*
G75*
G02*
X89125000Y-140526999I0J-82000D01*
G01*
X89125000Y-141182999D01*
G75*
G02*
X89043000Y-141264999I-82000J0D01*
G01*
X87607000Y-141264999D01*
G75*
G02*
X87525000Y-141182999I0J82000D01*
G01*
X87525000Y-140526999D01*
G75*
G02*
X87607000Y-140444999I82000J0D01*
G01*
G37*
G36*
G01*
X82407000Y-141944999D02*
X83843000Y-141944999D01*
G75*
G02*
X83925000Y-142026999I0J-82000D01*
G01*
X83925000Y-142682999D01*
G75*
G02*
X83843000Y-142764999I-82000J0D01*
G01*
X82407000Y-142764999D01*
G75*
G02*
X82325000Y-142682999I0J82000D01*
G01*
X82325000Y-142026999D01*
G75*
G02*
X82407000Y-141944999I82000J0D01*
G01*
G37*
G36*
G01*
X82407000Y-140444999D02*
X83843000Y-140444999D01*
G75*
G02*
X83925000Y-140526999I0J-82000D01*
G01*
X83925000Y-141182999D01*
G75*
G02*
X83843000Y-141264999I-82000J0D01*
G01*
X82407000Y-141264999D01*
G75*
G02*
X82325000Y-141182999I0J82000D01*
G01*
X82325000Y-140526999D01*
G75*
G02*
X82407000Y-140444999I82000J0D01*
G01*
G37*
%TD*%
%TO.C,D17*%
G36*
G01*
X68557000Y-180044999D02*
X69993000Y-180044999D01*
G75*
G02*
X70075000Y-180126999I0J-82000D01*
G01*
X70075000Y-180782999D01*
G75*
G02*
X69993000Y-180864999I-82000J0D01*
G01*
X68557000Y-180864999D01*
G75*
G02*
X68475000Y-180782999I0J82000D01*
G01*
X68475000Y-180126999D01*
G75*
G02*
X68557000Y-180044999I82000J0D01*
G01*
G37*
G36*
G01*
X68557000Y-178544999D02*
X69993000Y-178544999D01*
G75*
G02*
X70075000Y-178626999I0J-82000D01*
G01*
X70075000Y-179282999D01*
G75*
G02*
X69993000Y-179364999I-82000J0D01*
G01*
X68557000Y-179364999D01*
G75*
G02*
X68475000Y-179282999I0J82000D01*
G01*
X68475000Y-178626999D01*
G75*
G02*
X68557000Y-178544999I82000J0D01*
G01*
G37*
G36*
G01*
X63357000Y-180044999D02*
X64793000Y-180044999D01*
G75*
G02*
X64875000Y-180126999I0J-82000D01*
G01*
X64875000Y-180782999D01*
G75*
G02*
X64793000Y-180864999I-82000J0D01*
G01*
X63357000Y-180864999D01*
G75*
G02*
X63275000Y-180782999I0J82000D01*
G01*
X63275000Y-180126999D01*
G75*
G02*
X63357000Y-180044999I82000J0D01*
G01*
G37*
G36*
G01*
X63357000Y-178544999D02*
X64793000Y-178544999D01*
G75*
G02*
X64875000Y-178626999I0J-82000D01*
G01*
X64875000Y-179282999D01*
G75*
G02*
X64793000Y-179364999I-82000J0D01*
G01*
X63357000Y-179364999D01*
G75*
G02*
X63275000Y-179282999I0J82000D01*
G01*
X63275000Y-178626999D01*
G75*
G02*
X63357000Y-178544999I82000J0D01*
G01*
G37*
%TD*%
%TO.C,D13*%
G36*
G01*
X49507000Y-180044999D02*
X50943000Y-180044999D01*
G75*
G02*
X51025000Y-180126999I0J-82000D01*
G01*
X51025000Y-180782999D01*
G75*
G02*
X50943000Y-180864999I-82000J0D01*
G01*
X49507000Y-180864999D01*
G75*
G02*
X49425000Y-180782999I0J82000D01*
G01*
X49425000Y-180126999D01*
G75*
G02*
X49507000Y-180044999I82000J0D01*
G01*
G37*
G36*
G01*
X49507000Y-178544999D02*
X50943000Y-178544999D01*
G75*
G02*
X51025000Y-178626999I0J-82000D01*
G01*
X51025000Y-179282999D01*
G75*
G02*
X50943000Y-179364999I-82000J0D01*
G01*
X49507000Y-179364999D01*
G75*
G02*
X49425000Y-179282999I0J82000D01*
G01*
X49425000Y-178626999D01*
G75*
G02*
X49507000Y-178544999I82000J0D01*
G01*
G37*
G36*
G01*
X44307000Y-180044999D02*
X45743000Y-180044999D01*
G75*
G02*
X45825000Y-180126999I0J-82000D01*
G01*
X45825000Y-180782999D01*
G75*
G02*
X45743000Y-180864999I-82000J0D01*
G01*
X44307000Y-180864999D01*
G75*
G02*
X44225000Y-180782999I0J82000D01*
G01*
X44225000Y-180126999D01*
G75*
G02*
X44307000Y-180044999I82000J0D01*
G01*
G37*
G36*
G01*
X44307000Y-178544999D02*
X45743000Y-178544999D01*
G75*
G02*
X45825000Y-178626999I0J-82000D01*
G01*
X45825000Y-179282999D01*
G75*
G02*
X45743000Y-179364999I-82000J0D01*
G01*
X44307000Y-179364999D01*
G75*
G02*
X44225000Y-179282999I0J82000D01*
G01*
X44225000Y-178626999D01*
G75*
G02*
X44307000Y-178544999I82000J0D01*
G01*
G37*
%TD*%
D23*
%TO.C,D10*%
X93662500Y-173768750D03*
X93662500Y-177068750D03*
%TD*%
%TO.C,D9*%
X93662500Y-154718750D03*
X93662500Y-158018750D03*
%TD*%
%TO.C,D7*%
X74612500Y-173768750D03*
X74612500Y-177068750D03*
%TD*%
%TO.C,D6*%
X74612500Y-154718750D03*
X74612500Y-158018750D03*
%TD*%
%TO.C,D5*%
X74612500Y-135668750D03*
X74612500Y-138968750D03*
%TD*%
%TO.C,D2*%
X55562500Y-154718750D03*
X55562500Y-158018750D03*
%TD*%
%TO.C,D1*%
X55562500Y-135668750D03*
X55562500Y-138968750D03*
%TD*%
%TO.C,C20*%
G36*
G01*
X84447500Y-110716250D02*
X84447500Y-111216250D01*
G75*
G02*
X84222500Y-111441250I-225000J0D01*
G01*
X83772500Y-111441250D01*
G75*
G02*
X83547500Y-111216250I0J225000D01*
G01*
X83547500Y-110716250D01*
G75*
G02*
X83772500Y-110491250I225000J0D01*
G01*
X84222500Y-110491250D01*
G75*
G02*
X84447500Y-110716250I0J-225000D01*
G01*
G37*
G36*
G01*
X85997500Y-110716250D02*
X85997500Y-111216250D01*
G75*
G02*
X85772500Y-111441250I-225000J0D01*
G01*
X85322500Y-111441250D01*
G75*
G02*
X85097500Y-111216250I0J225000D01*
G01*
X85097500Y-110716250D01*
G75*
G02*
X85322500Y-110491250I225000J0D01*
G01*
X85772500Y-110491250D01*
G75*
G02*
X85997500Y-110716250I0J-225000D01*
G01*
G37*
%TD*%
%TO.C,C19*%
G36*
G01*
X78228000Y-117404000D02*
X77728000Y-117404000D01*
G75*
G02*
X77503000Y-117179000I0J225000D01*
G01*
X77503000Y-116729000D01*
G75*
G02*
X77728000Y-116504000I225000J0D01*
G01*
X78228000Y-116504000D01*
G75*
G02*
X78453000Y-116729000I0J-225000D01*
G01*
X78453000Y-117179000D01*
G75*
G02*
X78228000Y-117404000I-225000J0D01*
G01*
G37*
G36*
G01*
X78228000Y-118954000D02*
X77728000Y-118954000D01*
G75*
G02*
X77503000Y-118729000I0J225000D01*
G01*
X77503000Y-118279000D01*
G75*
G02*
X77728000Y-118054000I225000J0D01*
G01*
X78228000Y-118054000D01*
G75*
G02*
X78453000Y-118279000I0J-225000D01*
G01*
X78453000Y-118729000D01*
G75*
G02*
X78228000Y-118954000I-225000J0D01*
G01*
G37*
%TD*%
%TO.C,C18*%
G36*
G01*
X89346595Y-108110959D02*
X88993041Y-107757405D01*
G75*
G02*
X88993041Y-107439207I159099J159099D01*
G01*
X89311239Y-107121009D01*
G75*
G02*
X89629437Y-107121009I159099J-159099D01*
G01*
X89982991Y-107474563D01*
G75*
G02*
X89982991Y-107792761I-159099J-159099D01*
G01*
X89664793Y-108110959D01*
G75*
G02*
X89346595Y-108110959I-159099J159099D01*
G01*
G37*
G36*
G01*
X88250579Y-109206975D02*
X87897025Y-108853421D01*
G75*
G02*
X87897025Y-108535223I159099J159099D01*
G01*
X88215223Y-108217025D01*
G75*
G02*
X88533421Y-108217025I159099J-159099D01*
G01*
X88886975Y-108570579D01*
G75*
G02*
X88886975Y-108888777I-159099J-159099D01*
G01*
X88568777Y-109206975D01*
G75*
G02*
X88250579Y-109206975I-159099J159099D01*
G01*
G37*
%TD*%
%TO.C,C17*%
G36*
G01*
X93152405Y-112869041D02*
X93505959Y-113222595D01*
G75*
G02*
X93505959Y-113540793I-159099J-159099D01*
G01*
X93187761Y-113858991D01*
G75*
G02*
X92869563Y-113858991I-159099J159099D01*
G01*
X92516009Y-113505437D01*
G75*
G02*
X92516009Y-113187239I159099J159099D01*
G01*
X92834207Y-112869041D01*
G75*
G02*
X93152405Y-112869041I159099J-159099D01*
G01*
G37*
G36*
G01*
X94248421Y-111773025D02*
X94601975Y-112126579D01*
G75*
G02*
X94601975Y-112444777I-159099J-159099D01*
G01*
X94283777Y-112762975D01*
G75*
G02*
X93965579Y-112762975I-159099J159099D01*
G01*
X93612025Y-112409421D01*
G75*
G02*
X93612025Y-112091223I159099J159099D01*
G01*
X93930223Y-111773025D01*
G75*
G02*
X94248421Y-111773025I159099J-159099D01*
G01*
G37*
%TD*%
%TO.C,C16*%
G36*
G01*
X77825413Y-110924033D02*
X78178967Y-111277587D01*
G75*
G02*
X78178967Y-111595785I-159099J-159099D01*
G01*
X77860769Y-111913983D01*
G75*
G02*
X77542571Y-111913983I-159099J159099D01*
G01*
X77189017Y-111560429D01*
G75*
G02*
X77189017Y-111242231I159099J159099D01*
G01*
X77507215Y-110924033D01*
G75*
G02*
X77825413Y-110924033I159099J-159099D01*
G01*
G37*
G36*
G01*
X78921429Y-109828017D02*
X79274983Y-110181571D01*
G75*
G02*
X79274983Y-110499769I-159099J-159099D01*
G01*
X78956785Y-110817967D01*
G75*
G02*
X78638587Y-110817967I-159099J159099D01*
G01*
X78285033Y-110464413D01*
G75*
G02*
X78285033Y-110146215I159099J159099D01*
G01*
X78603231Y-109828017D01*
G75*
G02*
X78921429Y-109828017I159099J-159099D01*
G01*
G37*
%TD*%
%TO.C,C13*%
G36*
G01*
X89912000Y-164775000D02*
X89412000Y-164775000D01*
G75*
G02*
X89187000Y-164550000I0J225000D01*
G01*
X89187000Y-164100000D01*
G75*
G02*
X89412000Y-163875000I225000J0D01*
G01*
X89912000Y-163875000D01*
G75*
G02*
X90137000Y-164100000I0J-225000D01*
G01*
X90137000Y-164550000D01*
G75*
G02*
X89912000Y-164775000I-225000J0D01*
G01*
G37*
G36*
G01*
X89912000Y-166325000D02*
X89412000Y-166325000D01*
G75*
G02*
X89187000Y-166100000I0J225000D01*
G01*
X89187000Y-165650000D01*
G75*
G02*
X89412000Y-165425000I225000J0D01*
G01*
X89912000Y-165425000D01*
G75*
G02*
X90137000Y-165650000I0J-225000D01*
G01*
X90137000Y-166100000D01*
G75*
G02*
X89912000Y-166325000I-225000J0D01*
G01*
G37*
%TD*%
%TO.C,C11*%
G36*
G01*
X43438000Y-165425000D02*
X43938000Y-165425000D01*
G75*
G02*
X44163000Y-165650000I0J-225000D01*
G01*
X44163000Y-166100000D01*
G75*
G02*
X43938000Y-166325000I-225000J0D01*
G01*
X43438000Y-166325000D01*
G75*
G02*
X43213000Y-166100000I0J225000D01*
G01*
X43213000Y-165650000D01*
G75*
G02*
X43438000Y-165425000I225000J0D01*
G01*
G37*
G36*
G01*
X43438000Y-163875000D02*
X43938000Y-163875000D01*
G75*
G02*
X44163000Y-164100000I0J-225000D01*
G01*
X44163000Y-164550000D01*
G75*
G02*
X43938000Y-164775000I-225000J0D01*
G01*
X43438000Y-164775000D01*
G75*
G02*
X43213000Y-164550000I0J225000D01*
G01*
X43213000Y-164100000D01*
G75*
G02*
X43438000Y-163875000I225000J0D01*
G01*
G37*
%TD*%
%TO.C,C9*%
G36*
G01*
X80268000Y-180030000D02*
X80768000Y-180030000D01*
G75*
G02*
X80993000Y-180255000I0J-225000D01*
G01*
X80993000Y-180705000D01*
G75*
G02*
X80768000Y-180930000I-225000J0D01*
G01*
X80268000Y-180930000D01*
G75*
G02*
X80043000Y-180705000I0J225000D01*
G01*
X80043000Y-180255000D01*
G75*
G02*
X80268000Y-180030000I225000J0D01*
G01*
G37*
G36*
G01*
X80268000Y-178480000D02*
X80768000Y-178480000D01*
G75*
G02*
X80993000Y-178705000I0J-225000D01*
G01*
X80993000Y-179155000D01*
G75*
G02*
X80768000Y-179380000I-225000J0D01*
G01*
X80268000Y-179380000D01*
G75*
G02*
X80043000Y-179155000I0J225000D01*
G01*
X80043000Y-178705000D01*
G75*
G02*
X80268000Y-178480000I225000J0D01*
G01*
G37*
%TD*%
%TO.C,C8*%
G36*
G01*
X80268000Y-160980000D02*
X80768000Y-160980000D01*
G75*
G02*
X80993000Y-161205000I0J-225000D01*
G01*
X80993000Y-161655000D01*
G75*
G02*
X80768000Y-161880000I-225000J0D01*
G01*
X80268000Y-161880000D01*
G75*
G02*
X80043000Y-161655000I0J225000D01*
G01*
X80043000Y-161205000D01*
G75*
G02*
X80268000Y-160980000I225000J0D01*
G01*
G37*
G36*
G01*
X80268000Y-159430000D02*
X80768000Y-159430000D01*
G75*
G02*
X80993000Y-159655000I0J-225000D01*
G01*
X80993000Y-160105000D01*
G75*
G02*
X80768000Y-160330000I-225000J0D01*
G01*
X80268000Y-160330000D01*
G75*
G02*
X80043000Y-160105000I0J225000D01*
G01*
X80043000Y-159655000D01*
G75*
G02*
X80268000Y-159430000I225000J0D01*
G01*
G37*
%TD*%
%TO.C,C6*%
G36*
G01*
X61218000Y-180030000D02*
X61718000Y-180030000D01*
G75*
G02*
X61943000Y-180255000I0J-225000D01*
G01*
X61943000Y-180705000D01*
G75*
G02*
X61718000Y-180930000I-225000J0D01*
G01*
X61218000Y-180930000D01*
G75*
G02*
X60993000Y-180705000I0J225000D01*
G01*
X60993000Y-180255000D01*
G75*
G02*
X61218000Y-180030000I225000J0D01*
G01*
G37*
G36*
G01*
X61218000Y-178480000D02*
X61718000Y-178480000D01*
G75*
G02*
X61943000Y-178705000I0J-225000D01*
G01*
X61943000Y-179155000D01*
G75*
G02*
X61718000Y-179380000I-225000J0D01*
G01*
X61218000Y-179380000D01*
G75*
G02*
X60993000Y-179155000I0J225000D01*
G01*
X60993000Y-178705000D01*
G75*
G02*
X61218000Y-178480000I225000J0D01*
G01*
G37*
%TD*%
%TO.C,C5*%
G36*
G01*
X61218000Y-160980000D02*
X61718000Y-160980000D01*
G75*
G02*
X61943000Y-161205000I0J-225000D01*
G01*
X61943000Y-161655000D01*
G75*
G02*
X61718000Y-161880000I-225000J0D01*
G01*
X61218000Y-161880000D01*
G75*
G02*
X60993000Y-161655000I0J225000D01*
G01*
X60993000Y-161205000D01*
G75*
G02*
X61218000Y-160980000I225000J0D01*
G01*
G37*
G36*
G01*
X61218000Y-159430000D02*
X61718000Y-159430000D01*
G75*
G02*
X61943000Y-159655000I0J-225000D01*
G01*
X61943000Y-160105000D01*
G75*
G02*
X61718000Y-160330000I-225000J0D01*
G01*
X61218000Y-160330000D01*
G75*
G02*
X60993000Y-160105000I0J225000D01*
G01*
X60993000Y-159655000D01*
G75*
G02*
X61218000Y-159430000I225000J0D01*
G01*
G37*
%TD*%
%TO.C,C3*%
G36*
G01*
X42168000Y-180030000D02*
X42668000Y-180030000D01*
G75*
G02*
X42893000Y-180255000I0J-225000D01*
G01*
X42893000Y-180705000D01*
G75*
G02*
X42668000Y-180930000I-225000J0D01*
G01*
X42168000Y-180930000D01*
G75*
G02*
X41943000Y-180705000I0J225000D01*
G01*
X41943000Y-180255000D01*
G75*
G02*
X42168000Y-180030000I225000J0D01*
G01*
G37*
G36*
G01*
X42168000Y-178480000D02*
X42668000Y-178480000D01*
G75*
G02*
X42893000Y-178705000I0J-225000D01*
G01*
X42893000Y-179155000D01*
G75*
G02*
X42668000Y-179380000I-225000J0D01*
G01*
X42168000Y-179380000D01*
G75*
G02*
X41943000Y-179155000I0J225000D01*
G01*
X41943000Y-178705000D01*
G75*
G02*
X42168000Y-178480000I225000J0D01*
G01*
G37*
%TD*%
%TO.C,C2*%
G36*
G01*
X42168000Y-160980000D02*
X42668000Y-160980000D01*
G75*
G02*
X42893000Y-161205000I0J-225000D01*
G01*
X42893000Y-161655000D01*
G75*
G02*
X42668000Y-161880000I-225000J0D01*
G01*
X42168000Y-161880000D01*
G75*
G02*
X41943000Y-161655000I0J225000D01*
G01*
X41943000Y-161205000D01*
G75*
G02*
X42168000Y-160980000I225000J0D01*
G01*
G37*
G36*
G01*
X42168000Y-159430000D02*
X42668000Y-159430000D01*
G75*
G02*
X42893000Y-159655000I0J-225000D01*
G01*
X42893000Y-160105000D01*
G75*
G02*
X42668000Y-160330000I-225000J0D01*
G01*
X42168000Y-160330000D01*
G75*
G02*
X41943000Y-160105000I0J225000D01*
G01*
X41943000Y-159655000D01*
G75*
G02*
X42168000Y-159430000I225000J0D01*
G01*
G37*
%TD*%
M02*
